<?xml version="1.0" encoding="UTF-8"?>
<!DOCTYPE svg PUBLIC "-//W3C//DTD SVG 1.1//EN" "http://www.w3.org/Graphics/SVG/1.1/DTD/svg11.dtd">
<!-- Creator: CorelDRAW 2018 (64-Bit Evaluation Version) -->
<svg xmlns="http://www.w3.org/2000/svg" xml:space="preserve" width="100mm" height="100mm" version="1.1" style="shape-rendering:geometricPrecision; text-rendering:geometricPrecision; image-rendering:optimizeQuality; fill-rule:evenodd; clip-rule:evenodd"
viewBox="0 0 10000 10000"
 xmlns:xlink="http://www.w3.org/1999/xlink">
 <defs>
  <style type="text/css">
   <![CDATA[
    .fil0 {fill:#F9BC36;fill-rule:nonzero}
    .fil2 {fill:#4687C7;fill-rule:nonzero}
    .fil1 {fill:#223F6C;fill-rule:nonzero}
   ]]>
  </style>
 </defs>
 <g id="Layer_x0020_1">
  <metadata id="CorelCorpID_0Corel-Layer"/>
  <g id="_1479631010560">
   <path class="fil0" d="M819.85 7870.48l0 -4822.53c-500.94,-2.48 -819.85,33.52 -819.85,33.52l0 5690.07c0,0 2807.18,-319.86 4882.91,1006.52 -1726.47,-1675.28 -4063.06,-1907.58 -4063.06,-1907.58z"/>
   <path class="fil1" d="M2950.57 7213.3l0 -4843.13c-921.31,-385.94 -1713.54,-515.18 -1713.54,-515.18l0 5690.17c0,0 2662.33,433.1 3902.27,2092.26 -364.5,-1086.44 -2188.73,-2424.12 -2188.73,-2424.12z"/>
   <path class="fil2" d="M3367.72 1255.36l0 5690.05c0,0 1611.4,1157.62 2130.79,2688.76l0 -5080.83c0,-2544.25 -2130.79,-3297.98 -2130.79,-3297.98z"/>
   <path class="fil1" d="M9413.13 7396.21l0 -4398.09c500.87,-2.48 586.87,46.23 586.87,46.23l0 5340.13c0,0 -2564.6,-410.94 -4176.85,1393.58 1199.99,-2066.98 3589.98,-2381.85 3589.98,-2381.85z"/>
   <path class="fil0" d="M8995.96 1398.04l0 5685.19c0,0 -2978.23,1019.8 -3497.45,2550.94l0 -5080.83c0,-2544.25 3497.45,-3155.3 3497.45,-3155.3z"/>
   <polygon class="fil0" points="5823.15,221.9 6258.51,1018 7054.52,1453.34 6258.51,1888.7 5823.15,2684.8 5387.72,1888.7 4591.62,1453.34 5387.72,1018 "/>
  </g>
 </g>
</svg>
