<svg width="20" height="20" viewBox="0 0 20 20" fill="none" xmlns="http://www.w3.org/2000/svg">
<g id="bag-shopping">
<path id="Icon" d="M7.49992 9.16667V5C7.49992 3.61929 8.61921 2.5 9.99992 2.5C11.3806 2.5 12.4999 3.61929 12.4999 5V9.13939M8.66658 17.5H11.3333C13.2001 17.5 14.1335 17.5 14.8466 17.1367C15.4738 16.8171 15.9837 16.3072 16.3033 15.68C16.6666 14.9669 16.6666 14.0335 16.6666 12.1667V10.1667C16.6666 9.23325 16.6666 8.76654 16.4849 8.41002C16.3251 8.09641 16.0702 7.84144 15.7566 7.68166C15.4 7.5 14.9333 7.5 13.9999 7.5H5.99992C5.0665 7.5 4.59979 7.5 4.24327 7.68166C3.92966 7.84144 3.6747 8.09641 3.51491 8.41002C3.33325 8.76654 3.33325 9.23325 3.33325 10.1667V12.1667C3.33325 14.0335 3.33325 14.9669 3.69656 15.68C4.01614 16.3072 4.52608 16.8171 5.15328 17.1367C5.86632 17.5 6.79974 17.5 8.66658 17.5Z" stroke="#fff" stroke-width="1.5" stroke-linecap="round" stroke-linejoin="round"/>
</g>
</svg>
