<svg width="49" height="54" viewBox="0 0 49 54" fill="none" xmlns="http://www.w3.org/2000/svg">
<path d="M11.2639 22.0335C11.951 22.2298 12.5399 22.2298 13.1289 21.9354C13.5216 21.8372 13.6197 21.4446 13.5216 21.052C13.5216 20.9538 13.4234 20.8557 13.4234 20.6594C13.4234 20.5612 13.3252 20.463 13.3252 20.3649C13.2271 19.8741 13.1289 19.0889 13.1289 18.3036C13.1289 16.9294 13.3252 15.7515 13.6197 15.5552C13.7179 15.4571 13.7179 15.3589 13.7179 15.2607V14.4755V14.181C13.5216 13.4939 13.4234 12.8068 13.4234 12.0216C13.4234 6.52477 18.5276 2.00923 24.8096 2.00923C29.9138 2.00923 34.2327 4.95394 35.7052 8.97854C35.9997 9.56748 36.2942 10.2545 36.3923 11.0398C36.5887 12.2177 36.4905 13.3956 36.5887 14.5735V15.1624C36.5887 15.2606 36.5887 15.4569 36.6868 15.555C36.785 15.6532 36.785 15.8495 36.785 15.9477C36.785 16.3403 36.8831 16.7329 36.8831 17.2237C36.8831 18.4997 36.6868 19.6776 36.2942 20.7573C36.2942 20.8555 36.2942 20.8555 36.196 20.9536C36.0979 21.3463 36.2942 21.6408 36.5887 21.837C36.785 21.9352 36.785 22.0333 36.785 22.1315C36.5887 23.8983 35.9997 25.4688 35.0181 26.9412C34.0366 28.4135 32.6624 29.4932 30.9937 30.3767C30.6011 30.573 30.2085 30.7693 29.8158 30.8675H29.5214C29.0306 30.6712 28.638 30.6712 28.1472 30.8675C27.3619 31.1619 26.5767 31.3582 25.6933 31.6527C24.908 31.849 24.4173 32.3399 24.4173 33.0269C24.4173 33.6159 24.8099 34.1067 25.5952 34.4011H25.6933H26.1841H26.3804C27.2638 34.1066 28.2454 33.8122 29.1288 33.5177C29.6196 33.3214 30.1104 33.1251 30.2086 32.7325C30.3067 32.2417 30.7975 32.0454 31.1901 31.8491C32.4662 31.2602 33.644 30.4749 34.6257 29.5915C35.7054 28.5117 36.5888 27.3338 37.1778 26.0578C37.7667 24.7818 38.1593 23.5057 38.2575 22.1315C38.2575 22.0334 38.3557 21.9352 38.4538 21.837C39.4354 21.4444 39.9262 20.7573 39.9262 19.7758V14.6716C39.9262 13.7882 39.5336 13.1011 38.6502 12.7085C38.3557 12.5122 38.0613 12.2177 38.0613 11.8251C37.9631 11.3343 37.9631 10.8435 37.8649 10.3527C37.5705 8.88032 36.8834 7.50618 35.9999 6.13192C35.2147 4.95404 34.2331 3.87428 33.0552 2.99089C31.8773 2.10751 30.6013 1.42038 29.1289 0.929628C28.2456 0.733314 27.0677 0.537 25.8898 0.438843H25.6935H25.4972H24.2211H23.8285C23.3377 0.537 22.9451 0.537 22.4543 0.635157C20.4912 0.929628 18.7244 1.71492 17.0557 2.79461C15.7796 3.67799 14.6999 4.65963 13.8165 5.83751C13.0312 6.91727 12.3441 8.19328 11.9515 9.46929C11.657 10.4509 11.4607 11.4324 11.3625 12.414C11.3625 12.6103 11.2644 12.7085 11.0681 12.8066C10.0865 13.1011 9.49756 13.7882 9.49756 14.6716V20.1684C9.69387 20.9537 10.3809 21.739 11.2644 22.0335L11.2639 22.0335Z" fill="#EA3A3D"/>
<path fill-rule="evenodd" clip-rule="evenodd" d="M14.994 17.7141C14.994 17.4197 15.1903 16.9289 15.4847 16.8308V16.8311C16.1718 16.5366 16.0737 16.0458 15.9755 15.5551C15.9755 15.0679 15.954 14.5699 15.9324 14.0683C15.8886 13.0541 15.8442 12.025 15.9755 11.0398C16.3682 7.99693 18.4294 6.13198 21.1778 5.15041C23.7301 4.267 26.3803 4.267 28.9324 5.24857C32.466 6.52445 34.2329 9.37085 33.9384 13.2971C33.8893 13.6406 33.8648 13.9841 33.8403 14.3276C33.8157 14.6712 33.7912 15.0148 33.7421 15.3584C33.7324 15.4266 33.7217 15.4937 33.7111 15.5598C33.6156 16.1595 33.5353 16.6636 34.331 16.9289C34.5274 17.027 34.7237 17.4197 34.7237 17.7142C34.9199 18.892 34.7237 19.9717 34.0365 21.0515C33.7911 21.4442 33.5456 21.8615 33.3001 22.2788C33.0548 22.6958 32.8095 23.1129 32.5642 23.5054C32.3024 23.898 32.0516 24.3016 31.8007 24.7051C31.299 25.5121 30.7973 26.3192 30.2084 27.0391C27.2634 30.4746 22.7483 30.5727 19.7054 27.1372C18.7181 26.0676 18.0066 24.86 17.282 23.6301C17.1421 23.3928 17.0018 23.1546 16.8589 22.9164C16.6626 22.671 16.5153 22.4011 16.3681 22.1312C16.2209 21.8612 16.0736 21.5913 15.8773 21.3459C15.0921 20.2662 14.7976 18.9901 14.994 17.7141ZM17.1044 17.4688C16.9326 17.3952 16.7608 17.3215 16.5645 17.2234L16.5643 17.2235C16.5082 17.3357 16.4361 17.4478 16.364 17.56C16.1837 17.8405 16.0034 18.1209 16.0735 18.4014C16.1717 19.0883 16.4661 19.7753 16.7605 20.4623L16.7606 20.4626C17.0031 21.0083 17.3206 21.5166 17.6435 22.0336C17.8434 22.3536 18.0454 22.677 18.233 23.0147L18.2358 23.0203C18.7257 23.9999 19.2155 24.9795 19.7054 25.8612C21.2759 28.1188 23.7298 28.9041 26.3801 28.3151C28.5395 27.8243 29.7174 26.352 30.699 24.5852C31.0012 24.0563 31.3179 23.5274 31.638 22.993C32.1496 22.1387 32.6698 21.2701 33.1529 20.3644C33.1847 20.2848 33.2192 20.2025 33.2545 20.1182C33.437 19.6825 33.6437 19.1891 33.6437 18.6957C33.6437 18.4139 33.4919 18.0815 33.3337 17.7348C33.2715 17.5985 33.2083 17.46 33.1529 17.3215C32.9566 17.4197 32.7603 17.4933 32.5639 17.5669C32.3676 17.6405 32.1713 17.7142 31.975 17.8123C32.0795 17.2896 32.1563 16.739 32.2348 16.1754C32.3037 15.6807 32.374 15.176 32.4658 14.6713C31.681 14.5732 30.9943 14.4751 30.3076 14.377L30.3063 14.3768C27.0673 14.0823 24.0244 13.1989 21.5705 10.8432C21.2761 10.5487 20.6871 10.3524 20.2945 10.4505C18.4295 10.9414 17.1535 13.0026 17.3498 14.9658C17.4479 15.9473 17.5461 16.8308 17.6443 17.7142C17.4479 17.616 17.2762 17.5424 17.1044 17.4688Z" fill="#EA3A3D"/>
<path d="M48.8582 45.8852C47.8767 41.0756 45.4227 37.3454 40.711 35.3823C38.6498 34.4989 36.4902 33.6155 34.331 32.732L33.1531 32.1431C32.8586 33.321 32.6623 34.4007 32.3678 35.5786C31.2881 40.7809 29.2268 45.5909 25.8898 49.8112C25.0064 50.891 24.81 50.891 23.9266 49.8112C21.0801 46.1794 19.117 42.1546 18.0372 37.8364C17.5464 35.9713 17.1538 34.1064 16.663 32.2414C14.0128 33.4193 11.2644 34.4991 8.61446 35.677C7.82921 36.0696 7.04395 36.4622 6.35682 36.953C2.72504 39.7995 0.95815 43.5297 0.761898 48.0446C0.663741 49.9096 1.15453 50.4985 2.92135 51.0875C3.11767 51.1856 3.31398 51.1856 3.5103 51.2838C8.22183 52.1672 13.0314 52.8543 17.8409 53.2469C23.1414 53.7377 28.5399 53.6396 33.8407 53.0506C37.5706 52.658 41.3006 52.069 45.0303 51.4801C45.9136 51.3819 46.8953 50.9893 47.6805 50.6948C48.2695 50.4985 48.7603 50.0077 48.7603 49.2225C48.9566 48.1427 49.0548 46.9648 48.8584 45.8851L48.8582 45.8852Z" fill="#EA3A3D"/>
<path d="M26.969 47.0631C26.969 46.9649 27.0671 46.9649 26.969 46.8668C26.8708 46.4741 26.8708 46.1796 26.7727 45.787C26.7727 45.4925 26.6745 45.1981 26.5763 44.9036C25.4966 45.8852 24.5151 46.8668 23.5334 47.8483C23.9261 48.3391 24.4168 48.7317 24.8095 49.2225L26.9689 47.0631H26.969Z" fill="#EA3A3D"/>
<path d="M26.6744 36.1681C26.5762 36.1681 26.5762 36.1681 26.6744 36.1681C25.4965 35.5792 24.3186 35.5792 23.2389 36.1681C22.7481 36.4626 22.6499 36.6589 23.0426 37.0515C23.4352 37.4441 23.8278 37.7387 24.2204 38.1313C24.3186 38.2294 24.4168 38.3276 24.3186 38.4258C24.2204 38.8184 24.2204 39.211 24.1223 39.6036L25.5947 38.4258C25.5947 38.4258 25.5947 38.3276 25.6928 38.3276C25.791 38.2294 25.791 38.1313 25.8891 38.0331C26.2818 37.6405 26.6744 37.346 26.9689 36.9534C27.1652 36.6589 27.1652 36.4626 26.6744 36.1681L26.6744 36.1681Z" fill="#EA3A3D"/>
<path d="M22.9448 47.2598C24.2208 46.2782 25.3987 45.3947 26.4785 44.4132L26.5766 44.3151C26.4785 43.9224 26.4785 43.5298 26.3803 43.0391C26.2822 43.1372 26.184 43.1372 26.184 43.2354C25.3006 44.1188 24.4172 45.0022 23.4356 45.7875C23.1412 46.0819 22.8467 46.3764 22.8467 46.8672C22.8467 46.9654 22.8467 47.0635 22.9448 47.2598V47.2598Z" fill="#EA3A3D"/>
<path d="M23.4353 43.5295C23.3372 43.9221 23.3372 44.3147 23.239 44.7073H23.3372C24.3187 43.9221 25.2022 43.235 26.1837 42.4497C26.1837 42.4497 26.2819 42.3515 26.2819 42.2534C26.1837 41.8608 26.1837 41.4681 26.0855 41.0755C25.9874 41.0755 25.9874 41.1737 25.9874 41.1737C25.2021 41.9589 24.3187 42.7442 23.5335 43.5294H23.4353V43.5295Z" fill="#EA3A3D"/>
<path d="M25.8892 40.2904C25.791 39.8978 25.791 39.5052 25.6928 39.1125H25.5947C25.5947 39.2107 25.4965 39.2107 25.4965 39.3089L24.2205 40.5849C23.9261 40.7812 23.8279 41.0757 23.8279 41.3701C23.8279 41.6646 23.7297 41.8609 23.7297 42.1554H23.8279C24.515 41.5664 25.2021 41.0756 25.8892 40.4867V40.2904Z" fill="#EA3A3D"/>
</svg>
