<svg width="59" height="50" viewBox="0 0 59 50" fill="none" xmlns="http://www.w3.org/2000/svg">
<path fill-rule="evenodd" clip-rule="evenodd" d="M50.2971 1.33402C48.5063 0.65432 46.595 0.345809 44.6813 0.531397L44.6815 0.531298C42.6448 0.716898 40.6708 1.3942 39.0078 2.44505C37.4652 3.4308 36.1685 4.72754 35.2429 6.27009C34.2572 7.81264 33.6402 9.60102 33.4546 11.4521C33.2087 13.7344 33.5775 16.0169 34.5657 18.0536C35.7999 20.7675 38.145 22.9898 40.9216 24.1611C43.5726 25.2722 46.7204 25.4578 49.497 24.5323C51.2251 23.978 52.8279 23.0524 54.1247 21.8184C55.4189 20.647 56.4674 19.1672 57.1471 17.5619C58.0099 15.528 58.3184 13.3057 58.0099 11.1461C57.7616 9.29507 57.0844 7.44401 55.9733 5.83877C54.5536 3.8021 52.5796 2.25955 50.2971 1.33402ZM40.6081 10.2783C40.9166 8.73571 42.0278 7.31853 43.4474 6.63882L43.4474 6.63885C44.5585 6.08449 45.8552 5.96157 47.2122 6.33034C48.386 6.63885 49.4947 7.37878 50.1744 8.367C50.4829 8.86111 50.36 9.5408 49.8659 9.78664C49.4947 10.0325 49.0632 10.0325 48.7547 9.78664C48.6309 9.703 48.5618 9.62043 48.493 9.53821C48.4587 9.49724 48.4244 9.45635 48.3836 9.41547C47.8292 8.73578 47.0868 8.30435 46.224 8.18142C45.4816 8.0585 44.6187 8.24409 44.0017 8.67552C43.3847 9.04425 42.8906 9.66127 42.6448 10.341H45.9155C46.224 10.341 46.5325 10.4639 46.7181 10.7724C46.9037 11.0809 46.9037 11.5124 46.7181 11.8209C46.5952 12.1294 46.224 12.315 45.9155 12.315H42.4592V13.7948H45.9155C46.224 13.7346 46.5325 13.9202 46.7181 14.166C46.9663 14.4745 46.9663 14.9686 46.7808 15.2771C46.5976 15.5856 46.2891 15.7712 45.9179 15.7712H42.7099C42.9557 16.3883 43.4498 16.9426 44.0669 17.3138C44.8068 17.7452 45.7323 17.8681 46.5349 17.6223C47.2749 17.4367 47.9546 16.9426 48.386 16.3256C48.5691 16.0171 48.9403 15.8941 49.2488 15.8941C49.6176 15.8941 49.9261 16.14 50.1117 16.4485C50.2346 16.757 50.2346 17.1282 50.049 17.4367C49.1235 18.6707 47.6436 19.536 46.1011 19.659C44.6212 19.7819 43.016 19.1649 41.9675 18.0537C41.2903 17.4367 40.8564 16.5714 40.6106 15.7086H39.4392C39.1307 15.7086 38.8222 15.523 38.6366 15.2145C38.451 14.9686 38.451 14.5974 38.5739 14.2889C38.7571 13.9804 39.0656 13.7346 39.4368 13.7346H40.4852V12.2547H39.4368C38.9427 12.2547 38.5112 11.7606 38.5112 11.2665C38.5112 10.7724 38.9427 10.2783 39.4368 10.2783H40.6081Z" fill="#EA3A3D"/>
<path d="M1.48994 16.574C2.22987 15.5255 3.40369 14.9085 4.69795 14.9085H14.756V25.8921C14.2017 25.1522 13.522 24.5352 12.8423 24.041C12.1023 23.4867 11.237 23.1155 10.3115 22.9299C9.57156 22.807 8.76894 22.807 8.08923 23.1758C7.4722 23.4843 6.97809 24.1013 6.79249 24.781C6.54665 25.6438 6.66957 26.6321 7.03834 27.4347C7.53244 28.6687 8.33507 29.7799 9.38351 30.6427H0.868004V18.9193C0.7499 17.9938 0.995746 17.1911 1.48984 16.5741L1.48994 16.574Z" fill="#EA3A3D"/>
<path d="M16.7296 14.8457H30.4898C30.9212 18.1766 32.4638 21.3244 34.8716 23.6697C37.0312 25.8293 39.8705 27.3092 42.83 27.866C45.298 28.3601 47.8288 28.1745 50.2342 27.4345V30.5196H21.974C22.6537 29.9653 23.2081 29.2856 23.7022 28.5457C24.1963 27.743 24.6277 26.7573 24.6904 25.7691C24.7531 25.0291 24.5675 24.2892 24.0734 23.6722C23.6419 23.1178 22.902 22.8093 22.1596 22.7466C21.2341 22.684 20.3713 22.9322 19.5686 23.301C18.5202 23.8554 17.532 24.5977 16.792 25.5233C16.7294 22.0043 16.7294 18.4251 16.7294 14.8457L16.7296 14.8457Z" fill="#EA3A3D"/>
<path d="M9.14269 24.781C9.63679 24.658 10.0682 24.781 10.5623 24.9665C11.4252 25.3377 12.2278 25.8921 12.8448 26.5718C13.3992 27.1888 13.8933 27.9287 14.1415 28.7314C14.2645 29.1025 14.3271 29.534 14.2042 29.9027C14.1415 30.1486 13.833 30.2739 13.5872 30.2739C13.0328 30.3366 12.5387 30.151 12.0446 29.9654C11.1818 29.5942 10.5021 28.9772 9.88506 28.2999C9.39096 27.7456 9.02222 27.1286 8.77393 26.3862C8.65101 26.015 8.58834 25.5835 8.71127 25.2148C8.70886 25.0268 8.89445 24.8412 9.1427 24.781L9.14269 24.781Z" fill="#EA3A3D"/>
<path d="M21.2974 24.7809C21.6059 24.7183 21.9771 24.658 22.2856 24.8436C22.5314 24.9665 22.5941 25.2148 22.6568 25.4606C22.7194 25.9547 22.5339 26.4488 22.3483 26.8803C21.9168 27.8058 21.2998 28.5457 20.4972 29.1628C19.8802 29.6569 19.1402 30.0883 18.3376 30.2739C18.0291 30.3366 17.6579 30.3366 17.3494 30.2112C17.1036 30.0883 17.0409 29.7798 17.0409 29.4713C17.0409 28.9169 17.2265 28.4228 17.4723 27.9287C17.9038 27.1261 18.5208 26.3862 19.2607 25.8319C19.8777 25.3353 20.5574 24.9642 21.2974 24.781L21.2974 24.7809Z" fill="#EA3A3D"/>
<path d="M0.75 32.4937H13.2761C11.9192 33.8507 10.5622 35.2076 9.20282 36.567C8.89431 36.8756 8.83165 37.307 9.01723 37.6782C9.20282 38.0493 9.57159 38.2952 9.94277 38.2325C10.1886 38.2325 10.4369 38.1096 10.6225 37.924C11.9794 36.5671 13.3991 35.2101 14.756 33.7905V49.3388H4.7609C4.02097 49.3388 3.28103 49.1532 2.60132 48.7218C1.49019 48.0421 0.750259 46.7478 0.750259 45.3908V32.4939L0.75 32.4937Z" fill="#EA3A3D"/>
<path d="M18.2123 32.5536H50.2345V45.6968C50.1718 46.5596 49.8633 47.4249 49.2463 48.1022C48.6292 48.8421 47.7037 49.3362 46.7782 49.4591C46.3467 49.5218 45.9756 49.4591 45.5441 49.5218H16.7299V33.9105C18.0868 35.3302 19.5065 36.6871 20.8634 38.0441C21.049 38.2297 21.3575 38.3526 21.6033 38.3526C21.9118 38.3526 22.2831 38.167 22.4662 37.8585C22.6518 37.55 22.6518 37.1788 22.5288 36.9329C22.4059 36.7474 22.2203 36.5618 22.0974 36.4388C20.7405 35.0843 19.5064 33.7876 18.2121 32.5535L18.2123 32.5536Z" fill="#EA3A3D"/>
</svg>
