<svg width="68" height="58" viewBox="0 0 68 58" fill="none" xmlns="http://www.w3.org/2000/svg">
<path fill-rule="evenodd" clip-rule="evenodd" d="M23.0584 44.8711L21.5433 34.4358L21.5406 34.1892L22.6844 32.9044L22.7359 32.5981C22.866 31.8175 22.2642 31.1101 21.4728 31.1101H19.2339C18.4425 31.1101 17.8435 31.8202 17.9736 32.6008L18.0251 32.9044L19.3071 34.2271L17.6321 44.7657L14.5909 30.6848L14.4446 30.1373L14.0461 30.3731C12.5554 31.2594 10.9291 31.8883 9.22965 32.2379C5.90389 32.9182 2.8194 33.7259 1.72467 37.4339C1.14216 39.4073 0.973773 46.0186 0.85229 50.7884L0.85229 50.7884C0.817763 52.1441 0.787024 53.351 0.751643 54.2604C0.713697 55.1549 1.3371 55.9382 2.21531 56.1035C4.76586 56.5859 9.61482 57.4885 15.9055 57.8002L15.9129 57.8005L15.9131 57.8005C15.9839 57.8031 16.0571 57.8058 16.1278 57.8111C16.4593 57.8267 16.7933 57.8399 17.125 57.8529L17.1632 57.8544C17.2258 57.8571 17.2884 57.8591 17.3507 57.8611L17.3509 57.8611L17.351 57.8611C17.4154 57.8632 17.4794 57.8652 17.5426 57.868L17.5433 57.868L17.5442 57.868C17.7962 57.8752 18.0482 57.8824 18.3002 57.8877C18.3323 57.8889 18.3644 57.8897 18.3965 57.8897H18.3965C18.4372 57.8897 18.4778 57.8897 18.5184 57.8924C18.5701 57.8924 18.6218 57.8948 18.6759 57.8974L18.6838 57.8978C18.7058 57.8978 18.7271 57.8985 18.7481 57.8992H18.7481C18.7684 57.8998 18.7884 57.9005 18.8084 57.9005H18.99H18.9901H18.9902C19.3669 57.9059 19.7436 57.9113 20.1203 57.9113C20.3869 57.9113 20.6559 57.9113 20.9251 57.907C28.4318 57.8267 35.3384 56.65 38.4921 56.0899C39.3784 55.9327 40.0154 55.1467 39.9774 54.2468C39.941 53.3247 39.9094 52.0987 39.874 50.7229C39.7515 45.9599 39.5827 39.4014 39.0044 37.439C37.904 33.7122 34.776 32.9153 31.4425 32.2323C29.7051 31.8745 28.0409 31.224 26.5231 30.3079L26.1572 30.0829L23.0584 44.8711ZM20.9251 57.907C20.6575 57.9099 20.3892 57.9113 20.1203 57.9113C20.4076 57.9113 20.6976 57.9086 20.9877 57.9059L20.9251 57.907ZM18.2232 57.8845C18.2355 57.885 18.2478 57.8856 18.26 57.8861C18.2734 57.8867 18.2868 57.8873 18.3002 57.8877L18.3965 57.8897C18.3666 57.8883 18.3368 57.8876 18.307 57.8869C18.2791 57.8863 18.2512 57.8857 18.2232 57.8845ZM18.2232 57.8845C18.2214 57.8844 18.2195 57.8843 18.2177 57.8842L18.2176 57.8842C18.2195 57.8843 18.2213 57.8844 18.2232 57.8845ZM22.4947 57.8729C22.4645 57.8743 22.4337 57.875 22.4025 57.8757C22.372 57.8763 22.3412 57.877 22.3104 57.8784C22.3415 57.877 22.372 57.8763 22.4025 57.8756C22.433 57.875 22.4635 57.8743 22.4947 57.8729Z" fill="#EA3A3D"/>
<path fill-rule="evenodd" clip-rule="evenodd" d="M29.0283 12.6763C29.033 12.7305 29.0378 12.7847 29.0432 12.8389L29.043 12.8389C30.092 12.9501 30.9051 13.8364 30.9105 14.9178V18.1216C30.9105 19.2356 30.0377 20.1436 28.9373 20.2032C28.6771 20.4282 28.2678 20.7697 27.742 21.1519C27.5441 21.6534 27.3273 22.1412 27.0833 22.6129C26.6795 23.3989 26.2106 24.147 25.6739 24.8599C24.1425 26.8981 22.2289 28.0121 20.2747 28.0121H20.1663C18.1876 27.9715 16.2958 26.7843 14.8402 24.6701C14.3876 24.0115 13.9756 23.323 13.6124 22.6129C13.2031 21.8214 12.8562 21.0111 12.5743 20.206H11.9157C10.7638 20.206 9.82861 19.2709 9.82861 18.119V14.9152C9.82861 13.9015 10.5523 13.0558 11.5118 12.8661C11.501 11.706 11.6636 10.5649 11.9211 9.43468C11.9279 9.40757 11.934 9.38047 11.9401 9.35337C11.9462 9.32626 11.9523 9.29915 11.959 9.27204C11.951 9.27003 11.9445 9.26653 11.9372 9.26265C11.9346 9.26129 11.932 9.25989 11.9292 9.25849C11.8609 9.37604 11.7917 9.49265 11.7188 9.61543C11.6673 9.70215 11.614 9.79195 11.5579 9.88732C11.6582 9.56204 11.7883 9.28829 11.9563 9.0308C12.016 8.93864 12.0648 8.83294 12.0973 8.72994C12.1711 8.49374 12.2382 8.25755 12.3128 7.99502C12.3204 7.96832 12.328 7.94135 12.3358 7.91408C12.0187 8.19322 11.8019 8.49951 11.6311 8.84373C11.8073 8.09018 12.2301 7.52914 12.9456 7.20931C13.0182 7.17523 13.0949 7.15088 13.1716 7.1265C13.2352 7.10628 13.2989 7.08604 13.3604 7.06023C13.4281 7.03312 13.504 6.99247 13.542 6.93555C13.5859 6.86185 13.6225 6.7827 13.6593 6.70336C13.686 6.64557 13.7128 6.58767 13.7425 6.53169C13.7777 6.46344 13.8192 6.39834 13.8609 6.33279C13.8739 6.31244 13.8869 6.29204 13.8997 6.27149C13.9024 6.26607 13.9052 6.26336 13.9079 6.26065C14.1644 6.06111 14.4106 5.84834 14.6567 5.63567C15.2061 5.16078 15.755 4.68634 16.4178 4.3606C16.9002 4.12208 17.4044 3.94048 17.9248 3.80766C17.8334 3.84575 17.741 3.8825 17.6484 3.91933C17.4774 3.98732 17.3058 4.05556 17.1388 4.13292C16.8731 4.2576 16.6102 4.39312 16.3609 4.55033C16.1809 4.66234 16.0097 4.79059 15.8387 4.91873C15.7779 4.96424 15.7172 5.00973 15.6562 5.05447L15.6887 5.10326C15.7286 5.07766 15.7701 5.054 15.8115 5.03037C15.8797 4.99145 15.9478 4.95262 16.0085 4.90539C16.5181 4.49069 17.109 4.25217 17.7324 4.08141C18.4859 3.87542 19.2557 3.78597 20.0309 3.74531C20.1526 3.73899 20.2743 3.73912 20.3966 3.73925C20.484 3.73935 20.5716 3.73944 20.6597 3.73718C19.5402 3.86187 18.4398 4.07599 17.4125 4.56387C17.5602 4.55157 17.7078 4.54057 17.8553 4.52959C18.2278 4.50185 18.5995 4.47417 18.9684 4.42563C19.1778 4.39886 19.3837 4.34921 19.5895 4.29954C19.738 4.26373 19.8864 4.22792 20.0363 4.20067C20.6787 4.08683 21.3265 4.04346 22.015 4.0272C21.7798 4.07088 21.5488 4.11393 21.3206 4.15645C20.8834 4.23792 20.4565 4.31745 20.0309 4.39582V4.43376C20.0752 4.43738 20.1197 4.44039 20.1643 4.4434C20.2534 4.44942 20.3426 4.45545 20.4293 4.46629C20.7275 4.50695 21.0229 4.49339 21.3238 4.46629C22.1993 4.38769 23.0639 4.47984 23.9286 4.60452C23.9475 4.60994 23.9665 4.62079 23.9801 4.65873H21.9933V4.69668C22.0601 4.71339 22.127 4.72985 22.1938 4.74629C22.3436 4.78316 22.493 4.81994 22.6411 4.85931C22.6853 4.87137 22.7302 4.88248 22.7753 4.89363C22.8822 4.92004 22.99 4.94667 23.091 4.9867C23.4005 5.11174 23.7255 5.14066 24.0508 5.16961C24.1557 5.17894 24.2605 5.18827 24.3649 5.20082C25.5115 5.33634 26.5929 5.66162 27.5606 6.31755C27.5958 6.34194 27.631 6.36634 27.6635 6.39886C26.7176 5.94892 25.7337 5.62095 24.6793 5.53693C24.7067 5.54867 24.7345 5.56077 24.7625 5.57297C24.812 5.59455 24.8622 5.61643 24.9124 5.63722C25.0339 5.68941 25.1561 5.74118 25.2786 5.79303C25.4677 5.87312 25.6573 5.95339 25.8449 6.03565C26.5469 6.34734 27.0537 6.87591 27.4766 7.50203C27.5416 7.5996 27.6202 7.68905 27.7043 7.76765C28.1108 8.14713 28.3791 8.61059 28.5878 9.11745C28.6366 9.23671 28.68 9.35597 28.7152 9.47794C28.5723 9.25426 28.4303 9.02952 28.2882 8.80438C28.2012 8.6667 28.1142 8.52887 28.0268 8.39105C28.0132 8.39647 27.9997 8.4046 27.9861 8.41273C27.9929 8.429 27.999 8.44594 28.0051 8.46288C28.0112 8.47982 28.0173 8.49676 28.0241 8.51302C28.1813 8.94669 28.3385 9.37767 28.4957 9.80863C28.5418 9.93331 28.5933 10.058 28.6502 10.1773C28.9266 10.7546 29.0811 11.3726 29.2112 11.9987C29.2194 12.0312 29.2248 12.0637 29.2194 12.1017C29.1966 12.0335 29.1746 11.9649 29.1525 11.8963C29.1113 11.7686 29.0701 11.6405 29.0242 11.5135C28.9714 11.3651 28.9139 11.2182 28.853 11.0625C28.8328 11.0107 28.8121 10.9578 28.7911 10.9036C28.8147 11.0706 28.8393 11.2349 28.8637 11.3974C28.9203 11.7756 28.9755 12.1439 29.0134 12.5137C29.0188 12.5679 29.0235 12.6221 29.0283 12.6763ZM20.1962 26.5053C21.6924 26.5324 23.2075 25.6271 24.4679 23.9521L24.4678 23.9521C24.7957 23.5157 25.0966 23.0603 25.3758 22.5833C24.4651 23.0332 23.4486 23.4127 22.3943 23.5862C22.2344 24.0632 21.7844 24.4101 21.2532 24.4101H20.4509C19.7868 24.4101 19.2474 23.8707 19.2474 23.2067C19.2474 22.5426 19.7868 22.0032 20.4509 22.0032H21.2532C21.7058 22.0032 22.0988 22.2553 22.3048 22.6239C23.7197 22.3772 25.0749 21.7132 26.1645 21.0356C26.2838 20.7591 26.3949 20.4799 26.4979 20.1926C26.9587 18.9106 27.2649 17.5229 27.4194 16.0104C27.4276 15.9319 27.433 15.8533 27.4384 15.7748L27.4384 15.7746L27.4383 15.774C27.4058 15.5899 27.3733 15.4058 27.3408 15.219C27.3137 15.0781 27.2921 14.9371 27.2704 14.7962L27.2704 14.7961C27.2677 14.7853 27.2677 14.7772 27.2677 14.769C27.2365 14.5591 27.2074 14.3491 27.1782 14.1391C27.1491 13.929 27.1199 13.7188 27.0888 13.5087C27.0752 13.4219 27.0427 13.3325 27.0047 13.2512C26.9126 13.0506 26.7879 13.0262 26.6334 13.1807C26.5772 13.2369 26.5285 13.2987 26.4887 13.3491C26.4806 13.3594 26.4728 13.3693 26.4654 13.3786C26.4419 13.3056 26.4212 13.2302 26.4002 13.154C26.3582 13.0013 26.3155 12.8457 26.2485 12.701C26.0913 12.3676 25.8203 12.1535 25.4571 12.0423C25.2402 11.9773 25.0207 11.961 24.8012 11.9556C21.4919 13.6524 18.3667 12.9368 16.3095 12.0206C15.9544 12.064 15.6291 12.2158 15.3716 12.4869C15.1114 12.7633 15.0328 12.9476 14.9759 13.4843L14.9596 13.4599C14.9366 13.4292 14.9176 13.4012 14.8999 13.3749C14.8926 13.3641 14.8854 13.3536 14.8783 13.3434C14.694 13.0832 14.5097 13.0832 14.3498 13.3542C14.2685 13.4951 14.1899 13.6496 14.1492 13.8041C14.0582 14.1361 13.9738 14.4693 13.8895 14.8021C13.8533 14.9448 13.8172 15.0875 13.7806 15.2298C13.7562 15.3328 13.7318 15.4304 13.7047 15.5307C13.6787 15.6261 13.6473 15.7192 13.6158 15.8124C13.5883 15.894 13.5607 15.9758 13.5366 16.0592C13.5211 16.1059 13.5219 16.158 13.5227 16.2082C13.5229 16.2192 13.5231 16.2301 13.5231 16.2408L13.5228 16.2484C13.5202 16.3053 13.5177 16.3599 13.5177 16.417C13.4852 17.7099 13.7047 18.9974 14.1682 20.2035C14.3823 20.7673 14.6452 21.3527 14.9542 21.949C15.2768 22.5643 15.6481 23.1877 16.0763 23.8111C17.2689 25.5431 18.6946 26.4728 20.1962 26.5053Z" fill="#EA3A3D"/>
<path fill-rule="evenodd" clip-rule="evenodd" d="M67.5529 40.8753L67.5529 40.8748L67.5529 40.8747C67.3961 38.06 67.0788 32.3622 66.6024 31.2537C65.8353 29.4784 64.8433 27.863 63.1168 26.8574C62.3416 26.4074 61.5366 25.9982 60.7126 25.6458C59.7068 25.216 58.694 24.8037 57.6826 24.3921L57.6826 24.3921C57.4375 24.2923 57.1926 24.1926 56.9478 24.0927C58.3627 24.0493 59.7341 23.7132 60.7803 23.3175C60.7428 23.3027 60.7096 23.2889 60.6786 23.276C60.6358 23.2582 60.5974 23.2422 60.5581 23.2281C59.3791 22.7998 58.4087 22.1032 57.7691 21.0028C57.4763 20.4959 57.273 19.9701 57.1375 19.428H57.7121C58.2461 19.4551 58.4792 19.2275 58.6689 18.7694C59.6338 16.4547 59.8805 14.0559 59.5742 11.5891C59.211 8.67 58.2976 5.97852 56.4843 3.69629C56.4328 3.62039 56.3813 3.5445 56.3271 3.46861C55.9097 2.89942 55.4353 2.41427 54.9149 2.00224C54.0313 1.16744 53.0447 0.45996 51.806 0.289197C51.169 0.202462 50.5239 0.145543 49.8762 0.115727L49.8762 0.115725C49.822 0.107594 49.7678 0.099463 49.7136 0.088623H48.0602C48.0521 0.0913331 48.0433 0.0933656 48.0344 0.0953982C48.0256 0.0974312 48.0168 0.0994643 48.0087 0.102175C47.6563 0.113017 47.3067 0.129279 46.9571 0.153674C45.3877 0.264805 44.0759 0.972241 42.9374 1.95887C42.3465 2.40338 41.8315 2.92107 41.4142 3.52821C39.4952 5.86463 38.5465 8.63202 38.1833 11.6431C37.8797 14.1368 38.1264 16.5653 39.1672 18.8747C39.2675 19.0942 39.5467 19.3897 39.7391 19.3843H40.6905C40.1918 21.1949 39.0995 22.5338 37.2238 23.2413C37.192 23.254 37.162 23.2686 37.1146 23.2917L37.1146 23.2917C37.0814 23.3079 37.0396 23.3283 36.9826 23.3551C38.3108 23.7698 39.6118 24.0761 40.8667 24.0978C40.4793 24.2591 40.0917 24.4197 39.7042 24.5803L39.7041 24.5803C38.373 25.1321 37.0428 25.6834 35.7222 26.2607C34.3941 26.8407 33.3289 27.7108 32.4968 28.8275C35.7006 29.4916 40.7151 30.7058 42.4061 36.4303C42.8804 38.0349 43.1081 41.2197 43.2626 45.364C44.1491 45.4159 44.9742 45.4601 45.6945 45.4987L45.6959 45.4988L45.6975 45.4989C46.3303 45.5328 46.882 45.5623 47.3229 45.589C52.9769 45.5402 57.04 45.3721 61.07 44.7785C63.0541 44.4858 65.0191 44.0928 66.9057 43.3826C67.6294 43.1116 67.689 43.0059 67.6321 42.2252L67.6324 42.2253C67.6135 41.9629 67.587 41.4873 67.5529 40.8753ZM42.1463 9.13568C42.2249 8.42557 42.3577 7.75605 42.5257 7.13267C42.6423 6.69899 43.0353 6.3846 43.4852 6.40354H43.4961C45.0519 6.4713 46.6023 6.36831 48.1256 6.02407C48.6324 5.91024 49.1203 5.76387 49.5865 5.5904C49.9063 5.83163 50.237 6.06202 50.5785 6.28698L50.7757 6.41746C51.5952 6.95933 52.4202 7.50485 53.1453 8.15719C53.691 8.64492 54.171 9.20481 54.6518 9.76578C54.8684 10.0185 55.0852 10.2714 55.3083 10.518C55.4975 9.42709 54.8931 8.69518 54.2858 7.95973C54.0406 7.66274 53.7949 7.36518 53.6007 7.04317C54.5494 7.6449 55.3354 8.3469 55.8694 9.21695L56.0727 9.57744C56.3816 10.1927 56.5741 10.8839 56.6202 11.678C56.631 11.8678 56.6337 12.0548 56.631 12.2391C56.6364 12.4559 56.5253 13.1336 56.3871 13.8843C56.1973 14.9143 55.8856 15.9118 55.4628 16.855C54.2567 17.6084 52.7496 18.3511 51.1803 18.6249C50.9526 18.2183 50.5189 17.9419 50.0202 17.9419H49.1366C48.4048 17.9419 47.8084 18.5355 47.8084 19.27C47.8084 20.0018 48.402 20.5982 49.1366 20.5982H50.0202C50.6056 20.5982 51.1044 20.216 51.2778 19.6875C52.4162 19.5004 53.514 19.0966 54.5033 18.6114C53.663 19.8989 52.5897 21.0345 51.3157 21.9398L51.3155 21.94L51.3155 21.94C51.2288 22.0023 51.1422 22.0646 51.0528 22.1242C49.5485 23.1487 48.2746 22.9264 46.6862 22.0889C40.2706 18.7117 42.1462 9.13561 42.1462 9.13561L42.1463 9.13568ZM48.8928 34.8225L55.8018 28.7565L58.6505 28.7455C58.6505 28.7455 57.3739 26.0216 55.6419 24.0402C54.4493 23.9101 53.2892 23.5198 52.3352 22.7338C52.1414 22.8397 51.9492 22.9471 51.7575 23.0541C51.3461 23.2839 50.937 23.5123 50.5191 23.7231C49.4268 24.2733 48.3209 24.2652 47.2368 23.7041C46.7668 23.4617 46.3086 23.197 45.8387 22.9256C45.631 22.8056 45.421 22.6843 45.2066 22.563C44.3203 23.3193 43.3933 23.7502 42.4365 23.9562C41.2249 25.2491 39.6041 27.1871 39.1162 28.7565H41.9703L48.8928 34.8225Z" fill="#EA3A3D"/>
<path d="M48.716 29.4378C46.9488 29.3565 45.3117 28.8713 43.9781 27.6083C43.3466 27.0093 43.2571 26.4211 43.7477 25.9902C44.3359 25.4752 44.813 25.7598 45.3063 26.2178C47.1846 27.9688 50.4074 27.9606 52.3019 26.1961C52.8034 25.7299 53.2886 25.4806 53.8577 26.0118C54.3348 26.4536 54.2318 27.0255 53.5894 27.6273C52.2288 28.912 50.5537 29.3674 48.716 29.4379L48.716 29.4378Z" fill="#EA3A3D"/>
</svg>
