<svg width="82" height="46" viewBox="0 0 82 46" fill="none" xmlns="http://www.w3.org/2000/svg">
<path fill-rule="evenodd" clip-rule="evenodd" d="M4.64861 25.6587C5.02655 25.9311 5.44511 26.1422 5.88885 26.2841C6.76697 26.5613 7.70919 26.5611 8.58722 26.2836C9.03342 26.1423 9.45449 25.9314 9.83487 25.6587C10.2184 25.3826 10.5556 25.0472 10.8337 24.6651C11.3783 23.9125 11.6709 23.0069 11.6695 22.0779C11.6695 21.6216 11.6007 21.1632 11.4603 20.7222C11.1738 19.8193 10.6046 19.0324 9.83662 18.4779C9.45671 18.2042 9.03572 17.9927 8.5894 17.8512C7.70992 17.5725 6.76581 17.5724 5.88623 17.8508C4.98651 18.1389 4.20343 18.709 3.65284 19.4767C3.37997 19.857 3.16906 20.2781 3.02793 20.7243C2.88847 21.1654 2.81962 21.6229 2.81962 22.0779C2.81962 22.5328 2.88804 22.9856 3.02749 23.4227C3.31419 24.3226 3.88251 25.1064 4.64861 25.6587ZM14.2372 0.40155H0.234985L7.25067 16.2963L14.2372 0.40155Z" fill="#F94A24"/>
<path fill-rule="evenodd" clip-rule="evenodd" d="M18.6804 38.7126C18.6799 39.144 18.5949 39.5711 18.4303 39.9699C18.0962 40.7742 17.457 41.4133 16.6527 41.7474C16.254 41.912 15.8268 41.9968 15.3955 41.9971H14.7296C14.2999 41.9971 13.8698 41.9117 13.4724 41.7474C12.6679 41.4135 12.0287 40.7743 11.6948 39.9699C11.5302 39.5711 11.4454 39.144 11.4451 38.7126L11.4394 31.2625L3.86157 31.252V36.8767C3.86157 38.0206 4.08992 39.165 4.52658 40.2217C4.96641 41.2821 5.61035 42.2458 6.4218 43.0578C7.23377 43.8691 8.19724 44.5129 9.25745 44.9526C10.3183 45.3909 11.4547 45.6169 12.6025 45.6181H17.2876C18.4316 45.6181 19.5755 45.3897 20.6327 44.9526C21.693 44.5129 22.6564 43.8691 23.4684 43.0578C24.2799 42.2458 24.9239 41.2822 25.3636 40.2217C25.8017 39.1609 26.0276 38.0244 26.0286 36.8767V0.435092L18.6769 0.445552L18.6804 38.7126ZM74.6878 31.2625L74.6817 37.8772C74.6817 38.3069 74.5959 38.7375 74.4324 39.1345C74.267 39.5328 74.0249 39.8948 73.7199 40.2C73.4151 40.5051 73.053 40.7471 72.6544 40.912C72.2557 41.0767 71.8286 41.1617 71.3972 41.1622H70.7318C70.3004 41.1617 69.8733 41.0767 69.4745 40.912C69.076 40.7471 68.7139 40.5051 68.409 40.2C68.1053 39.8962 67.8608 39.5315 67.6965 39.1345C67.5322 38.7375 67.4464 38.3073 67.4464 37.8772L67.4499 0.445552L60.0986 0.435092L60.1013 44.6803H81.7593L81.7654 31.252L74.6878 31.2625ZM53.9724 24.6337C53.6093 23.7743 53.0817 22.9941 52.4193 22.3372C51.8004 21.7235 51.0575 21.2492 50.2403 20.9461C50.9202 20.6199 51.5444 20.1884 52.0898 19.6676C52.6454 19.1398 53.1357 18.5145 53.466 17.8094C53.7977 17.0981 53.9696 16.3229 53.9698 15.5381L53.9741 7.48521C53.9741 6.55437 53.7885 5.6231 53.4338 4.76417C53.079 3.90524 52.553 3.11909 51.8959 2.46236C51.2396 1.80563 50.4539 1.27921 49.5954 0.923607C48.7369 0.568007 47.8065 0.381927 46.8752 0.381927H32.2555V44.6824H47.4317C48.8357 44.6823 50.2082 44.2659 51.3755 43.4859C52.5429 42.7059 53.4529 41.5973 53.9903 40.3002C54.3462 39.4373 54.5298 38.513 54.5306 37.5796C54.5306 34.1844 54.5219 30.7896 54.5306 27.3949C54.5306 26.4465 54.3408 25.5077 53.9724 24.6337ZM39.3889 4.19852L43.2364 4.18545C43.6678 4.18511 44.0951 4.26993 44.4937 4.43505C44.8923 4.60017 45.2543 4.84233 45.5591 5.14766C45.8638 5.45184 46.1074 5.81615 46.2716 6.21315C46.4359 6.61015 46.52 7.04027 46.5218 7.47039L46.5423 16.3521C46.5425 16.8918 46.3825 17.4193 46.0827 17.868C45.7829 18.3167 45.3566 18.6664 44.858 18.8727C44.5267 19.0087 44.1723 19.0793 43.8143 19.0806L39.3889 19.0975V4.19852ZM46.6129 38.9427C46.4759 39.2737 46.2749 39.5745 46.0216 39.8277C45.7683 40.081 45.4675 40.2818 45.1364 40.4187C44.8053 40.5552 44.4508 40.6258 44.0927 40.6266L39.3893 40.6436V23.078L43.5149 23.0649C43.9463 23.0644 44.3737 23.1491 44.7723 23.3142C45.1709 23.4794 45.5329 23.7216 45.8376 24.0271C46.1413 24.3309 46.3858 24.6956 46.5501 25.0926C46.7144 25.4896 46.7994 25.9197 46.8003 26.3499L46.8207 37.899C46.8203 38.2572 46.7497 38.6117 46.6129 38.9427Z" fill="#F94A24"/>
</svg>
