<svg width="115" height="23" viewBox="0 0 115 23" fill="none" xmlns="http://www.w3.org/2000/svg">
<path fill-rule="evenodd" clip-rule="evenodd" d="M111.362 0.746552C111.809 0.746552 112.247 0.857738 112.674 1.08129C113.095 1.30047 113.441 1.63445 113.67 2.04234C113.908 2.45811 114.027 2.8928 114.027 3.34523C114.027 3.79234 113.91 4.22289 113.675 4.63511C113.448 5.04098 113.106 5.3749 112.69 5.59734C112.285 5.82146 111.828 5.93965 111.362 5.94036C110.897 5.93954 110.44 5.82136 110.035 5.59734C109.618 5.37499 109.276 5.04111 109.047 4.63511C108.817 4.24223 108.695 3.79775 108.694 3.34523C108.694 2.8928 108.814 2.45811 109.052 2.04234C109.282 1.63417 109.63 1.3002 110.052 1.08129C110.453 0.864493 110.904 0.749388 111.362 0.746552ZM111.362 1.17651C110.988 1.17651 110.624 1.27055 110.269 1.45743C109.914 1.64432 109.637 1.91223 109.437 2.2588C109.236 2.60655 109.137 2.9685 109.137 3.34523C109.137 3.71842 109.235 4.07681 109.432 4.41984C109.627 4.76286 109.902 5.03077 110.256 5.22239C110.593 5.40953 110.974 5.50855 111.362 5.50982C111.75 5.50841 112.131 5.4094 112.468 5.22239C112.815 5.03668 113.1 4.75822 113.29 4.41984C113.486 4.07681 113.583 3.71842 113.583 3.34523C113.583 2.96791 113.484 2.60596 113.285 2.2588C113.086 1.91223 112.809 1.64432 112.453 1.45743C112.097 1.27055 111.734 1.17651 111.362 1.17651ZM110.193 4.78001V1.98616H111.177C111.515 1.98616 111.76 2.011 111.91 2.06245C112.061 2.11391 112.18 2.20439 112.271 2.33273C112.359 2.46225 112.405 2.59828 112.405 2.74258C112.405 2.94721 112.33 3.12464 112.181 3.27545C112.03 3.42744 111.832 3.51142 111.585 3.53094C111.687 3.57175 111.769 3.62083 111.829 3.67879C111.944 3.78939 112.085 3.97391 112.253 4.23354L112.603 4.78001H112.037L111.782 4.33941C111.582 3.99402 111.421 3.77697 111.298 3.69003C111.214 3.62557 111.089 3.59363 110.927 3.59363H110.656V4.78001H110.193ZM110.656 3.20802H111.218C111.486 3.20802 111.668 3.16781 111.767 3.09033C111.863 3.01533 111.918 2.9005 111.914 2.78043C111.914 2.70114 111.889 2.62369 111.843 2.55865C111.794 2.49246 111.726 2.44185 111.647 2.41316C111.563 2.38004 111.409 2.36467 111.181 2.36467H110.656V3.20802ZM59.9561 0.57563H60.0448V6.54657H53.8518V0.57563H59.9561ZM33.0034 13.2024L47.3267 14.0676C47.9224 14.0676 48.4093 14.5425 48.4093 15.1221C48.4093 15.7017 47.9224 16.1766 47.3267 16.1766H26.9137V8.40421C27.5409 10.8042 29.6999 12.7671 33.0034 13.2024ZM26.9137 22.1812H47.7827C50.8246 22.1812 53.3788 20.0433 53.9417 17.234C54.4383 20.0338 56.9525 22.1812 59.9567 22.1812H73.2904C76.2691 22.1812 78.7675 20.0687 79.2921 17.3021V22.1812H100.671C104.122 22.1812 106.945 19.4312 106.945 16.0684V15.2031C106.945 11.8415 104.122 9.09143 100.671 9.09143L99.4975 9.04116C92.8462 8.7561 86.2148 8.42964 79.572 8.09549C80.0893 10.6344 82.289 12.7482 85.7334 13.2024L100.214 14.0676C100.811 14.0692 101.295 14.5402 101.298 15.1221C101.295 15.704 100.811 16.175 100.214 16.1766H79.3941V8.08662L73.2018 7.77553V14.6951C73.1991 15.6664 72.3914 16.4531 71.3943 16.4557H61.8529C60.8556 16.4535 60.0477 15.6665 60.0454 14.6951V7.11433L53.8518 6.80325V13.6625C53.1439 11.0679 50.6849 9.1973 47.7827 9.1973L20.5076 7.46031V22.1818H26.9137V22.1812ZM52.8676 6.54952V0.545471H33.0034C30.0709 0.545471 27.5925 2.53085 26.9137 5.19045V0.575042H15.0566L11.016 6.54657H26.7309L52.8676 6.54952ZM17.892 7.31245L8.09805 22.1812H0.436401L10.7689 6.91206L17.892 7.31245ZM106.944 6.54952V0.545471H85.7328C82.32 0.545471 79.5216 3.23582 79.4597 6.54657L106.944 6.54952ZM73.2011 6.54657V0.57563H79.3935V6.54657H73.2011Z" fill="#161D25"/>
</svg>
