<svg width="109" height="26" viewBox="0 0 109 26" fill="none" xmlns="http://www.w3.org/2000/svg">
<path d="M25.8649 24.272H19.8752L18.0428 19.8109H8.06041L6.391 24.272H0.5L9.50005 1.74094H15.9478L25.8649 24.272ZM12.8059 7.12481L9.53312 15.8791H16.4064L12.8059 7.12481ZM47.6226 1.74094H52.4664V24.272H46.9018V10.1984L40.8797 17.2675H40.0291L34.0074 10.1984V24.2717H28.4428V1.74094H33.2866L40.4541 10.099L47.6226 1.74094ZM66.5656 1.74094C74.7148 1.74094 78.9034 6.86087 78.9034 13.0386C78.9034 19.5136 74.8456 24.272 65.9434 24.272H56.7136V1.74094H66.5656ZM62.2778 20.1425H65.9101C71.5068 20.1425 73.1762 16.3094 73.1762 13.0052C73.1762 9.13965 71.1139 5.86994 65.8446 5.86994H62.2776V20.1425H62.2778ZM89.9738 7.08325L82.9576 0H108.5V25.7829L101.484 18.7005V7.08325H89.9738ZM89.9656 8.5026L82.742 15.7937V25.9999H92.852L100.075 18.7088H89.9656V8.5026Z" fill="white"/>
</svg>
