<svg width="114" height="20" viewBox="0 0 114 20" fill="none" xmlns="http://www.w3.org/2000/svg">
<path fill-rule="evenodd" clip-rule="evenodd" d="M102.12 8.4467L105.668 4.80418C105.873 4.53677 105.975 4.34952 105.975 4.18919C105.975 3.92178 105.736 3.8147 104.984 3.8147H104.089V1.51508H113.777V3.8147H112.504C111.034 3.8147 110.761 4.02828 108.71 6.51514L103.098 12.3432V15.8997C103.098 16.8096 103.576 17.1297 104.944 17.1297H107.062V19.3485H93.4929V17.1297H95.6115C96.9781 17.1297 97.457 16.8096 97.457 15.8997V12.3432L90.8473 5.3115C89.7551 4.08211 89.906 3.8147 86.8649 3.8147V1.51508H99.1364V3.8147H98.2626C97.3736 3.8147 96.997 3.97503 96.997 4.29569C96.997 4.56368 97.2702 4.77726 97.4412 4.99084L100.785 8.49585C101.183 8.89317 101.668 8.94466 102.12 8.4467ZM19.7849 1.5145H22.745V7.93119H20.0112C19.7691 6.64855 18.9342 6.14943 18.1731 5.47651C16.7998 4.26292 13.8256 3.25238 11.3242 3.25238C8.09569 3.25238 5.37099 4.21553 5.37099 5.63157C5.37099 9.56257 23.8348 6.43439 23.8348 13.8669C23.8348 17.7435 19.8798 19.9091 12.7772 19.9091C10.3184 19.9091 6.59765 19.1753 4.40232 18.0542C3.71415 17.6721 3.42209 18.4158 3.29309 19.3479H0.258078V12.7171H3.00346C3.60888 14.4017 4.44309 14.7487 5.21036 15.4175C6.54168 16.5942 9.71055 17.4503 12.6166 17.4228C16.9981 17.3813 18.5047 16.4602 18.5047 15.1232C18.5047 13.7867 17.0145 13.4655 12.2132 12.744L8.13646 12.1021C3.53587 11.4333 0.186279 10.4444 0.186279 6.91538C0.186279 3.25238 4.42362 0.952763 11.1234 0.952763C13.9467 0.952763 16.3087 1.31555 18.5759 2.54786C19.2038 2.9405 19.7928 2.98731 19.7849 1.5145ZM77.5548 12.2577L77.6132 5.12601C77.6132 4.19036 77.107 3.8697 75.6606 3.8697H73.9612V1.65084H84.7736V3.8697H83.3644C81.9169 3.8697 81.4106 4.19095 81.4106 5.12601V19.4837L77.1788 19.4515L63.4737 6.97097V16.0348C63.4737 16.9442 63.98 17.2911 65.4263 17.2911H67.3077V19.4837H56.0785V17.2911H57.9392C59.3855 17.2911 59.8917 16.9436 59.8917 16.0348V5.12601C59.8917 4.19036 59.3855 3.8697 57.9392 3.8697H56.0785V1.65084H65.7871L77.5548 12.2577ZM41.3372 0.818176C32.7202 0.818176 27.3262 4.48176 27.3262 10.363C27.3262 16.139 32.6453 19.7745 41.0744 19.7745C50.0273 19.7745 55.2351 16.1923 55.2351 10.0693C55.2358 4.56193 49.616 0.818176 41.3372 0.818176ZM41.1413 17.4491C36.3716 17.4491 33.6298 14.8019 33.6298 10.2296C33.6298 5.76499 36.4908 3.11779 41.3798 3.11779C46.0699 3.11779 48.8116 5.81882 48.8116 10.4175C48.8116 14.909 46.0297 17.4491 41.1413 17.4491Z" fill="#212B36"/>
</svg>
