<svg width="178" height="34" viewBox="0 0 178 34" fill="none" xmlns="http://www.w3.org/2000/svg">
<path d="M20.512 28.5229C20.4411 28.2928 20.3316 28.0763 20.1882 27.8828C19.9887 27.6112 19.7282 27.3902 19.4278 27.2376C19.1273 27.085 18.7953 27.0049 18.4583 27.0039C18.3894 27.0039 18.3206 27.0039 18.2517 27.0142C18.079 27.0321 17.909 27.07 17.7449 27.127C17.2663 27.2961 16.8628 27.6289 16.6057 28.0666C16.3486 28.5043 16.2544 29.0187 16.3397 29.5191C16.4251 30.0196 16.6844 30.4737 17.0721 30.8015C17.4597 31.1292 17.9507 31.3095 18.4583 31.3105C18.5257 31.3105 18.5945 31.3076 18.6648 31.3017C19.2071 31.2496 19.7094 30.994 20.0707 30.5862C20.4319 30.1785 20.6252 29.649 20.6116 29.1045C20.6116 29.0532 20.6116 29.0019 20.6116 28.9492C20.5971 28.8001 20.5677 28.6529 20.5237 28.5097" fill="#1D2227"/>
<path d="M31.9537 26.3374C31.5898 26.0402 31.1386 25.8704 30.6691 25.854H30.5958C30.5268 25.8538 30.4579 25.8573 30.3893 25.8643C30.0473 25.8969 29.7181 26.011 29.4294 26.197C29.1406 26.3831 28.9007 26.6357 28.7296 26.9336C28.5981 27.1594 28.5096 27.4078 28.4689 27.666C28.4397 27.8451 28.4333 28.0272 28.4498 28.208C28.4498 28.2314 28.4572 28.2534 28.4601 28.2768C28.526 28.7958 28.7787 29.2731 29.171 29.6193C29.5633 29.9654 30.0682 30.1568 30.5914 30.1577C30.6604 30.1579 30.7293 30.1545 30.798 30.1474C31.2225 30.1067 31.6253 29.9407 31.9554 29.6706C32.2854 29.4005 32.5277 29.0384 32.6516 28.6303C32.7754 28.2222 32.7752 27.7865 32.6509 27.3785C32.5267 26.9705 32.284 26.6087 31.9537 26.3389" fill="#1D2227"/>
<path d="M12.5843 15.3026L12.2093 11.371C12.121 10.4581 11.6963 9.6106 11.0179 8.99334C10.3394 8.37609 9.45571 8.03317 8.53849 8.03125C8.42277 8.03125 8.30412 8.03125 8.18547 8.04736L4.6699 8.38281C4.23721 8.42682 3.83783 8.63494 3.55387 8.96437C3.2699 9.2938 3.12295 9.7195 3.14321 10.154C3.16346 10.5884 3.3494 10.9986 3.66279 11.3002C3.97617 11.6017 4.39319 11.7718 4.8281 11.7753C4.8823 11.7753 4.9365 11.7753 4.99216 11.7753L8.50773 11.4399H8.53556C8.60822 11.4395 8.67842 11.4661 8.73256 11.5145C8.7867 11.563 8.8209 11.6298 8.82853 11.7021L9.20352 15.6351C9.27052 16.3491 9.39295 17.0568 9.56973 17.7518C9.77974 17.5373 10.0401 17.3786 10.327 17.2904L12.7748 16.5345C12.6871 16.128 12.6235 15.7166 12.5843 15.3026Z" fill="#1D2227"/>
<path d="M36.7965 12.997L36.6031 10.958C36.5627 10.5375 36.3673 10.147 36.0548 9.86269C35.7423 9.57837 35.3352 9.42053 34.9127 9.41992C34.8585 9.41992 34.8043 9.41992 34.7487 9.41992C34.5263 9.44103 34.3103 9.50577 34.113 9.61042C33.9158 9.71508 33.741 9.85759 33.5989 10.0298C33.4567 10.2021 33.3499 10.4006 33.2845 10.6142C33.2191 10.8277 33.1965 11.0521 33.2179 11.2744L33.4186 13.3193C33.4464 13.6122 33.4582 13.9052 33.4611 14.1879C33.4911 16.8111 32.5349 19.3499 30.7818 21.3015C29.0288 23.2531 26.6068 24.4752 23.9954 24.7258C23.6595 24.7561 23.3265 24.7717 22.9964 24.7727C21.7086 24.7732 20.4319 24.5337 19.2318 24.0667C18.1181 23.6322 17.0863 23.0116 16.1806 22.2313L15.8876 23.0574C15.7667 23.4041 15.5423 23.7054 15.2449 23.9206C14.9474 24.1359 14.5911 24.2548 14.224 24.2614C13.8569 24.2679 13.4966 24.1618 13.1916 23.9572C12.8867 23.7527 12.6518 23.4596 12.5185 23.1175L11.9077 21.5501L10.8735 21.0272C12.1755 23.3645 14.1219 25.2783 16.4809 26.5408C16.9648 26.1749 17.541 25.9508 18.1449 25.8933C18.2489 25.8831 18.3544 25.8787 18.4584 25.8787C19.1441 25.8765 19.813 26.0901 20.3706 26.4891C20.9282 26.8882 21.3461 27.4525 21.5653 28.1023C22.0378 28.1515 22.5125 28.1765 22.9876 28.177C23.4261 28.177 23.868 28.156 24.3133 28.114C25.3463 28.0153 26.3649 27.8006 27.3498 27.4738C27.4673 26.758 27.8184 26.1012 28.3483 25.606C28.8783 25.1107 29.5574 24.8048 30.2795 24.7361C30.3835 24.7273 30.489 24.7214 30.5944 24.7214C31.0262 24.7219 31.4537 24.807 31.8527 24.9719C33.5896 23.5304 34.948 21.6863 35.8096 19.6C36.6713 17.5137 37.01 15.2485 36.7965 13.0014" fill="#1D2227"/>
<path d="M32.2468 13.0499C31.5998 12.6215 30.8845 12.3064 30.1316 12.1183C31.9319 10.9933 32.7551 9.30585 32.572 7.38547C32.279 4.25514 29.3977 2.23369 23.6981 2.77714L16.374 3.47586C15.8854 3.52179 15.4107 3.66353 14.9769 3.89299C14.5432 4.12245 14.1589 4.43513 13.846 4.81317C13.5331 5.1912 13.2978 5.62719 13.1535 6.0962C13.0092 6.56521 12.9587 7.05807 13.0049 7.5466L13.79 15.8141C13.8105 15.943 13.834 16.0704 13.8603 16.1978L15.4087 15.7203C15.7701 15.6081 16.1577 15.6132 16.5161 15.7347C16.8745 15.8563 17.1852 16.0881 17.4037 16.3971C17.5706 16.6299 17.6787 16.8996 17.7188 17.1832C17.7588 17.4669 17.7296 17.756 17.6337 18.0259L16.5732 21.0698L16.7373 21.2251C18.448 22.7773 20.6748 23.6377 22.9847 23.6391C23.2777 23.6391 23.5809 23.6259 23.8768 23.5967C26.3382 23.3589 28.6048 22.1547 30.1796 20.2482C31.7545 18.3416 32.5089 15.8884 32.2775 13.4264L32.2468 13.0499ZM19.9672 8.0505L23.2162 7.74142C24.7821 7.59494 25.5423 8.05636 25.6375 9.05976C25.7327 10.0632 25.075 10.6711 23.5091 10.8175L20.2602 11.1266L19.9672 8.0505ZM25.2039 18.5796L21.0087 18.9795L20.6996 15.7291L24.8934 15.3307C26.43 15.1842 27.2503 15.672 27.3528 16.7354C27.4554 17.7989 26.7391 18.4332 25.2039 18.5796Z" fill="#EA3A3D"/>
<path d="M15.9474 16.6636C15.8688 16.6637 15.7908 16.676 15.716 16.7002L10.6287 18.2705C10.4824 18.3161 10.353 18.4042 10.2571 18.5237C10.1612 18.6432 10.103 18.7886 10.0901 18.9412C10.0772 19.0939 10.1102 19.247 10.1847 19.3809C10.2592 19.5147 10.372 19.6233 10.5085 19.6928L12.4582 20.6816C12.6278 20.7669 12.7598 20.912 12.8288 21.0888L13.4733 22.7484C13.5305 22.8953 13.6313 23.0211 13.7622 23.1089C13.8932 23.1967 14.0478 23.2422 14.2054 23.2394C14.363 23.2365 14.5159 23.1854 14.6435 23.0929C14.7712 23.0004 14.8673 22.8709 14.9191 22.7221L16.6696 17.6904C16.7098 17.5746 16.7219 17.451 16.7049 17.3296C16.6878 17.2082 16.6421 17.0927 16.5715 16.9925C16.501 16.8923 16.4076 16.8103 16.299 16.7534C16.1905 16.6964 16.07 16.6662 15.9474 16.665" fill="#EA3A3D"/>
<path d="M67.688 16.36C68.664 16.568 69.448 17.056 70.04 17.824C70.632 18.576 70.928 19.44 70.928 20.416C70.928 21.824 70.432 22.944 69.44 23.776C68.464 24.592 67.096 25 65.336 25H57.488V8.152H65.072C66.784 8.152 68.12 8.544 69.08 9.328C70.056 10.112 70.544 11.176 70.544 12.52C70.544 13.512 70.28 14.336 69.752 14.992C69.24 15.648 68.552 16.104 67.688 16.36ZM61.592 14.968H64.28C64.952 14.968 65.464 14.824 65.816 14.536C66.184 14.232 66.368 13.792 66.368 13.216C66.368 12.64 66.184 12.2 65.816 11.896C65.464 11.592 64.952 11.44 64.28 11.44H61.592V14.968ZM64.616 21.688C65.304 21.688 65.832 21.536 66.2 21.232C66.584 20.912 66.776 20.456 66.776 19.864C66.776 19.272 66.576 18.808 66.176 18.472C65.792 18.136 65.256 17.968 64.568 17.968H61.592V21.688H64.616ZM85.9323 18.088C85.9323 18.472 85.9083 18.872 85.8603 19.288H76.5723C76.6363 20.12 76.9003 20.76 77.3643 21.208C77.8443 21.64 78.4283 21.856 79.1163 21.856C80.1403 21.856 80.8523 21.424 81.2523 20.56H85.6203C85.3963 21.44 84.9883 22.232 84.3963 22.936C83.8203 23.64 83.0923 24.192 82.2123 24.592C81.3323 24.992 80.3483 25.192 79.2603 25.192C77.9483 25.192 76.7803 24.912 75.7563 24.352C74.7323 23.792 73.9323 22.992 73.3563 21.952C72.7803 20.912 72.4923 19.696 72.4923 18.304C72.4923 16.912 72.7723 15.696 73.3323 14.656C73.9083 13.616 74.7083 12.816 75.7323 12.256C76.7563 11.696 77.9323 11.416 79.2603 11.416C80.5563 11.416 81.7083 11.688 82.7163 12.232C83.7243 12.776 84.5083 13.552 85.0683 14.56C85.6443 15.568 85.9323 16.744 85.9323 18.088ZM81.7323 17.008C81.7323 16.304 81.4923 15.744 81.0123 15.328C80.5323 14.912 79.9323 14.704 79.2123 14.704C78.5243 14.704 77.9403 14.904 77.4603 15.304C76.9963 15.704 76.7083 16.272 76.5963 17.008H81.7323ZM92.2014 13.504C92.5854 12.88 93.1374 12.376 93.8574 11.992C94.5774 11.608 95.4014 11.416 96.3294 11.416C97.4334 11.416 98.4334 11.696 99.3294 12.256C100.225 12.816 100.929 13.616 101.441 14.656C101.969 15.696 102.233 16.904 102.233 18.28C102.233 19.656 101.969 20.872 101.441 21.928C100.929 22.968 100.225 23.776 99.3294 24.352C98.4334 24.912 97.4334 25.192 96.3294 25.192C95.3854 25.192 94.5614 25.008 93.8574 24.64C93.1534 24.256 92.6014 23.752 92.2014 23.128V25H88.0974V7.24H92.2014V13.504ZM98.0574 18.28C98.0574 17.256 97.7694 16.456 97.1934 15.88C96.6334 15.288 95.9374 14.992 95.1054 14.992C94.2894 14.992 93.5934 15.288 93.0174 15.88C92.4574 16.472 92.1774 17.28 92.1774 18.304C92.1774 19.328 92.4574 20.136 93.0174 20.728C93.5934 21.32 94.2894 21.616 95.1054 21.616C95.9214 21.616 96.6174 21.32 97.1934 20.728C97.7694 20.12 98.0574 19.304 98.0574 18.28ZM110.482 25.192C109.17 25.192 107.986 24.912 106.93 24.352C105.89 23.792 105.066 22.992 104.458 21.952C103.866 20.912 103.57 19.696 103.57 18.304C103.57 16.928 103.874 15.72 104.482 14.68C105.09 13.624 105.922 12.816 106.978 12.256C108.034 11.696 109.218 11.416 110.53 11.416C111.842 11.416 113.026 11.696 114.082 12.256C115.138 12.816 115.97 13.624 116.578 14.68C117.186 15.72 117.49 16.928 117.49 18.304C117.49 19.68 117.178 20.896 116.554 21.952C115.946 22.992 115.106 23.792 114.034 24.352C112.978 24.912 111.794 25.192 110.482 25.192ZM110.482 21.64C111.266 21.64 111.93 21.352 112.474 20.776C113.034 20.2 113.314 19.376 113.314 18.304C113.314 17.232 113.042 16.408 112.498 15.832C111.97 15.256 111.314 14.968 110.53 14.968C109.73 14.968 109.066 15.256 108.538 15.832C108.01 16.392 107.746 17.216 107.746 18.304C107.746 19.376 108.002 20.2 108.514 20.776C109.042 21.352 109.698 21.64 110.482 21.64Z" fill="#EA3A3D"/>
<path d="M131.788 8.152V11.44H127.324V25H123.22V11.44H118.756V8.152H131.788ZM146.471 18.088C146.471 18.472 146.447 18.872 146.399 19.288H137.111C137.175 20.12 137.439 20.76 137.903 21.208C138.383 21.64 138.967 21.856 139.655 21.856C140.679 21.856 141.391 21.424 141.791 20.56H146.159C145.935 21.44 145.527 22.232 144.935 22.936C144.359 23.64 143.631 24.192 142.751 24.592C141.871 24.992 140.887 25.192 139.799 25.192C138.487 25.192 137.319 24.912 136.295 24.352C135.271 23.792 134.471 22.992 133.895 21.952C133.319 20.912 133.031 19.696 133.031 18.304C133.031 16.912 133.311 15.696 133.871 14.656C134.447 13.616 135.247 12.816 136.271 12.256C137.295 11.696 138.471 11.416 139.799 11.416C141.095 11.416 142.247 11.688 143.255 12.232C144.263 12.776 145.047 13.552 145.607 14.56C146.183 15.568 146.471 16.744 146.471 18.088ZM142.271 17.008C142.271 16.304 142.031 15.744 141.551 15.328C141.071 14.912 140.471 14.704 139.751 14.704C139.063 14.704 138.479 14.904 137.999 15.304C137.535 15.704 137.247 16.272 137.135 17.008H142.271ZM147.82 18.304C147.82 16.912 148.1 15.696 148.66 14.656C149.236 13.616 150.028 12.816 151.036 12.256C152.06 11.696 153.228 11.416 154.54 11.416C156.22 11.416 157.62 11.856 158.74 12.736C159.876 13.616 160.62 14.856 160.972 16.456H156.604C156.236 15.432 155.524 14.92 154.468 14.92C153.716 14.92 153.116 15.216 152.668 15.808C152.22 16.384 151.996 17.216 151.996 18.304C151.996 19.392 152.22 20.232 152.668 20.824C153.116 21.4 153.716 21.688 154.468 21.688C155.524 21.688 156.236 21.176 156.604 20.152H160.972C160.62 21.72 159.876 22.952 158.74 23.848C157.604 24.744 156.204 25.192 154.54 25.192C153.228 25.192 152.06 24.912 151.036 24.352C150.028 23.792 149.236 22.992 148.66 21.952C148.1 20.912 147.82 19.696 147.82 18.304ZM171.4 11.464C172.936 11.464 174.168 11.976 175.096 13C176.024 14.008 176.488 15.4 176.488 17.176V25H172.408V17.728C172.408 16.832 172.176 16.136 171.712 15.64C171.248 15.144 170.624 14.896 169.84 14.896C169.056 14.896 168.432 15.144 167.968 15.64C167.504 16.136 167.272 16.832 167.272 17.728V25H163.168V7.24H167.272V13.408C167.688 12.816 168.256 12.344 168.976 11.992C169.696 11.64 170.504 11.464 171.4 11.464Z" fill="#1D2227"/>
</svg>
