<svg width="43" height="27" viewBox="0 0 43 27" fill="none" xmlns="http://www.w3.org/2000/svg">
<path fill-rule="evenodd" clip-rule="evenodd" d="M30.6734 7.73956V25.8902L30.6736 25.8893C30.6736 26.0493 30.5358 26.1794 30.3671 26.1794H24.5675C24.3994 26.1794 24.261 26.0476 24.261 25.8875V9.81587C24.261 7.55158 22.3332 5.71688 19.9565 5.71688H7.29857C7.1294 5.71769 6.99245 5.84804 6.99149 6.00915V25.8884C6.99053 26.0492 6.85369 26.1793 6.6848 26.1799H0.797944C0.716812 26.1803 0.638839 26.15 0.581178 26.0956C0.523516 26.0413 0.490891 25.9673 0.490479 25.8901V0.562385C0.490479 0.402241 0.627844 0.271973 0.797944 0.271973H22.8342C27.164 0.271973 30.6734 3.61552 30.6734 7.73956ZM18.7868 25.8889V25.8884V10.6541C18.7868 10.4943 18.6487 10.3625 18.4807 10.3625H12.5954C12.4271 10.3625 12.2884 10.4947 12.2882 10.655V25.8884C12.2882 25.966 12.3207 26.0404 12.3784 26.0951C12.4361 26.1499 12.5144 26.1805 12.5958 26.1803H18.4813C18.6491 26.1803 18.7868 26.0485 18.7868 25.8889ZM42.0116 26.1801C42.1817 26.1801 42.3191 26.0498 42.3191 25.8884V0.564984V0.564799C42.3191 0.404283 42.1805 0.27216 42.012 0.27216H36.1281C35.9582 0.27216 35.8192 0.402984 35.8192 0.564984V25.8884C35.8201 26.0501 35.9583 26.1806 36.1281 26.1801H42.0116Z" fill="white"/>
</svg>
