<svg width="123" height="18" viewBox="0 0 123 18" fill="none" xmlns="http://www.w3.org/2000/svg">
<path fill-rule="evenodd" clip-rule="evenodd" d="M66.9592 8.30508C66.9592 8.30508 65.7718 7.6058 65.0376 7.33523C65.0376 7.33523 62.7648 6.33202 62.3139 5.85472C62.3139 5.85472 61.4281 5.05969 61.9467 4.13627C61.9467 4.13627 62.1638 3.53202 63.0999 3.53202C63.0999 3.53202 64.3185 3.59586 64.3185 4.54974V5.89534H68.6859L68.6783 3.91358C68.6783 3.91358 69.0142 0.66819 63.534 0.525288C63.534 0.525288 59.2238 0.255444 57.9876 2.46643C57.9876 2.46643 57.5025 2.95969 57.5025 4.67741V5.91855C57.5025 5.91855 57.453 7.35047 58.2207 8.27316C58.2207 8.27316 58.6549 8.87814 59.7242 9.54549C59.7242 9.54549 61.8957 10.659 63.1989 11.2966C63.1989 11.2966 64.5143 12.0118 64.3414 13.1499C64.3414 13.1499 64.234 14.3186 62.9636 14.2707C62.9636 14.2707 61.802 14.2213 61.802 13.0752V11.7304H57.1483V13.6838C57.1483 13.6838 57.018 17.4196 62.9978 17.4196C62.9978 17.4196 68.7118 17.5298 68.9784 13.5859V11.9951C68.9776 11.9951 69.1802 9.57814 66.9592 8.30508ZM44.6 0.990261L43.1376 9.71814H42.7956L41.3987 1.0686H34.1036L33.738 16.8741H38.0573L38.1091 4.96539H38.4488L40.7384 16.8719H45.2824L47.5438 4.96974H47.8446L47.949 16.8741H52.2912L51.8235 0.990261H44.6ZM18.8879 1.05627L16.0142 16.856H20.6641L22.3664 4.6056H22.7488L24.4503 16.856H29.0995L26.2265 1.05627H18.8879ZM116.458 8.08747V10.4181H117.651V12.92C117.651 14.143 116.553 14.1655 116.553 14.1655C115.219 14.1655 115.269 13.0034 115.269 13.0034V4.34954C115.269 3.45804 116.453 3.41016 116.453 3.41016C117.59 3.41016 117.597 4.47358 117.597 4.47358V5.78944H121.975C122.119 3.22083 121.581 2.59918 121.581 2.59918C120.495 0.276481 116.386 0.403424 116.386 0.403424C110.073 0.403424 110.774 5.0169 110.774 5.0169V13.3843C110.909 17.7112 117.13 17.2716 117.236 17.268C120.003 16.9764 120.838 16.1386 120.838 16.1386C121.607 15.5945 121.805 14.8408 121.805 14.8408C122.026 14.402 122.08 13.0034 122.08 13.0034V8.08747H116.458ZM101.946 10.659H101.756L97.3128 0.994615H91.9972V16.8755H96.3234L96.0645 7.21265H96.2579L100.861 16.8755H106.015V0.993164H101.634L101.946 10.659ZM81.4368 12.9186C81.4368 12.9186 81.4993 14.2221 80.2303 14.2221C80.2303 14.2221 78.8959 14.2903 78.8959 12.9512L78.8822 1.00404H74.1371V12.8562C74.1371 12.8562 73.6504 17.342 80.2974 17.342C80.2974 17.342 86.0738 17.4073 86.0738 13.0622V1.00477H81.4368V12.9186ZM9.8417 8.30508C9.8417 8.30508 8.6558 7.60581 7.9208 7.33596C7.9208 7.33596 5.64953 6.33348 5.19863 5.85544C5.19863 5.85544 4.31282 5.05897 4.83227 4.13772C4.83227 4.13772 5.04858 3.53347 5.9839 3.53347C5.9839 3.53347 7.20332 3.59658 7.20332 4.55047V5.89607H11.5722L11.5638 3.91358C11.5638 3.91358 11.8974 0.668189 6.41957 0.526013C6.41957 0.526013 6.00675 0.500625 5.40123 0.52964C5.40123 0.52964 2.08269 0.699381 0.896023 2.43306C0.889168 2.44612 0.879266 2.45555 0.872411 2.46715C0.872411 2.46715 0.387997 2.95969 0.387997 4.67814V5.91928C0.387997 5.91928 0.337727 7.3512 1.10624 8.27389C1.10624 8.27389 1.54039 8.87886 2.60975 9.54622C2.60975 9.54622 4.78048 10.6597 6.08368 11.2973C6.08368 11.2973 7.40058 12.0111 7.22617 13.1507C7.22617 13.1507 7.11877 14.3193 5.84909 14.2714C5.84909 14.2714 4.68756 14.2221 4.68756 13.076V11.7304H0.0330639V13.6853C0.0330639 13.6853 -0.0971799 17.421 5.8826 17.421C5.8826 17.421 11.595 17.5313 11.8639 13.5874V11.998C11.8639 11.9966 12.0635 9.57814 9.8417 8.30508Z" fill="white"/>
</svg>
