<svg width="34" height="40" viewBox="0 0 34 40" fill="none" xmlns="http://www.w3.org/2000/svg">
<path fill-rule="evenodd" clip-rule="evenodd" d="M18.4477 4.23028C21.0807 0.925201 24.7411 0.909088 24.7411 0.909088C24.7411 0.909088 25.2856 4.01642 22.6699 7.00978C19.877 10.206 16.7024 9.68301 16.7024 9.68301C16.7024 9.68301 16.1063 7.16928 18.4477 4.23028ZM17.0373 11.8597C18.3918 11.8597 20.9058 10.0864 24.178 10.0864C29.8106 10.0864 32.0265 13.9035 32.0265 13.9035C32.0265 13.9035 27.6927 16.0138 27.6927 21.1343C27.6927 26.9107 33.0914 28.9014 33.0914 28.9014C33.0914 28.9014 29.3175 39.0178 24.22 39.0178C21.8787 39.0178 20.0585 37.5152 17.5916 37.5152C15.0776 37.5152 12.5829 39.0739 10.9581 39.0739C6.30327 39.074 0.422607 29.4775 0.422607 21.7635C0.422607 14.174 5.4002 10.1927 10.069 10.1927C13.1041 10.1927 15.4594 11.8597 17.0373 11.8597Z" fill="#919EAB"/>
</svg>
