<svg width="44" height="27" viewBox="0 0 44 27" fill="none" xmlns="http://www.w3.org/2000/svg">
<rect x="0.265625" width="42.7543" height="26.5091" rx="1.215" fill="#2E77BC"/>
<path fill-rule="evenodd" clip-rule="evenodd" d="M12.2714 10.811L11.8505 9.78282L11.4318 10.811H12.2714ZM21.5464 10.4015C21.4619 10.453 21.3619 10.4547 21.2422 10.4547H20.4949V9.88178H21.2523C21.3594 9.88178 21.4714 9.88668 21.544 9.9283C21.6238 9.96595 21.6732 10.0459 21.6732 10.1563C21.6732 10.269 21.6261 10.3598 21.5464 10.4015ZM26.8772 10.811L26.4515 9.78282L26.0283 10.811H26.8772ZM16.9403 11.9239H16.3097L16.3073 9.90387L15.4153 11.9239H14.8752L13.981 9.90208V11.9239H12.7299L12.4936 11.3486H11.2128L10.9741 11.9239H10.3059L11.4075 9.34468H12.3213L13.3676 11.7867V9.34468H14.3715L15.1765 11.0944L15.916 9.34468H16.9402V11.9239H16.9403ZM19.4535 11.9239H17.3986V9.34468H19.4535V9.88178H18.0138V10.3467H19.419V10.8754H18.0138V11.3905H19.4535V11.9239ZM22.3507 10.0393C22.3507 10.4506 22.077 10.663 21.9173 10.7268C22.0519 10.7781 22.1669 10.8688 22.2217 10.944C22.3084 11.0723 22.3234 11.1869 22.3234 11.4172V11.9239H21.703L21.7007 11.5986C21.7007 11.4434 21.7155 11.2203 21.6036 11.0962C21.5138 11.0055 21.3767 10.9858 21.1553 10.9858H20.495V11.9239H19.8798V9.34468H21.2947C21.609 9.34468 21.8407 9.35308 22.0395 9.46822C22.2341 9.58351 22.3507 9.75163 22.3507 10.0393ZM22.7076 9.34468H23.3352V11.9239H22.7076V9.34468ZM30.6166 11.9239H29.745L28.579 9.98805V11.9239H27.3263L27.0869 11.3486H25.8091L25.5769 11.9239H24.857C24.5581 11.9239 24.1796 11.8576 23.9652 11.6386C23.749 11.4196 23.6364 11.1231 23.6364 10.654C23.6364 10.2715 23.7037 9.92177 23.9681 9.64544C24.1669 9.43959 24.4783 9.34468 24.9022 9.34468H25.4978V9.89734H24.9147C24.6903 9.89734 24.5636 9.93079 24.4415 10.0502C24.3365 10.1587 24.2646 10.364 24.2646 10.6344C24.2646 10.9107 24.3194 11.11 24.4338 11.2401C24.5285 11.3422 24.7005 11.3731 24.8624 11.3731H25.1386L26.0057 9.34476H26.9273L27.9688 11.7843V9.34476H28.9053L29.9865 11.1411V9.34476H30.6166V11.9239ZM10.2988 12.4306H11.3498L11.5867 11.8576H12.1173L12.3536 12.4306H14.4216V11.9925L14.6062 12.4324H15.6797L15.8643 11.986V12.4306H21.0034L21.0009 11.4901H21.1004C21.17 11.4925 21.1904 11.499 21.1904 11.6143V12.4306H23.8484V12.2116C24.0627 12.3267 24.3962 12.4306 24.835 12.4306H25.9531L26.1924 11.8576H26.723L26.9571 12.4306H29.1118V11.8863L29.4382 12.4306H31.165V8.83325H29.456V9.25809L29.2167 8.83325H27.4632V9.25809L27.2434 8.83325H24.8749C24.4783 8.83325 24.1299 8.88872 23.8484 9.0433V8.83325H22.2137V9.0433C22.0347 8.88397 21.7905 8.83325 21.519 8.83325H15.5475L15.1467 9.76236L14.7354 8.83325H12.8544V9.25809L12.6477 8.83325H11.0436L10.2987 10.5436V12.4306H10.2988Z" fill="white"/>
<path fill-rule="evenodd" clip-rule="evenodd" d="M32.0065 14.267H30.8853C30.7735 14.267 30.6991 14.2711 30.6364 14.3135C30.5715 14.3554 30.5465 14.4173 30.5465 14.4992C30.5465 14.5966 30.6013 14.6627 30.681 14.6914C30.7459 14.714 30.8157 14.7206 30.9181 14.7206L31.2515 14.7295C31.5879 14.7378 31.8125 14.7958 31.9493 14.9372C31.9743 14.9568 31.9892 14.979 32.0065 15.001V14.267ZM32.0065 15.9679C31.8571 16.1868 31.5659 16.2978 31.1717 16.2978H29.9838V15.7447H31.1668C31.2842 15.7447 31.3664 15.7292 31.4158 15.6807C31.4586 15.6409 31.4886 15.5828 31.4886 15.5124C31.4886 15.4373 31.4586 15.3777 31.4134 15.3418C31.3688 15.3025 31.3038 15.2846 31.1967 15.2846C30.6192 15.265 29.8986 15.3025 29.8986 14.4861C29.8986 14.1119 30.1356 13.718 30.7812 13.718H32.0064V13.2047H30.868C30.5245 13.2047 30.2748 13.2873 30.0982 13.4154V13.2047H28.4143C28.1451 13.2047 27.8289 13.2716 27.6795 13.4154V13.2047H24.6725V13.4154C24.4332 13.2424 24.0295 13.2047 23.8432 13.2047H21.8598V13.4154C21.6705 13.2316 21.2495 13.2047 20.9928 13.2047H18.7731L18.2651 13.7557L17.7894 13.2047H14.4736V16.8045H17.727L18.2504 16.2449L18.7435 16.8045L20.7488 16.8063V15.9595H20.946C21.2121 15.9636 21.5259 15.9528 21.8028 15.833V16.8045H23.4568V15.8662H23.5367C23.6385 15.8662 23.6486 15.8705 23.6486 15.9724V16.8043H28.6734C28.9925 16.8043 29.3259 16.7225 29.5105 16.574V16.8043H31.1044C31.436 16.8043 31.76 16.7577 32.0065 16.6384V15.9679ZM29.5527 14.9372C29.6725 15.0614 29.7368 15.2182 29.7368 15.4837C29.7368 16.0387 29.3908 16.2978 28.7704 16.2978H27.5724V15.7447H28.7656C28.8823 15.7447 28.965 15.7292 29.0168 15.6807C29.0591 15.6409 29.0896 15.5828 29.0896 15.5124C29.0896 15.4373 29.0567 15.3776 29.0145 15.3418C28.9674 15.3025 28.9025 15.2846 28.7955 15.2846C28.2201 15.265 27.4997 15.3025 27.4997 14.4861C27.4997 14.1119 27.7344 13.718 28.3792 13.718H29.6124V14.2672H28.484C28.3721 14.2672 28.2995 14.2713 28.2375 14.3137C28.1702 14.3555 28.1452 14.4175 28.1452 14.4993C28.1452 14.5967 28.2024 14.6628 28.2798 14.6915C28.3447 14.7142 28.4143 14.7207 28.5192 14.7207L28.8503 14.7297C29.1842 14.7378 29.4134 14.7958 29.5527 14.9372ZM24.0023 14.7778C23.9199 14.8267 23.8183 14.831 23.6985 14.831H22.9513V14.2516H23.7086C23.8183 14.2516 23.9279 14.2539 24.0023 14.2981C24.082 14.3399 24.1296 14.4199 24.1296 14.5302C24.1296 14.6407 24.082 14.7295 24.0023 14.7778ZM24.3738 15.0989C24.5106 15.1496 24.6226 15.2403 24.675 15.3155C24.762 15.4414 24.7745 15.559 24.7769 15.7864V16.2978H24.1595V15.975C24.1595 15.8199 24.1743 15.59 24.06 15.4701C23.9702 15.3776 23.8332 15.3555 23.6087 15.3555H22.9514V16.2978H22.3333V13.7179H23.7534C24.0648 13.7179 24.2916 13.7317 24.4936 13.8398C24.6877 13.9572 24.8098 14.1183 24.8098 14.4126C24.8097 14.8243 24.5357 15.0345 24.3738 15.0989ZM25.1508 13.7179H27.2038V14.2515H25.7634V14.7206H27.1686V15.2468H25.7634V15.7601L27.2038 15.7625V16.2978H25.1508V13.7179ZM21.0007 14.9085H20.2057V14.2516H21.0078C21.2299 14.2516 21.384 14.3423 21.384 14.5678C21.384 14.791 21.237 14.9085 21.0007 14.9085ZM19.5931 16.0632L18.6487 15.0123L19.5931 13.9949V16.0632ZM17.1542 15.7601H15.6418V15.2468H16.9922V14.7206H15.6418V14.2515H17.184L17.8568 15.0033L17.1542 15.7601ZM22.0445 14.5678C22.0445 15.2846 21.511 15.4325 20.9732 15.4325H20.2057V16.2978H19.0101L18.2527 15.4438L17.4656 16.2978H15.029V13.7179H17.503L18.2598 14.5636L19.0422 13.7179H21.0078C21.496 13.7179 22.0445 13.8534 22.0445 14.5678Z" fill="white"/>
</svg>
