<svg width="44" height="27" viewBox="0 0 44 27" fill="none" xmlns="http://www.w3.org/2000/svg">
<rect x="0.53125" width="42.7543" height="26.7523" rx="1.215" fill="#184977"/>
<path fill-rule="evenodd" clip-rule="evenodd" d="M32.0118 13.8396H32.0321C32.0546 13.8396 32.0652 13.822 32.0652 13.7936C32.0652 13.7644 32.0486 13.7544 32.0309 13.7544H32.0118V13.8396ZM31.9525 13.9354V13.9262C31.9738 13.9234 31.978 13.9243 31.978 13.9101V13.7758C31.978 13.7567 31.976 13.7504 31.9531 13.7514V13.7421H32.0428C32.0732 13.7421 32.1017 13.7576 32.1017 13.7902C32.1017 13.8176 32.0846 13.8373 32.0604 13.8451L32.089 13.887C32.1026 13.9055 32.1176 13.9234 32.1276 13.9295V13.9354H32.0936C32.0774 13.9354 32.0632 13.8996 32.0309 13.8519H32.0118V13.9119C32.0118 13.9243 32.0157 13.9234 32.0368 13.9262V13.9354H31.9525ZM32.0394 13.9869C32.1176 13.9869 32.1778 13.9178 32.1778 13.8396C32.1778 13.7615 32.1188 13.6916 32.0394 13.6916C31.9606 13.6916 31.9008 13.7615 31.9008 13.8396C31.9008 13.9178 31.9606 13.9869 32.0394 13.9869ZM32.0394 13.6577C32.1394 13.6577 32.2143 13.7377 32.2143 13.8396C32.2143 13.9416 32.1394 14.0205 32.0394 14.0205C31.9398 14.0205 31.8646 13.9416 31.8646 13.8396C31.8646 13.7377 31.9398 13.6577 32.0394 13.6577Z" fill="white"/>
<path fill-rule="evenodd" clip-rule="evenodd" d="M31.4781 14.762C31.4781 14.8323 31.5248 14.8534 31.5784 14.8606C31.6474 14.8659 31.7226 14.8659 31.8003 14.857C31.8704 14.8486 31.9312 14.8061 31.9611 14.762C31.9879 14.7232 32.0027 14.6743 32.0134 14.6353H32.062C32.0434 14.7357 32.0199 14.8342 31.9996 14.9342C31.852 14.9342 31.704 14.9274 31.5569 14.9274C31.4089 14.9274 31.2612 14.9342 31.1134 14.9342V14.8813H31.1365C31.1975 14.8813 31.2629 14.8728 31.2629 14.7635V13.8606C31.2629 13.7689 31.1975 13.7605 31.1365 13.7605H31.1134V13.7073C31.2023 13.7073 31.2899 13.7143 31.3786 13.7143C31.4643 13.7143 31.5482 13.7073 31.634 13.7073V13.7605H31.5917C31.5282 13.7605 31.4781 13.7623 31.4781 13.8554V14.762Z" fill="white"/>
<path fill-rule="evenodd" clip-rule="evenodd" d="M30.4052 13.9043H30.402L30.2457 14.4017H30.5601L30.4052 13.9043ZM30.16 14.683C30.1438 14.7425 30.1234 14.7886 30.1234 14.8197C30.1234 14.8728 30.1944 14.8812 30.2491 14.8812H30.2678V14.9341C30.2006 14.9306 30.1319 14.9274 30.0647 14.9274C30.0036 14.9274 29.9436 14.9306 29.8837 14.9341V14.8812H29.8929C29.9587 14.8812 30.0144 14.8408 30.0392 14.7671L30.3082 13.9609C30.3299 13.8955 30.3601 13.8078 30.37 13.7425C30.4236 13.7233 30.4909 13.6882 30.5228 13.6671C30.5279 13.6652 30.5313 13.6637 30.5364 13.6637C30.5411 13.6637 30.5442 13.6637 30.548 13.6689C30.5531 13.6829 30.5578 13.6988 30.5634 13.7129L30.8721 14.6321C30.8917 14.6934 30.9123 14.7587 30.934 14.8115C30.9541 14.8605 30.9897 14.8812 31.045 14.8812H31.055V14.9341C30.9796 14.9306 30.9037 14.9274 30.8235 14.9274C30.7411 14.9274 30.6569 14.9306 30.5714 14.9341V14.8812H30.59C30.6285 14.8812 30.6943 14.8746 30.6943 14.8306C30.6943 14.8075 30.6789 14.7602 30.6603 14.704L30.5951 14.4999H30.2144L30.16 14.683Z" fill="white"/>
<path fill-rule="evenodd" clip-rule="evenodd" d="M29.6286 14.5881L29.6319 14.5844V13.9255C29.6319 13.7815 29.5363 13.7605 29.4853 13.7605H29.4493V13.7073C29.5277 13.7073 29.6051 13.7143 29.6838 13.7143C29.7531 13.7143 29.8217 13.7073 29.8903 13.7073V13.7605H29.8652C29.7945 13.7605 29.7156 13.7743 29.7156 13.9833V14.7833C29.7156 14.8448 29.7176 14.9061 29.7257 14.9605H29.6618L28.7976 13.9519V14.6758C28.7976 14.8291 28.826 14.8813 28.9555 14.8813H28.9839V14.9342C28.9117 14.9342 28.8398 14.9274 28.7674 14.9274C28.6919 14.9274 28.6145 14.9342 28.5388 14.9342V14.8813H28.5625C28.6787 14.8813 28.7132 14.7992 28.7132 14.6585V13.9183C28.7132 13.8198 28.6365 13.7605 28.5605 13.7605H28.5388V13.7073C28.6028 13.7073 28.6681 13.7143 28.732 13.7143C28.7822 13.7143 28.8308 13.7073 28.8812 13.7073L29.6286 14.5881Z" fill="white"/>
<path fill-rule="evenodd" clip-rule="evenodd" d="M27.8794 14.8832C28.2056 14.8832 28.2618 14.5827 28.2618 14.3266C28.2618 14.0696 28.1297 13.7586 27.851 13.7586C27.5574 13.7586 27.4701 14.0328 27.4701 14.2678C27.4701 14.5827 27.6078 14.8832 27.8794 14.8832ZM27.8543 13.6812C28.212 13.6812 28.4973 13.9132 28.4973 14.2876C28.4973 14.6918 28.2204 14.9605 27.8629 14.9605C27.5066 14.9605 27.2354 14.7078 27.2354 14.3295C27.2354 13.9644 27.5053 13.6812 27.8543 13.6812Z" fill="white"/>
<path fill-rule="evenodd" clip-rule="evenodd" d="M26.6963 14.8813C26.7571 14.8813 26.8206 14.8728 26.8206 14.7811V13.8606C26.8206 13.7689 26.7571 13.7605 26.6963 13.7605H26.6729V13.7073C26.7383 13.7073 26.8389 13.7143 26.9211 13.7143C27.005 13.7143 27.1058 13.7073 27.185 13.7073V13.7605H27.1616C27.1008 13.7605 27.0366 13.7689 27.0366 13.8606V14.7811C27.0366 14.8728 27.1008 14.8813 27.1616 14.8813H27.185V14.9342C27.1042 14.9342 27.0037 14.9274 26.9196 14.9274C26.8372 14.9274 26.7383 14.9342 26.6729 14.9342V14.8813H26.6963Z" fill="white"/>
<path fill-rule="evenodd" clip-rule="evenodd" d="M25.6494 13.7953C25.5233 13.7953 25.5186 13.827 25.4933 13.9552H25.4426C25.4495 13.906 25.4582 13.8569 25.463 13.8057C25.4699 13.7566 25.4731 13.7072 25.4731 13.6565H25.5134C25.5268 13.7092 25.5689 13.7072 25.614 13.7072H26.4801C26.5253 13.7072 26.5671 13.7057 26.5706 13.653L26.6109 13.6602C26.6044 13.7072 26.598 13.7548 26.5926 13.8025C26.5886 13.8497 26.5886 13.8974 26.5886 13.9446L26.5387 13.9644C26.5357 13.8991 26.5271 13.7953 26.4146 13.7953H26.1394V14.7302C26.1394 14.8659 26.1983 14.8812 26.2787 14.8812H26.3104V14.9341C26.2452 14.9341 26.1277 14.9274 26.0371 14.9274C25.9363 14.9274 25.8186 14.9341 25.753 14.9341V14.8812H25.785C25.8777 14.8812 25.9247 14.8728 25.9247 14.7342V13.7953H25.6494Z" fill="white"/>
<path fill-rule="evenodd" clip-rule="evenodd" d="M24.9261 13.9043H24.9228L24.7665 14.4017H25.0803L24.9261 13.9043ZM24.6813 14.683C24.6643 14.7425 24.6438 14.7886 24.6438 14.8197C24.6438 14.8728 24.7148 14.8812 24.77 14.8812H24.7886V14.9341C24.7211 14.9306 24.6524 14.9274 24.5852 14.9274C24.5247 14.9274 24.4645 14.9306 24.4042 14.9341V14.8812H24.414C24.4795 14.8812 24.5351 14.8408 24.5597 14.7671L24.8286 13.9609C24.8503 13.8955 24.8809 13.8078 24.8907 13.7425C24.9444 13.7233 25.0117 13.6882 25.0436 13.6671C25.0487 13.6652 25.0513 13.6637 25.0569 13.6637C25.0617 13.6637 25.0651 13.6637 25.0688 13.6689C25.0738 13.6829 25.0786 13.6988 25.084 13.7129L25.3927 14.6321C25.4126 14.6934 25.4329 14.7587 25.4545 14.8115C25.4749 14.8605 25.5102 14.8812 25.5655 14.8812H25.5755V14.9341C25.5001 14.9306 25.4244 14.9274 25.3441 14.9274C25.2619 14.9274 25.1779 14.9306 25.0925 14.9341V14.8812H25.111C25.1492 14.8812 25.2148 14.8746 25.2148 14.8306C25.2148 14.8075 25.1998 14.7602 25.1808 14.704L25.1156 14.4999H24.7344L24.6813 14.683Z" fill="white"/>
<path fill-rule="evenodd" clip-rule="evenodd" d="M24.149 14.5881L24.1522 14.5844V13.9255C24.1522 13.7815 24.0565 13.7605 24.0065 13.7605H23.9694V13.7073C24.0486 13.7073 24.1252 13.7143 24.2045 13.7143C24.2734 13.7143 24.3421 13.7073 24.4111 13.7073V13.7605H24.3861C24.3155 13.7605 24.2365 13.7743 24.2365 13.9833V14.7833C24.2365 14.8448 24.238 14.9061 24.2462 14.9605H24.1828L23.3184 13.9519V14.6758C23.3184 14.8291 23.347 14.8813 23.4763 14.8813H23.5049V14.9342C23.4325 14.9342 23.3602 14.9274 23.2881 14.9274C23.2125 14.9274 23.1354 14.9342 23.0599 14.9342V14.8813H23.0829C23.1991 14.8813 23.2342 14.7992 23.2342 14.6585V13.9183C23.2342 13.8198 23.157 13.7605 23.0816 13.7605H23.0599V13.7073C23.1234 13.7073 23.1894 13.7143 23.2528 13.7143C23.303 13.7143 23.3517 13.7073 23.4022 13.7073L24.149 14.5881Z" fill="white"/>
<path fill-rule="evenodd" clip-rule="evenodd" d="M22.2276 14.3015H22.3096C22.4776 14.3015 22.5679 14.2349 22.5679 14.0273C22.5679 13.8714 22.4723 13.7708 22.3229 13.7708C22.2722 13.7708 22.2507 13.7764 22.2276 13.7778V14.3015ZM22.0127 13.8937C22.0127 13.7652 21.9455 13.7605 21.8935 13.7605H21.8629V13.7073C21.9167 13.7073 22.0208 13.7143 22.1235 13.7143C22.2238 13.7143 22.3046 13.7073 22.3938 13.7073C22.6047 13.7073 22.7929 13.7671 22.7929 14.0169C22.7929 14.175 22.6924 14.2714 22.5599 14.3266L22.8469 14.7758C22.8938 14.8504 22.927 14.871 23.0095 14.8813V14.9342C22.9541 14.9342 22.9005 14.9274 22.8452 14.9274C22.7929 14.9274 22.7391 14.9342 22.6873 14.9342C22.5581 14.7569 22.4471 14.5671 22.338 14.3647H22.2276V14.7408C22.2276 14.8765 22.2878 14.8813 22.365 14.8813H22.3956V14.9342C22.2995 14.9342 22.2021 14.9274 22.1065 14.9274C22.0259 14.9274 21.9471 14.9342 21.8629 14.9342V14.8813H21.8935C21.9553 14.8813 22.0127 14.8518 22.0127 14.7867V13.8937Z" fill="white"/>
<path fill-rule="evenodd" clip-rule="evenodd" d="M20.8312 14.8813H20.8546C20.9149 14.8813 20.9787 14.8728 20.9787 14.7811V13.8606C20.9787 13.7689 20.9149 13.7605 20.8546 13.7605H20.8312V13.7073C20.9331 13.7073 21.1084 13.7143 21.249 13.7143C21.3902 13.7143 21.5645 13.7073 21.6783 13.7073C21.6756 13.783 21.6771 13.8991 21.6822 13.9764L21.6314 13.9905C21.6235 13.8764 21.6033 13.785 21.4269 13.785H21.1942V14.245H21.3933C21.4942 14.245 21.5163 14.1859 21.5259 14.0908H21.576C21.5728 14.1595 21.5712 14.2277 21.5712 14.2963C21.5712 14.3634 21.5728 14.4298 21.576 14.4967L21.5259 14.5071C21.5163 14.4018 21.5112 14.3332 21.395 14.3332H21.1942V14.7425C21.1942 14.857 21.2912 14.857 21.3984 14.857C21.6001 14.857 21.6887 14.8429 21.739 14.6425L21.786 14.6548C21.7642 14.7483 21.7442 14.8408 21.7291 14.9342C21.6217 14.9342 21.4286 14.9274 21.2774 14.9274C21.1264 14.9274 20.9267 14.9342 20.8312 14.9342V14.8813Z" fill="white"/>
<path fill-rule="evenodd" clip-rule="evenodd" d="M19.8153 13.7953C19.6894 13.7953 19.6848 13.827 19.6595 13.9552H19.6091C19.616 13.906 19.6242 13.8569 19.6295 13.8057C19.6361 13.7566 19.6394 13.7072 19.6394 13.6565H19.6799C19.6933 13.7092 19.7352 13.7072 19.7806 13.7072H20.6466C20.6919 13.7072 20.7339 13.7057 20.7373 13.653L20.7772 13.6602C20.7711 13.7072 20.7642 13.7548 20.7591 13.8025C20.7556 13.8497 20.7556 13.8974 20.7556 13.9446L20.7055 13.9644C20.7021 13.8991 20.6936 13.7953 20.5811 13.7953H20.306V14.7302C20.306 14.8659 20.365 14.8812 20.4452 14.8812H20.477V14.9341C20.4117 14.9341 20.2939 14.9274 20.2034 14.9274C20.103 14.9274 19.9852 14.9341 19.9196 14.9341V14.8812H19.9515C20.0442 14.8812 20.0908 14.8728 20.0908 14.7342V13.7953H19.8153Z" fill="white"/>
<path fill-rule="evenodd" clip-rule="evenodd" d="M19.3025 14.5881L19.3058 14.5844V13.9255C19.3058 13.7815 19.2101 13.7605 19.1595 13.7605H19.1228V13.7073C19.2016 13.7073 19.279 13.7143 19.3578 13.7143C19.4265 13.7143 19.4956 13.7073 19.564 13.7073V13.7605H19.5391C19.4685 13.7605 19.3895 13.7743 19.3895 13.9833V14.7833C19.3895 14.8448 19.3915 14.9061 19.3996 14.9605H19.3359L18.4715 13.9519V14.6758C18.4715 14.8291 18.4998 14.8813 18.6291 14.8813H18.6576V14.9342C18.5856 14.9342 18.5132 14.9274 18.441 14.9274C18.3661 14.9274 18.2884 14.9342 18.213 14.9342V14.8813H18.2364C18.3523 14.8813 18.3877 14.7992 18.3877 14.6585V13.9183C18.3877 13.8198 18.3101 13.7605 18.2348 13.7605H18.213V13.7073C18.2766 13.7073 18.3422 13.7143 18.4059 13.7143C18.4563 13.7143 18.5052 13.7073 18.5554 13.7073L19.3025 14.5881Z" fill="white"/>
<path fill-rule="evenodd" clip-rule="evenodd" d="M17.6373 14.8813H17.6609C17.7211 14.8813 17.7851 14.8728 17.7851 14.7811V13.8606C17.7851 13.7689 17.7211 13.7605 17.6609 13.7605H17.6373V13.7073C17.7029 13.7073 17.8036 13.7143 17.886 13.7143C17.9698 13.7143 18.0704 13.7073 18.1493 13.7073V13.7605H18.1257C18.0656 13.7605 18.0016 13.7689 18.0016 13.8606V14.7811C18.0016 14.8728 18.0656 14.8813 18.1257 14.8813H18.1493V14.9342C18.0688 14.9342 17.9679 14.9274 17.8842 14.9274C17.8018 14.9274 17.7029 14.9342 17.6373 14.9342V14.8813Z" fill="white"/>
<path fill-rule="evenodd" clip-rule="evenodd" d="M30.9455 12.6384C30.9455 12.7613 31.0564 12.9678 31.2634 12.9678C31.5937 12.9678 31.7325 12.6285 31.7325 12.3409C31.7325 11.9924 31.4793 11.7018 31.239 11.7018C31.1242 11.7018 31.0288 11.7794 30.9455 11.8541V12.6384ZM30.9455 11.7596C31.0688 11.6503 31.2358 11.5276 31.4052 11.5276C31.7631 11.5276 31.979 11.8541 31.979 12.2055C31.979 12.6285 31.683 13.0518 31.2413 13.0518C31.0132 13.0518 30.8932 12.9744 30.8128 12.9391L30.7202 13.013L30.6558 12.9778C30.683 12.7873 30.6986 12.5995 30.6986 12.4027V11.0142C30.6986 10.804 30.6526 10.7974 30.5353 10.762V10.7103C30.659 10.6683 30.7881 10.6105 30.8531 10.5712C30.8866 10.5521 30.9115 10.5356 30.9212 10.5356C30.9396 10.5356 30.9455 10.5551 30.9455 10.5812V11.7596Z" fill="white"/>
<path fill-rule="evenodd" clip-rule="evenodd" d="M30.3319 12.8258C30.3319 12.884 30.3655 12.8871 30.4181 12.8871C30.455 12.8871 30.5016 12.884 30.5417 12.884V12.9521C30.4088 12.965 30.156 13.0326 30.097 13.0519L30.0817 13.0424V12.7811C29.8969 12.9392 29.7545 13.0519 29.5355 13.0519C29.3689 13.0519 29.1964 12.9392 29.1964 12.6681V11.841C29.1964 11.7568 29.184 11.6758 29.0116 11.66V11.5987C29.1229 11.595 29.3689 11.5762 29.4094 11.5762C29.4436 11.5762 29.4436 11.5987 29.4436 11.6696V12.5028C29.4436 12.5996 29.4436 12.8774 29.7119 12.8774C29.8165 12.8774 29.9553 12.7934 30.0848 12.681V11.8116C30.0848 11.7471 29.9367 11.7119 29.826 11.6792V11.6211C30.1035 11.6016 30.2765 11.5762 30.3071 11.5762C30.3319 11.5762 30.3319 11.5987 30.3319 11.6343V12.8258Z" fill="white"/>
<path fill-rule="evenodd" clip-rule="evenodd" d="M28.351 12.9193H28.4098C28.4962 12.9193 28.558 12.9193 28.558 12.8125V11.0142C28.558 10.804 28.5116 10.7974 28.3944 10.762V10.7103C28.5176 10.6683 28.6472 10.6105 28.7122 10.5712C28.7459 10.5521 28.7708 10.5356 28.7799 10.5356C28.7987 10.5356 28.8045 10.5551 28.8045 10.5812V12.8125C28.8045 12.9193 28.8726 12.9193 28.959 12.9193H29.0115V13.0035C28.907 13.0035 28.7987 12.9972 28.6874 12.9972C28.5766 12.9972 28.4656 13.0005 28.351 13.0035V12.9193Z" fill="white"/>
<path fill-rule="evenodd" clip-rule="evenodd" d="M28.24 11.3336H28.1629C28.1043 10.9559 27.8482 10.8041 27.5032 10.8041C27.148 10.8041 26.6326 11.0527 26.6326 11.8275C26.6326 12.4804 27.0776 12.9487 27.5522 12.9487C27.8576 12.9487 28.1106 12.7293 28.1724 12.39L28.243 12.4091L28.1724 12.8808C28.0428 12.965 27.6938 13.0519 27.4903 13.0519C26.7686 13.0519 26.3125 12.5642 26.3125 11.8376C26.3125 11.1755 26.8765 10.7004 27.4813 10.7004C27.7313 10.7004 27.9717 10.7846 28.2092 10.8717L28.24 11.3336Z" fill="white"/>
<path fill-rule="evenodd" clip-rule="evenodd" d="M24.569 12.5546C24.6095 12.7676 24.7328 12.9487 24.958 12.9487C25.1398 12.9487 25.2073 12.8322 25.2073 12.7193C25.2073 12.3384 24.5353 12.4606 24.5353 11.941C24.5353 11.7597 24.6743 11.5277 25.0137 11.5277C25.1122 11.5277 25.2448 11.5567 25.365 11.6211L25.3868 11.9505H25.3158C25.285 11.7471 25.177 11.6306 24.9794 11.6306C24.8559 11.6306 24.7391 11.7053 24.7391 11.8439C24.7391 12.2222 25.4545 12.1057 25.4545 12.6128C25.4545 12.8258 25.291 13.0519 24.924 13.0519C24.8003 13.0519 24.6554 13.0068 24.5475 12.9424L24.5137 12.5707L24.569 12.5546Z" fill="white"/>
<path fill-rule="evenodd" clip-rule="evenodd" d="M23.3815 12.9194H23.4651C23.5514 12.9194 23.6126 12.9194 23.6126 12.8126V11.9054C23.6126 11.8053 23.4988 11.7858 23.4524 11.7597V11.7119C23.6776 11.6114 23.8012 11.5277 23.8292 11.5277C23.8473 11.5277 23.8566 11.5369 23.8566 11.5696V11.8602H23.8632C23.94 11.7343 24.0696 11.5277 24.2577 11.5277C24.3349 11.5277 24.4334 11.5821 24.4334 11.6987C24.4334 11.7858 24.3751 11.8637 24.2886 11.8637C24.1927 11.8637 24.1927 11.7858 24.0849 11.7858C24.0324 11.7858 23.8598 11.8602 23.8598 12.0541V12.8126C23.8598 12.9194 23.9213 12.9194 24.0077 12.9194H24.1804V13.0036C24.0108 13.0006 23.8815 12.9973 23.7488 12.9973C23.6222 12.9973 23.4928 13.0006 23.3815 13.0036V12.9194Z" fill="white"/>
<path fill-rule="evenodd" clip-rule="evenodd" d="M22.9593 12.0086C23.0362 12.0086 23.0451 11.9667 23.0451 11.9281C23.0451 11.7631 22.9496 11.6306 22.7768 11.6306C22.5889 11.6306 22.4593 11.776 22.4222 12.0086H22.9593ZM22.4133 12.1122C22.4067 12.1414 22.4067 12.1895 22.4133 12.2995C22.4313 12.6065 22.6198 12.8583 22.8664 12.8583C23.0362 12.8583 23.1691 12.7613 23.2829 12.6417L23.3261 12.687C23.1842 12.884 23.0085 13.0519 22.7557 13.0519C22.2649 13.0519 22.1664 12.5546 22.1664 12.3479C22.1664 11.7148 22.5735 11.5277 22.7891 11.5277C23.0391 11.5277 23.3078 11.6921 23.3106 12.0344C23.3106 12.0541 23.3106 12.0733 23.3078 12.0928L23.2797 12.1122H22.4133Z" fill="white"/>
<path fill-rule="evenodd" clip-rule="evenodd" d="M20.8335 11.9569C20.8335 11.8376 20.7995 11.8053 20.6547 11.7442V11.6824C20.7871 11.6373 20.9136 11.595 21.0616 11.5277C21.071 11.5277 21.08 11.534 21.08 11.5595V11.77C21.2561 11.6373 21.4074 11.5277 21.6141 11.5277C21.8764 11.5277 21.9688 11.7277 21.9688 11.9796V12.8126C21.9688 12.9194 22.0369 12.9194 22.1228 12.9194H22.1785V13.0036C22.0703 13.0036 21.9625 12.9973 21.8518 12.9973C21.7405 12.9973 21.6294 13.0006 21.5184 13.0036V12.9194H21.5739C21.6603 12.9194 21.7217 12.9194 21.7217 12.8126V11.9765C21.7217 11.7921 21.6141 11.7019 21.4382 11.7019C21.3393 11.7019 21.1822 11.7858 21.08 11.8571V12.8126C21.08 12.9194 21.1483 12.9194 21.2348 12.9194H21.2903V13.0036C21.1822 13.0036 21.074 12.9973 20.9626 12.9973C20.8521 12.9973 20.7408 13.0006 20.6298 13.0036V12.9194H20.6857C20.772 12.9194 20.8335 12.9194 20.8335 12.8126V11.9569Z" fill="white"/>
<path fill-rule="evenodd" clip-rule="evenodd" d="M20.2106 11.0301C20.1301 11.0301 20.0592 10.9526 20.0592 10.8687C20.0592 10.7878 20.1331 10.7133 20.2106 10.7133C20.2906 10.7133 20.3618 10.7812 20.3618 10.8687C20.3618 10.9558 20.2937 11.0301 20.2106 11.0301ZM19.8804 12.9194H19.9388C20.0254 12.9194 20.0869 12.9194 20.0869 12.8125V11.9377C20.0869 11.7954 20.0409 11.7759 19.9264 11.7118V11.66C20.0716 11.6144 20.2442 11.5537 20.2566 11.5435C20.2784 11.5309 20.2966 11.5277 20.3123 11.5277C20.3275 11.5277 20.3338 11.5468 20.3338 11.5726V12.8125C20.3338 12.9194 20.4017 12.9194 20.4879 12.9194H20.5403V13.0036C20.4354 13.0036 20.3275 12.9973 20.2165 12.9973C20.1055 12.9973 19.9945 13.0005 19.8804 13.0036V12.9194Z" fill="white"/>
<path fill-rule="evenodd" clip-rule="evenodd" d="M18.2267 12.6222C18.2267 12.8711 18.3966 12.8999 18.5476 12.8999C19.2141 12.8999 19.4327 12.3737 19.4327 11.8925C19.4327 11.2886 19.0626 10.8525 18.4673 10.8525C18.3408 10.8525 18.2825 10.8619 18.2267 10.8654V12.6222ZM17.9244 11.1074C17.9244 10.8169 17.7796 10.8361 17.6409 10.8327V10.7491C17.761 10.7553 17.8843 10.7553 18.0048 10.7553C18.1343 10.7553 18.3102 10.7491 18.5385 10.7491C19.3372 10.7491 19.7722 11.3075 19.7722 11.8796C19.7722 12.1995 19.5934 13.0036 18.5014 13.0036C18.3444 13.0036 18.199 12.9973 18.0543 12.9973C17.9153 12.9973 17.7796 13.0005 17.6409 13.0036V12.9194C17.8255 12.8999 17.9153 12.8936 17.9244 12.674V11.1074Z" fill="white"/>
<path fill-rule="evenodd" clip-rule="evenodd" d="M14.8653 12.8513C14.864 12.0921 14.4107 11.4447 13.7722 11.1883V14.5143C14.4107 14.2576 14.864 13.6108 14.8653 12.8513ZM12.5537 14.5137V11.1886C11.9158 11.4458 11.4632 12.0924 11.4616 12.8513C11.4632 13.6102 11.9158 14.2569 12.5537 14.5137ZM13.1632 10.0399C11.6804 10.0406 10.4792 11.2987 10.4789 12.8513C10.4792 14.4038 11.6804 15.6618 13.1632 15.6621C14.6462 15.6618 15.8479 14.4038 15.8483 12.8513C15.8479 11.2987 14.6462 10.0406 13.1632 10.0399ZM13.1568 15.9274C11.5341 15.9355 10.1986 14.5589 10.1986 12.8834C10.1986 11.0523 11.5341 9.7857 13.1568 9.78601H13.9172C15.5205 9.7857 16.9842 11.0517 16.9842 12.8834C16.9842 14.5583 15.5205 15.9274 13.9172 15.9274H13.1568Z" fill="white"/>
</svg>
