<svg width="44" height="27" viewBox="0 0 44 27" fill="none" xmlns="http://www.w3.org/2000/svg">
<rect x="0.285645" width="42.7543" height="26.7523" rx="1.215" fill="#F9F9F9"/>
<path fill-rule="evenodd" clip-rule="evenodd" d="M43.0441 15.3445C43.0441 17.975 43.0441 23.171 43.0441 25.5269C43.0441 26.1979 42.5091 26.739 41.838 26.739C36.737 26.739 16.9618 26.739 11.8384 26.739C25.107 24.0142 34.6898 20.2986 43.0441 15.3445Z" fill="#F58220"/>
<path fill-rule="evenodd" clip-rule="evenodd" d="M32.409 11.0721C32.409 11.0105 32.3695 10.9762 32.2964 10.9762H32.2003V11.2875H32.271V11.1664L32.3545 11.2875H32.4434L32.3435 11.1589C32.3856 11.1472 32.409 11.1153 32.409 11.0721ZM32.2843 11.1141H32.271V11.0339H32.2852C32.3201 11.0339 32.338 11.0468 32.338 11.0733C32.338 11.1003 32.3193 11.1141 32.2843 11.1141Z" fill="#231F20"/>
<path fill-rule="evenodd" clip-rule="evenodd" d="M32.3118 10.8573C32.1656 10.8573 32.0488 10.9804 32.0488 11.1342C32.0488 11.2874 32.1662 11.4109 32.3118 11.4109C32.4552 11.4109 32.5722 11.2862 32.5722 11.1342C32.5722 10.9823 32.4552 10.8573 32.3118 10.8573ZM32.3115 11.3609C32.1948 11.3609 32.1005 11.2604 32.1005 11.1348C32.1005 11.008 32.1942 10.9075 32.3115 10.9075C32.4257 10.9075 32.5191 11.0099 32.5191 11.1348C32.5191 11.2592 32.4257 11.3609 32.3115 11.3609Z" fill="#231F20"/>
<path fill-rule="evenodd" clip-rule="evenodd" d="M31.9399 11.8674C31.9399 11.1934 31.4985 10.8059 30.7276 10.8059H29.7357V14.4017H30.4042V12.9567H30.4917L31.4159 14.4017H32.2382L31.1584 12.8869C31.6628 12.779 31.9399 12.4179 31.9399 11.8674ZM30.5986 12.4607H30.4042V11.3714H30.6097C31.0262 11.3714 31.2527 11.5555 31.2527 11.905C31.2527 12.2662 31.0262 12.4607 30.5986 12.4607Z" fill="#231F20"/>
<path fill-rule="evenodd" clip-rule="evenodd" d="M27.399 14.4017H29.2947V13.7927H28.0669V12.8216H29.2479V12.2132H28.0669V11.4149H29.2947V10.8059H27.399V14.4017Z" fill="#231F20"/>
<path fill-rule="evenodd" clip-rule="evenodd" d="M25.446 13.2214L24.5312 10.8059H23.8018L25.2563 14.4939H25.6156L27.0956 10.8059H26.3714L25.446 13.2214Z" fill="#231F20"/>
<g filter="url(#filter0_i_14_1617)">
<path fill-rule="evenodd" clip-rule="evenodd" d="M20.2849 12.5863C20.2849 13.6716 21.0675 14.4825 22.1116 14.4825C23.1301 14.4825 23.934 13.6609 23.934 12.6074C23.934 11.561 23.1353 10.7388 22.1116 10.7388C21.1028 10.7388 20.2849 11.5656 20.2849 12.5863Z" fill="#F48027"/>
</g>
<path fill-rule="evenodd" clip-rule="evenodd" d="M17.3849 12.6056C17.3849 13.6634 18.1765 14.4825 19.1935 14.4825C19.4816 14.4825 19.728 14.4234 20.0316 14.2724V13.4474C19.7636 13.728 19.5274 13.8404 19.2242 13.8404C18.5513 13.8404 18.0732 13.3282 18.0732 12.6001C18.0732 11.9108 18.5662 11.3658 19.1935 11.3658C19.5117 11.3658 19.7534 11.485 20.0316 11.7702V10.9452C19.7388 10.789 19.4965 10.725 19.2093 10.725C18.1967 10.725 17.3849 11.561 17.3849 12.6056Z" fill="#231F20"/>
<path fill-rule="evenodd" clip-rule="evenodd" d="M16.1884 12.185C15.787 12.0293 15.6694 11.9264 15.6694 11.7325C15.6694 11.5064 15.879 11.334 16.1677 11.334C16.3679 11.334 16.5322 11.4203 16.7074 11.6244L17.0562 11.1456C16.7684 10.8806 16.4245 10.7461 16.0491 10.7461C15.4434 10.7461 14.9808 11.1881 14.9808 11.7757C14.9808 12.2723 15.1965 12.5253 15.8232 12.7624C16.0853 12.8592 16.2187 12.9239 16.2856 12.9674C16.4193 13.0596 16.4864 13.1882 16.4864 13.3389C16.4864 13.6309 16.2651 13.8459 15.9668 13.8459C15.6481 13.8459 15.3915 13.6796 15.2374 13.3665L14.8065 13.804C15.1142 14.2779 15.484 14.4883 15.9931 14.4883C16.6867 14.4883 17.1744 14.0025 17.1744 13.3074C17.1744 12.7361 16.9491 12.4769 16.1884 12.185Z" fill="#231F20"/>
<path fill-rule="evenodd" clip-rule="evenodd" d="M13.8865 10.8059H14.5543V14.4017H13.8865V10.8059Z" fill="#231F20"/>
<path fill-rule="evenodd" clip-rule="evenodd" d="M11.7389 10.8059H10.757V14.4017H11.7342C12.2524 14.4017 12.6275 14.2724 12.9564 13.9872C13.3464 13.6466 13.5779 13.1344 13.5779 12.6056C13.5779 11.5442 12.8222 10.8059 11.7389 10.8059ZM12.5203 13.5066C12.309 13.7066 12.0372 13.7927 11.6052 13.7927H11.4254V11.4149H11.6052C12.0372 11.4149 12.2985 11.4958 12.5203 11.7056C12.7515 11.9216 12.889 12.2555 12.889 12.6001C12.889 12.946 12.7515 13.2918 12.5203 13.5066Z" fill="#231F20"/>
<defs>
<filter id="filter0_i_14_1617" x="20.2849" y="10.7388" width="3.64905" height="3.74377" filterUnits="userSpaceOnUse" color-interpolation-filters="sRGB">
<feFlood flood-opacity="0" result="BackgroundImageFix"/>
<feBlend mode="normal" in="SourceGraphic" in2="BackgroundImageFix" result="shape"/>
<feColorMatrix in="SourceAlpha" type="matrix" values="0 0 0 0 0 0 0 0 0 0 0 0 0 0 0 0 0 0 127 0" result="hardAlpha"/>
<feOffset/>
<feGaussianBlur stdDeviation="0.5"/>
<feComposite in2="hardAlpha" operator="arithmetic" k2="-1" k3="1"/>
<feColorMatrix type="matrix" values="0 0 0 0 0 0 0 0 0 0 0 0 0 0 0 0 0 0 0.5 0"/>
<feBlend mode="normal" in2="shape" result="effect1_innerShadow_14_1617"/>
</filter>
</defs>
</svg>
