<svg width="44" height="27" viewBox="0 0 44 27" fill="none" xmlns="http://www.w3.org/2000/svg">
<rect x="0.511353" width="42.7543" height="26.7523" rx="1.215" fill="#14457C"/>
<path fill-rule="evenodd" clip-rule="evenodd" d="M24.1099 13.3579C24.1099 17.0389 21.1687 20.0225 17.5404 20.0225C13.9117 20.0225 10.9703 17.0389 10.9703 13.3579C10.9703 9.67705 13.9117 6.69312 17.5404 6.69312C21.1687 6.69312 24.1099 9.67705 24.1099 13.3579Z" fill="#D82332"/>
<path fill-rule="evenodd" clip-rule="evenodd" d="M26.4252 6.69312C24.7274 6.69312 23.1807 7.34644 22.0146 8.41822C21.7775 8.63666 21.5559 8.87258 21.3517 9.12378H22.6789C22.8601 9.3477 23.0273 9.5831 23.1797 9.82966H20.8505C20.7113 10.0562 20.5845 10.2916 20.4721 10.5355H23.5581C23.6636 10.764 23.7564 10.9993 23.8364 11.2411H20.1939C20.118 11.471 20.0541 11.7064 20.0029 11.9466H24.027C24.1232 12.4016 24.1745 12.8736 24.1745 13.3579C24.1745 14.0978 24.0558 14.81 23.8364 15.4751H20.1939C20.2737 15.7169 20.3666 15.9524 20.4719 16.1811H23.5581C23.4454 16.4244 23.3192 16.66 23.1792 16.8869H20.8505C21.0025 17.1327 21.17 17.3684 21.3517 17.592H22.6784C22.4745 17.8435 22.2529 18.0794 22.0149 18.2978C23.1809 19.3696 24.7274 20.0225 26.4252 20.0225C30.0535 20.0225 32.9949 17.0389 32.9949 13.3579C32.9949 9.67737 30.0535 6.69312 26.4252 6.69312Z" fill="#F1AB3E"/>
<path fill-rule="evenodd" clip-rule="evenodd" d="M32.0464 17.0172C32.0464 16.8996 32.1413 16.8042 32.2584 16.8042C32.3756 16.8042 32.4701 16.8996 32.4701 17.0172C32.4701 17.1349 32.3756 17.2305 32.2584 17.2305C32.1413 17.2305 32.0464 17.1349 32.0464 17.0172ZM32.2584 17.1794C32.347 17.1794 32.4193 17.1067 32.4193 17.0172C32.4193 16.9274 32.347 16.8554 32.2584 16.8554C32.1693 16.8554 32.0972 16.9274 32.0972 17.0172C32.0972 17.1067 32.1693 17.1794 32.2584 17.1794ZM32.2296 17.1108H32.1861V16.9238H32.265C32.2813 16.9238 32.2981 16.9238 32.3126 16.9328C32.3274 16.9434 32.3361 16.9612 32.3361 16.9798C32.3361 17.001 32.324 17.0208 32.3038 17.0283L32.3382 17.1108H32.29L32.2614 17.0368H32.2296V17.1108ZM32.2296 17.0046H32.2537C32.2626 17.0046 32.2721 17.0052 32.2802 17.001C32.2873 16.9963 32.2911 16.9879 32.2911 16.9794C32.2911 16.9723 32.2863 16.9639 32.2804 16.9603C32.2728 16.9558 32.2607 16.9567 32.2527 16.9567H32.2296V17.0046Z" fill="#F1AB3E"/>
<path fill-rule="evenodd" clip-rule="evenodd" d="M32.0464 14.911C32.0464 14.7928 32.1415 14.6978 32.2579 14.6978C32.3752 14.6978 32.4697 14.7928 32.4697 14.911C32.4697 15.0283 32.3752 15.124 32.2579 15.124C32.1415 15.124 32.0464 15.0283 32.0464 14.911ZM32.2579 15.0729C32.3472 15.0729 32.4193 15.0002 32.4193 14.911C32.4193 14.8216 32.3472 14.749 32.2579 14.749C32.1691 14.749 32.0972 14.8216 32.0972 14.911C32.0972 15.0002 32.1691 15.0729 32.2579 15.0729ZM32.2294 15.0041H32.1861V14.8171H32.2648C32.2813 14.8171 32.2979 14.8178 32.3123 14.8267C32.3276 14.8369 32.3359 14.8548 32.3359 14.8733C32.3359 14.8945 32.3238 14.9143 32.304 14.9218L32.3382 15.0041H32.29L32.2614 14.9302H32.2294V15.0041ZM32.2294 14.8982H32.2535C32.2622 14.8982 32.2724 14.899 32.28 14.8945C32.2871 14.89 32.2907 14.8811 32.2907 14.8729C32.2907 14.8658 32.2866 14.8579 32.2804 14.8535C32.273 14.8494 32.2607 14.8505 32.2527 14.8505H32.2294V14.8982Z" fill="#FFFFFE"/>
<path fill-rule="evenodd" clip-rule="evenodd" d="M31.3744 11.854L31.2158 12.8307C31.0212 12.5704 30.8116 12.3819 30.5351 12.3819C30.1751 12.3819 29.8476 12.6587 29.6331 13.0663C29.3343 13.0034 29.0258 12.8965 29.0258 12.8965L29.0256 12.8991C29.0492 12.6713 29.0594 12.5327 29.057 12.4853H28.4018C28.3128 13.3364 28.154 14.1982 28.0301 15.0496L27.9973 15.2346H28.7111C28.8073 14.6001 28.881 14.0727 28.9354 13.6549C29.1792 13.4313 29.3013 13.2367 29.5473 13.2493C29.4383 13.5171 29.3745 13.8252 29.3745 14.1414C29.3745 14.8285 29.717 15.2821 30.2357 15.2821C30.4972 15.2821 30.6976 15.1906 30.8934 14.9787L30.8597 15.2344H31.5346L32.0778 11.854H31.3744ZM30.4823 14.5995C30.2396 14.5995 30.1168 14.4169 30.1168 14.0575C30.1168 13.5171 30.3465 13.134 30.6699 13.134C30.9151 13.134 31.0478 13.3232 31.0478 13.6724C31.0478 14.2175 30.8142 14.5995 30.4823 14.5995Z" fill="#0C2D5A"/>
<path fill-rule="evenodd" clip-rule="evenodd" d="M27.2742 14.072C27.1997 14.0632 27.1667 14.0608 27.1154 14.0608C26.7112 14.0608 26.5066 14.2013 26.5066 14.479C26.5066 14.6499 26.6065 14.7594 26.7622 14.7594C27.0525 14.7594 27.2622 14.4788 27.2742 14.072ZM27.7933 15.2966C27.6984 15.2966 27.2024 15.2966 27.2024 15.2966L27.2158 15.0119C27.0355 15.2368 26.795 15.3443 26.4685 15.3443C26.0817 15.3443 25.817 15.0379 25.817 14.5932C25.817 13.9235 26.2776 13.5336 27.069 13.5336C27.1499 13.5336 27.2533 13.5411 27.3593 13.555C27.3814 13.464 27.3873 13.4253 27.3873 13.3761C27.3873 13.1943 27.2635 13.1265 26.9301 13.1265C26.5813 13.1223 26.2938 13.2105 26.1751 13.2498C26.1827 13.2043 26.274 12.6316 26.274 12.6316C26.6295 12.5259 26.8638 12.486 27.1276 12.486C27.74 12.486 28.0646 12.7652 28.0638 13.2922C28.0652 13.4335 28.0421 13.6082 28.0062 13.837C27.9443 14.2348 27.8116 15.0891 27.7933 15.2966Z" fill="#0C2D5A"/>
<path fill-rule="evenodd" clip-rule="evenodd" d="M25.3928 12.586C25.5909 12.586 25.7758 12.6382 26.0302 12.7684L26.147 12.0348C26.0421 11.9931 25.6745 11.7487 25.363 11.7487C24.8858 11.7487 24.4819 11.9892 24.1984 12.3853C23.7844 12.2463 23.614 12.5273 23.4055 12.8075L23.2202 12.8513C23.2342 12.7591 23.247 12.6675 23.2429 12.5748H22.5875C22.4983 13.4259 22.3398 14.2877 22.2156 15.1391L22.1832 15.3241H22.8968C23.0158 14.539 23.0809 14.0365 23.1206 13.6961L23.3893 13.5451C23.4297 13.3933 23.555 13.3423 23.807 13.3485C23.7742 13.5278 23.7564 13.7166 23.7564 13.912C23.7564 14.8116 24.2353 15.3716 25.0029 15.3716C25.2005 15.3716 25.3705 15.3453 25.6335 15.2726L25.7584 14.5022C25.522 14.6201 25.3283 14.6756 25.1527 14.6756C24.738 14.6756 24.4872 14.365 24.4872 13.852C24.4872 13.1074 24.8601 12.586 25.3928 12.586Z" fill="#0C2D5A"/>
<path fill-rule="evenodd" clip-rule="evenodd" d="M21.9379 15.2331C21.6943 15.3088 21.4589 15.3446 21.2103 15.3443C20.4165 15.3438 20.0029 14.9231 20.0029 14.118C20.0029 13.1779 20.5291 12.486 21.2433 12.486C21.8283 12.486 22.2015 12.8733 22.2015 13.4814C22.2015 13.6829 22.1755 13.8795 22.1143 14.1572H20.7024C20.6544 14.5561 20.9062 14.7225 21.3185 14.7225C21.5721 14.7225 21.8011 14.6692 22.0559 14.5492L21.9379 15.2331ZM21.5394 13.6028C21.5432 13.5453 21.6145 13.1121 21.2094 13.1121C20.9836 13.1121 20.8222 13.2871 20.7564 13.6028H21.5394Z" fill="#0C2D5A"/>
<path fill-rule="evenodd" clip-rule="evenodd" d="M19.7295 15.2933C19.5344 15.3557 19.3822 15.3827 19.2173 15.3827C18.8526 15.3827 18.6535 15.1701 18.6535 14.779C18.6485 14.657 18.7061 14.338 18.7514 14.0461C18.7925 13.789 19.0607 12.1699 19.0607 12.1699H19.7696L19.6867 12.586H20.0506L19.9538 13.2465H19.5886C19.5063 13.7698 19.3888 14.4207 19.3874 14.5071C19.3874 14.6492 19.4622 14.7108 19.6318 14.7108C19.713 14.7108 19.7759 14.7026 19.8241 14.6848L19.7295 15.2933Z" fill="#0C2D5A"/>
<path fill-rule="evenodd" clip-rule="evenodd" d="M16.9505 13.4166C16.9505 13.7647 17.1168 14.004 17.4938 14.1844C17.7825 14.3222 17.8272 14.3629 17.8272 14.4879C17.8272 14.6592 17.6999 14.7365 17.4176 14.7365C17.2047 14.7365 17.0069 14.703 16.7784 14.6284C16.7784 14.6284 16.685 15.2341 16.6805 15.2627C16.8426 15.2987 16.9872 15.3316 17.4227 15.3443C18.1754 15.3443 18.523 15.0538 18.523 14.4255C18.523 14.0476 18.3774 13.826 18.0202 13.6596C17.7212 13.52 17.6868 13.4892 17.6868 13.3607C17.6868 13.2121 17.8053 13.1356 18.0358 13.1356C18.1757 13.1356 18.367 13.1514 18.5483 13.1773L18.6499 12.5398C18.4652 12.5102 18.1852 12.486 18.022 12.486C17.2242 12.486 16.9481 12.9087 16.9505 13.4166Z" fill="#0C2D5A"/>
<path fill-rule="evenodd" clip-rule="evenodd" d="M16.0618 14.072C15.987 14.0632 15.954 14.0608 15.9026 14.0608C15.4984 14.0608 15.2937 14.2013 15.2937 14.479C15.2937 14.6499 15.3936 14.7594 15.5494 14.7594C15.84 14.7594 16.0494 14.4788 16.0618 14.072ZM16.5805 15.2966C16.4855 15.2966 15.9896 15.2966 15.9896 15.2966L16.0031 15.0119C15.8229 15.2368 15.5823 15.3443 15.2556 15.3443C14.8691 15.3443 14.6041 15.0379 14.6041 14.5932C14.6041 13.9235 15.065 13.5336 15.8562 13.5336C15.9372 13.5336 16.0408 13.5411 16.1469 13.555C16.169 13.464 16.1749 13.4253 16.1749 13.3761C16.1749 13.1943 16.0506 13.1265 15.7175 13.1265C15.3684 13.1223 15.0808 13.2105 14.9624 13.2498C14.9699 13.2043 15.0614 12.6316 15.0614 12.6316C15.4167 12.5259 15.6512 12.486 15.915 12.486C16.5274 12.486 16.8518 12.7652 16.8512 13.2922C16.8524 13.4335 16.8294 13.6082 16.7935 13.837C16.7316 14.2348 16.5987 15.0891 16.5805 15.2966Z" fill="#0C2D5A"/>
<path fill-rule="evenodd" clip-rule="evenodd" d="M14.2456 15.3396H13.5325L13.9411 12.7411L13.0288 15.3396H12.5427L12.4826 12.7561L12.0532 15.3396H11.3856L11.9433 11.9594H12.9689L12.9975 14.0519L13.6896 11.9594H14.7972L14.2456 15.3396Z" fill="#0C2D5A"/>
<path fill-rule="evenodd" clip-rule="evenodd" d="M31.8184 15.1289H31.1438L31.1773 14.8731C30.9816 15.0851 30.781 15.1766 30.5197 15.1766C30.0013 15.1766 29.6584 14.7235 29.6584 14.0358C29.6584 13.1213 30.1901 12.3506 30.8189 12.3506C31.0956 12.3506 31.305 12.4652 31.5001 12.7255L31.6583 11.7487H32.3617L31.8184 15.1289ZM30.7662 14.4937C31.0986 14.4937 31.3318 14.1119 31.3318 13.5674C31.3318 13.218 31.199 13.0283 30.9537 13.0283C30.6303 13.0283 30.4006 13.4114 30.4006 13.952C30.4006 14.3119 30.5237 14.4937 30.7662 14.4937Z" fill="#FFFFFE"/>
<path fill-rule="evenodd" clip-rule="evenodd" d="M28.6093 12.3048C28.5201 13.1557 28.3615 14.0176 28.2375 14.8689L28.205 15.0538H28.9183C29.1734 13.3727 29.2349 13.0446 29.6352 13.0855C29.6989 12.7415 29.8174 12.4401 29.9059 12.2882C29.6072 12.2251 29.4403 12.3963 29.2217 12.7218C29.2391 12.5809 29.2706 12.4443 29.2647 12.3048H28.6093Z" fill="#FFFFFE"/>
<path fill-rule="evenodd" clip-rule="evenodd" d="M27.4818 13.8613C27.4074 13.8525 27.3744 13.8501 27.3231 13.8501C26.9189 13.8501 26.7143 13.9906 26.7143 14.2683C26.7143 14.4393 26.8141 14.5487 26.9699 14.5487C27.2602 14.5487 27.4699 14.2681 27.4818 13.8613ZM28.0009 15.0859C27.906 15.0859 27.4101 15.0859 27.4101 15.0859L27.4235 14.8013C27.2431 15.0261 27.0027 15.1337 26.6761 15.1337C26.2893 15.1337 26.0247 14.8272 26.0247 14.3825C26.0247 13.7128 26.4852 13.3229 27.2767 13.3229C27.3575 13.3229 27.4609 13.3304 27.5669 13.3443C27.5891 13.2533 27.595 13.2147 27.595 13.1654C27.595 12.9836 27.4711 12.9158 27.1377 12.9158C26.7889 12.9116 26.5014 12.9998 26.3827 13.0391C26.3903 12.9936 26.4817 12.4209 26.4817 12.4209C26.8372 12.3152 27.0714 12.2753 27.3352 12.2753C27.9477 12.2753 28.2722 12.5545 28.2715 13.0815C28.2728 13.2228 28.2498 13.3975 28.2139 13.6263C28.152 14.0241 28.0192 14.8785 28.0009 15.0859Z" fill="#FFFFFE"/>
<path fill-rule="evenodd" clip-rule="evenodd" d="M26.3386 11.8189L26.2218 12.5525C25.9671 12.4226 25.7826 12.37 25.5846 12.37C25.0521 12.37 24.6786 12.8921 24.6786 13.6368C24.6786 14.1498 24.9297 14.4598 25.3443 14.4598C25.5199 14.4598 25.714 14.4047 25.9501 14.2864L25.8247 15.0568C25.5622 15.1294 25.3922 15.1559 25.1945 15.1559C24.4266 15.1559 23.9482 14.5958 23.9482 13.6964C23.9482 12.4879 24.6095 11.6433 25.5546 11.6433C25.8661 11.6433 26.2339 11.7772 26.3386 11.8189Z" fill="#FFFFFE"/>
<path fill-rule="evenodd" clip-rule="evenodd" d="M22.7957 12.3048C22.706 13.1557 22.5472 14.0176 22.4234 14.8689L22.3909 15.0538H23.1044C23.3597 13.3727 23.421 13.0446 23.8207 13.0855C23.8848 12.7415 24.0037 12.4401 24.0918 12.2882C23.7933 12.2251 23.6263 12.3963 23.408 12.7218C23.4253 12.5809 23.4569 12.4443 23.4506 12.3048H22.7957Z" fill="#FFFFFE"/>
<path fill-rule="evenodd" clip-rule="evenodd" d="M22.1455 15.0224C21.902 15.0981 21.6666 15.1339 21.4179 15.1337C20.6241 15.1331 20.2106 14.7124 20.2106 13.9073C20.2106 12.9672 20.7367 12.2753 21.4509 12.2753C22.036 12.2753 22.4091 12.6627 22.4091 13.2707C22.4091 13.4722 22.3832 13.6688 22.3219 13.9465H20.91C20.8621 14.3454 21.1138 14.5118 21.5261 14.5118C21.7798 14.5118 22.0088 14.4585 22.2636 14.3385L22.1455 15.0224ZM21.747 13.3921C21.7509 13.3346 21.8221 12.9014 21.417 12.9014C21.1913 12.9014 21.0298 13.0764 20.964 13.3921H21.747Z" fill="#FFFFFE"/>
<path fill-rule="evenodd" clip-rule="evenodd" d="M19.9372 15.0827C19.7421 15.1451 19.5899 15.1722 19.4249 15.1722C19.0603 15.1722 18.8611 14.9595 18.8611 14.5684C18.8562 14.4465 18.9138 14.1274 18.959 13.8355C19.0002 13.5784 19.2683 11.9594 19.2683 11.9594H19.9772L19.8944 12.3754H20.2583L20.1614 13.036H19.7963C19.7139 13.5592 19.5964 14.2101 19.5951 14.2965C19.5951 14.4387 19.6698 14.5002 19.8395 14.5002C19.9207 14.5002 19.9836 14.4921 20.0317 14.4743L19.9372 15.0827Z" fill="#FFFFFE"/>
<path fill-rule="evenodd" clip-rule="evenodd" d="M17.1581 13.2059C17.1581 13.554 17.3244 13.7933 17.7014 13.9737C17.9902 14.1115 18.0348 14.1522 18.0348 14.2772C18.0348 14.4485 17.9075 14.5258 17.6252 14.5258C17.4124 14.5258 17.2145 14.4923 16.9861 14.4177C16.9861 14.4177 16.8926 15.0234 16.8882 15.052C17.0503 15.0881 17.1949 15.1209 17.6303 15.1337C18.383 15.1337 18.7306 14.8431 18.7306 14.2148C18.7306 13.8369 18.5851 13.6153 18.2278 13.4489C17.9288 13.3093 17.8944 13.2785 17.8944 13.15C17.8944 13.0014 18.0129 12.9249 18.2435 12.9249C18.3833 12.9249 18.5747 12.9407 18.756 12.9666L18.8575 12.3291C18.6728 12.2995 18.3929 12.2753 18.2297 12.2753C17.4318 12.2753 17.1557 12.698 17.1581 13.2059Z" fill="#FFFFFE"/>
<path fill-rule="evenodd" clip-rule="evenodd" d="M16.2694 13.8613C16.1947 13.8525 16.1617 13.8501 16.1103 13.8501C15.706 13.8501 15.5014 13.9906 15.5014 14.2683C15.5014 14.4393 15.6012 14.5487 15.7571 14.5487C16.0477 14.5487 16.2571 14.2681 16.2694 13.8613ZM16.7881 15.0859C16.6931 15.0859 16.1973 15.0859 16.1973 15.0859L16.2108 14.8013C16.0305 15.0261 15.79 15.1337 15.4633 15.1337C15.0767 15.1337 14.8118 14.8272 14.8118 14.3825C14.8118 13.7128 15.2726 13.3229 16.0639 13.3229C16.1449 13.3229 16.2485 13.3304 16.3546 13.3443C16.3767 13.2533 16.3825 13.2147 16.3825 13.1654C16.3825 12.9836 16.2582 12.9158 15.9252 12.9158C15.576 12.9116 15.2884 12.9998 15.1701 13.0391C15.1775 12.9936 15.269 12.4209 15.269 12.4209C15.6244 12.3152 15.8588 12.2753 16.1226 12.2753C16.7351 12.2753 17.0594 12.5545 17.0588 13.0815C17.0601 13.2228 17.037 13.3975 17.0012 13.6263C16.9392 14.0241 16.8063 14.8785 16.7881 15.0859Z" fill="#FFFFFE"/>
<path fill-rule="evenodd" clip-rule="evenodd" d="M14.4533 15.1289H13.7401L14.1488 12.5304L13.2365 15.1289H12.7504L12.6903 12.5454L12.2608 15.1289H11.5933L12.1509 11.7487H13.1766L13.2051 13.8412L13.8972 11.7487H15.0049L14.4533 15.1289Z" fill="#FFFFFE"/>
</svg>
