<svg width="43" height="27" viewBox="0 0 43 27" fill="none" xmlns="http://www.w3.org/2000/svg">
<path fill-rule="evenodd" clip-rule="evenodd" d="M0.0198975 1.215C0.0198975 0.543974 0.563872 0 1.2349 0H41.3163C41.9873 0 42.5313 0.543974 42.5313 1.215V25.5373C42.5313 26.2083 41.9873 26.7523 41.3163 26.7523H1.2349C0.563872 26.7523 0.0198975 26.2083 0.0198975 25.5373V1.215Z" fill="#2890C3"/>
<path fill-rule="evenodd" clip-rule="evenodd" d="M27.7452 16.548L27.29 19.4865C27.2811 19.5434 27.3244 19.5949 27.3812 19.5949H27.8391C27.9149 19.5949 27.9795 19.5389 27.9913 19.4628L28.4402 16.5771C28.449 16.5203 28.4057 16.4688 28.3488 16.4688H27.8365C27.7909 16.4688 27.7522 16.5023 27.7452 16.548Z" fill="white"/>
<path fill-rule="evenodd" clip-rule="evenodd" d="M26.3791 18.5586C26.3278 18.8664 26.0869 19.0732 25.7796 19.0732C25.6256 19.0732 25.5022 19.0229 25.423 18.9277C25.3443 18.8334 25.3149 18.6989 25.3398 18.5493C25.3875 18.244 25.6323 18.0307 25.9349 18.0307C26.0858 18.0307 26.2082 18.0815 26.289 18.1775C26.3704 18.2743 26.4024 18.4095 26.3791 18.5586ZM27.1193 17.5096H26.5882C26.5427 17.5096 26.5039 17.5432 26.4968 17.5889L26.4735 17.7395L26.4363 17.6849C26.3213 17.5156 26.0649 17.4589 25.8089 17.4589C25.2222 17.4589 24.721 17.9101 24.6234 18.5429C24.5727 18.8586 24.6448 19.1603 24.8212 19.3708C24.9832 19.5642 25.2145 19.6447 25.49 19.6447C25.9631 19.6447 26.2254 19.3366 26.2254 19.3366L26.2016 19.4863C26.1928 19.5432 26.2361 19.5947 26.293 19.5947H26.7712C26.8472 19.5947 26.9116 19.5388 26.9235 19.4628L27.2107 17.618C27.2195 17.5612 27.1761 17.5096 27.1193 17.5096Z" fill="white"/>
<path fill-rule="evenodd" clip-rule="evenodd" d="M23.9322 17.5226C23.8715 17.9266 23.5675 17.9266 23.2734 17.9266H23.106L23.2234 17.1723C23.2305 17.1268 23.2692 17.0933 23.3147 17.0933H23.3915C23.5917 17.0933 23.7807 17.0933 23.8783 17.2089C23.9366 17.2781 23.9542 17.3809 23.9322 17.5226ZM23.8042 16.4686H22.695C22.6191 16.4686 22.5546 16.5246 22.5428 16.6007L22.0943 19.4864C22.0854 19.5432 22.1289 19.5947 22.1855 19.5947H22.7547C22.8077 19.5947 22.8529 19.5556 22.8612 19.5025L22.9885 18.6843C23.0002 18.6082 23.0649 18.5522 23.1406 18.5522H23.4916C24.2222 18.5522 24.6439 18.1935 24.754 17.4824C24.8036 17.1716 24.756 16.9273 24.6126 16.7562C24.4549 16.5682 24.1753 16.4686 23.8042 16.4686Z" fill="white"/>
<path fill-rule="evenodd" clip-rule="evenodd" d="M22.0371 17.5096H21.5032C21.4522 17.5096 21.4044 17.5353 21.3758 17.5783L20.6394 18.6787L20.3273 17.6212C20.3077 17.5551 20.2477 17.5096 20.1796 17.5096H19.6549C19.5916 17.5096 19.5469 17.5729 19.5674 17.6337L20.1551 19.3844L19.6023 20.1759C19.559 20.238 19.6027 20.3239 19.6778 20.3239H20.2111C20.2615 20.3239 20.3089 20.2988 20.3378 20.2568L22.113 17.6569C22.1555 17.5947 22.1117 17.5096 22.0371 17.5096Z" fill="white"/>
<path fill-rule="evenodd" clip-rule="evenodd" d="M18.4681 18.5586C18.4168 18.8664 18.1759 19.0732 17.8686 19.0732C17.7146 19.0732 17.5912 19.0229 17.512 18.9277C17.4335 18.8334 17.4039 18.6989 17.4287 18.5493C17.4765 18.244 17.7213 18.0307 18.0239 18.0307C18.1748 18.0307 18.2972 18.0815 18.378 18.1775C18.4594 18.2743 18.4914 18.4095 18.4681 18.5586ZM19.2083 17.5096H18.6772C18.6317 17.5096 18.5929 17.5432 18.5858 17.5889L18.5625 17.7395L18.5254 17.6849C18.4103 17.5156 18.1539 17.4589 17.8979 17.4589C17.3112 17.4589 16.81 17.9101 16.7124 18.5429C16.6617 18.8586 16.7337 19.1603 16.9102 19.3708C17.0722 19.5642 17.3035 19.6447 17.579 19.6447C18.0521 19.6447 18.3144 19.3366 18.3144 19.3366L18.2906 19.4863C18.2818 19.5432 18.3251 19.5947 18.382 19.5947H18.8602C18.9361 19.5947 19.0006 19.5388 19.0125 19.4628L19.2997 17.618C19.3085 17.5612 19.2651 17.5096 19.2083 17.5096Z" fill="white"/>
<path fill-rule="evenodd" clip-rule="evenodd" d="M16.0212 17.5226C15.9605 17.9266 15.6565 17.9266 15.3623 17.9266H15.195L15.3124 17.1723C15.3194 17.1268 15.3582 17.0933 15.4037 17.0933H15.4805C15.6807 17.0933 15.8697 17.0933 15.9673 17.2089C16.0256 17.2781 16.0432 17.3809 16.0212 17.5226ZM15.8932 16.4686H14.784C14.7081 16.4686 14.6436 16.5246 14.6317 16.6007L14.1833 19.4864C14.1744 19.5432 14.2177 19.5947 14.2745 19.5947H14.8042C14.88 19.5947 14.9445 19.5387 14.9564 19.4628L15.0775 18.6843C15.0892 18.6082 15.1538 18.5522 15.2296 18.5522H15.5806C16.3112 18.5522 16.7329 18.1935 16.843 17.4824C16.8926 17.1716 16.845 16.9273 16.7016 16.7562C16.5438 16.5682 16.2643 16.4686 15.8932 16.4686Z" fill="white"/>
<path fill-rule="evenodd" clip-rule="evenodd" d="M24.3147 6.64598C23.8992 6.16385 23.1481 5.95715 22.1872 5.95715H19.3985C19.2019 5.95715 19.0348 6.1027 19.004 6.30005L17.8429 13.797C17.8198 13.9449 17.9322 14.0788 18.0794 14.0788H19.8011L20.2335 11.2868L20.2201 11.3743C20.2508 11.1769 20.4167 11.0314 20.613 11.0314H21.4311C23.0384 11.0314 24.2968 10.3668 24.6644 8.44436C24.6754 8.3875 24.6848 8.33216 24.693 8.27809C24.6466 8.25307 24.6466 8.25307 24.693 8.27809C24.8025 7.56753 24.6922 7.08389 24.3147 6.64598Z" fill="white"/>
<path fill-rule="evenodd" clip-rule="evenodd" d="M24.9301 8.50256C24.9217 8.55667 24.9125 8.61153 24.9016 8.66815C24.5345 10.5825 23.2778 11.2446 21.6728 11.2446H20.8556C20.6595 11.2446 20.4939 11.3895 20.4635 11.5861L19.9263 15.0433C19.9062 15.1721 20.0044 15.2889 20.1328 15.2889H21.5821C21.7536 15.2889 21.8996 15.162 21.9264 14.9902L21.9405 14.9152L22.2137 13.1576L22.2313 13.0605C22.2581 12.8886 22.4041 12.7618 22.5756 12.7618H22.7925C24.1964 12.7618 25.2957 12.1827 25.617 10.508C25.7511 9.80814 25.6817 9.2238 25.327 8.81335C25.2194 8.68904 25.0858 8.58636 24.9301 8.50256Z" fill="white"/>
<path fill-rule="evenodd" clip-rule="evenodd" d="M24.3017 8.09933C24.2457 8.08272 24.1879 8.06762 24.1284 8.05429C24.069 8.04095 24.0075 8.02912 23.9445 8.0188C23.7239 7.98257 23.483 7.96545 23.2242 7.96545H21.0412C20.9874 7.96545 20.9363 7.97779 20.8907 8.00018C20.7898 8.04925 20.7152 8.14589 20.6969 8.26442L20.2329 11.2513L20.2195 11.3383C20.25 11.1418 20.4156 10.9969 20.6116 10.9969H21.4289C23.0338 10.9969 24.2905 10.335 24.6576 8.42044C24.6686 8.36382 24.6777 8.30896 24.6862 8.25485C24.5932 8.20503 24.4926 8.16199 24.3842 8.1255C24.3572 8.11645 24.3297 8.10764 24.3017 8.09933Z" fill="white"/>
</svg>
