<svg width="43" height="27" viewBox="0 0 43 27" fill="none" xmlns="http://www.w3.org/2000/svg">
<path fill-rule="evenodd" clip-rule="evenodd" d="M0 1.215C0 0.543974 0.543974 0 1.215 0H41.2964C41.9674 0 42.5114 0.543974 42.5114 1.215V25.2941C42.5114 25.9651 41.9674 26.5091 41.2964 26.5091H1.215C0.543975 26.5091 0 25.9651 0 25.2941V1.215Z" fill="#0066B2"/>
<path fill-rule="evenodd" clip-rule="evenodd" d="M31.2039 15.6122C31.2039 15.4224 31.3571 15.2686 31.546 15.2686C31.7352 15.2686 31.8881 15.4224 31.8881 15.6122C31.8881 15.8018 31.7352 15.9558 31.546 15.9558C31.3571 15.9558 31.2039 15.8018 31.2039 15.6122ZM31.546 15.8731C31.69 15.8731 31.8062 15.7562 31.8062 15.6122C31.8062 15.4676 31.69 15.3511 31.546 15.3511C31.4026 15.3511 31.2862 15.4676 31.2862 15.6122C31.2862 15.7562 31.4026 15.8731 31.546 15.8731ZM31.4999 15.7628H31.4299V15.461H31.5568C31.5833 15.461 31.6101 15.4614 31.6335 15.4762C31.6578 15.4933 31.6715 15.5217 31.6715 15.5516C31.6715 15.5861 31.652 15.6181 31.6198 15.6298L31.6747 15.7628H31.5969L31.5513 15.6433H31.4999V15.7628ZM31.4999 15.5917H31.5384C31.553 15.5917 31.5686 15.593 31.5813 15.5861C31.5928 15.5785 31.5989 15.5644 31.5989 15.551C31.5989 15.5399 31.5918 15.5264 31.582 15.5205C31.5696 15.5133 31.5501 15.5148 31.5371 15.5148H31.4999V15.5917Z" fill="white"/>
<path fill-rule="evenodd" clip-rule="evenodd" d="M29.5152 15.9773H31.0336L29.7098 9.63708H28.3805C27.7664 9.63708 27.6166 10.1094 27.6166 10.1094L25.1505 15.9773H26.8741L27.2188 15.0357H29.3214L29.5152 15.9773ZM27.6955 13.7347L28.5643 11.3615L29.0533 13.7347H27.6955Z" fill="white"/>
<path fill-rule="evenodd" clip-rule="evenodd" d="M25.2795 11.1617L25.5157 9.80009C25.5157 9.80009 24.7872 9.52368 24.0282 9.52368C23.2075 9.52368 21.2585 9.88172 21.2585 11.6226C21.2585 13.2609 23.5462 13.2813 23.5462 14.141C23.5462 15.0012 21.4944 14.8477 20.8169 14.3051L20.5713 15.7283C20.5713 15.7283 21.3095 16.0866 22.4382 16.0866C23.5664 16.0866 25.2695 15.5031 25.2695 13.9161C25.2695 12.2676 22.9613 12.1137 22.9613 11.3971C22.9613 10.6802 24.5721 10.7724 25.2795 11.1617Z" fill="white"/>
<path fill-rule="evenodd" clip-rule="evenodd" d="M19.5521 15.9773H17.8984L18.9319 9.63708H20.5862L19.5521 15.9773Z" fill="white"/>
<path fill-rule="evenodd" clip-rule="evenodd" d="M14.9305 13.9979L16.507 9.63708H18.2871L15.6557 15.9773H13.9327L12.4962 10.469C11.5632 9.90972 10.7661 9.74431 10.7659 9.74431C10.7661 9.74431 12.019 10.0035 13.2207 10.9741C14.3696 11.9025 14.7437 13.0591 14.7437 13.0591V13.0588L14.9305 13.9979Z" fill="white"/>
<path fill-rule="evenodd" clip-rule="evenodd" d="M14.7437 13.0591L14.1872 10.208C14.1872 10.208 14.1203 9.63708 13.4028 9.63708H10.7964L10.7659 9.74431C10.7661 9.74431 12.019 10.0035 13.2207 10.9741C14.3696 11.9025 14.7437 13.0591 14.7437 13.0591Z" fill="#F9A533"/>
</svg>
