<svg width="70" height="34" viewBox="0 0 70 34" fill="none" xmlns="http://www.w3.org/2000/svg">
<path fill-rule="evenodd" clip-rule="evenodd" d="M23.0379 25.3964C23.9146 24.5196 25.1273 23.9757 26.4677 23.9757C27.8052 23.9757 29.0208 24.5197 29.9005 25.3964C30.7773 26.2732 31.3212 27.4858 31.3212 28.8263C31.3212 30.1667 30.7803 31.3793 29.9005 32.2561C29.0208 33.1329 27.8082 33.6768 26.4677 33.6768C25.1273 33.6768 23.9146 33.1328 23.0379 32.2561C22.1611 31.3793 21.6172 30.1667 21.6172 28.8263C21.6172 27.4858 22.1611 26.2732 23.0379 25.3964ZM24.3902 28.8263C24.3902 29.9705 25.3235 30.9038 26.4677 30.9038C27.612 30.9038 28.5423 29.9705 28.5453 28.8263C28.5453 27.682 27.612 26.7487 26.4677 26.7487C25.3235 26.7487 24.3902 27.682 24.3902 28.8263Z" fill="#EA3A3D"/>
<path d="M31.9369 13.7101C31.9369 15.4696 29.2976 15.4696 29.2976 13.7101C29.2976 11.9506 31.9369 11.9506 31.9369 13.7101Z" fill="#EA3A3D"/>
<path fill-rule="evenodd" clip-rule="evenodd" d="M68.3807 15.3504C68.9692 15.9447 69.2635 16.664 69.2635 17.4992L69.2571 24.7837C69.2571 26.4035 67.9374 27.7261 66.3176 27.7261H64.888C64.6681 26.5848 64.1064 25.5654 63.3158 24.7748C62.2785 23.7375 60.8459 23.0956 59.2618 23.0956C57.6777 23.0956 56.2451 23.7375 55.2078 24.7748C54.4172 25.5654 53.8584 26.5848 53.6355 27.7261H32.0938C31.8738 26.5848 31.3122 25.5654 30.5215 24.7748C29.4842 23.7375 28.0517 23.0956 26.4675 23.0956C24.8834 23.0956 23.4508 23.7375 22.4136 24.7748C21.6229 25.5654 21.0642 26.5848 20.8413 27.7261H17.5422V8.8771H9.1042C8.61673 8.8771 8.22144 8.48181 8.22144 7.99434C8.22144 7.50688 8.61677 7.11158 9.1042 7.11158L17.5422 7.11456V0.326153L52.5187 0.323181V4.09481H53.0418C55.8504 4.09481 58.2697 5.10532 60.2432 7.10557L68.3807 15.3504ZM52.6431 6.84703V13.9683L63.6518 13.9683L57.88 8.1132C57.0537 7.27502 56.0432 6.85297 54.8662 6.85L52.6431 6.84703Z" fill="#EA3A3D"/>
<path fill-rule="evenodd" clip-rule="evenodd" d="M55.836 25.3964C56.7127 24.5196 57.9254 23.9757 59.2658 23.9757C60.6063 23.9757 61.8189 24.5197 62.6957 25.3964C63.5725 26.2732 64.1164 27.4858 64.1164 28.8263C64.1164 30.1667 63.5724 31.3793 62.6957 32.2561C61.8189 33.1329 60.6063 33.6768 59.2658 33.6768C57.9254 33.6768 56.7127 33.1358 55.836 32.2561C54.9592 31.3793 54.4153 30.1667 54.4153 28.8263C54.4153 27.4858 54.9592 26.2732 55.836 25.3964ZM57.2418 28.8263C57.2418 29.9705 58.1721 30.9038 59.3164 30.9038C60.4606 30.9038 61.3939 29.9705 61.3939 28.8263C61.3939 27.682 60.4606 26.7487 59.3164 26.7487C58.175 26.7487 57.2418 27.682 57.2418 28.8263Z" fill="#EA3A3D"/>
<path d="M11.2328 14.0159C11.2328 13.5285 10.8375 13.1332 10.35 13.1332H1.63276C1.14533 13.1332 0.75 13.5285 0.75 14.0159C0.75 14.5034 1.14529 14.8987 1.63276 14.8987H10.35C10.8375 14.8987 11.2328 14.5034 11.2328 14.0159Z" fill="#EA3A3D"/>
<path d="M14.3479 19.931H3.55268C3.06525 19.931 2.66992 20.3263 2.66992 20.8137C2.66992 21.3012 3.06522 21.6965 3.55268 21.6965H14.3479C14.8353 21.6965 15.2307 21.3012 15.2307 20.8137C15.2307 20.3263 14.8354 19.931 14.3479 19.931Z" fill="#EA3A3D"/>
</svg>
