<svg width="28" height="28" viewBox="0 0 28 28" fill="none" xmlns="http://www.w3.org/2000/svg">
<path d="M10.3151 24.5C7.48452 24.5 4.8459 23.6767 2.625 22.2562C4.51062 22.3782 7.83831 22.086 9.90813 20.1117C6.79444 19.9688 5.39023 17.5808 5.20707 16.5602C5.47163 16.6623 6.73339 16.7847 7.44567 16.499C3.86391 15.6009 3.31444 12.4577 3.43654 11.4984C4.10812 11.9678 5.24777 12.1311 5.69549 12.0903C2.35794 9.70221 3.55865 6.10991 4.14882 5.33431C6.54397 8.65258 10.1336 10.5162 14.5743 10.6199C14.4906 10.2527 14.4464 9.87037 14.4464 9.47769C14.4464 6.65955 16.7242 4.375 19.5341 4.375C21.0022 4.375 22.3251 4.99866 23.2537 5.99623C24.2348 5.76634 25.7113 5.22818 26.4331 4.7628C26.0692 6.06909 24.9366 7.1588 24.2514 7.56269C24.2458 7.54889 24.2571 7.57643 24.2514 7.56269C24.8533 7.47166 26.4817 7.1587 27.125 6.72224C26.8069 7.45609 25.606 8.67626 24.6205 9.35937C24.8039 17.4458 18.6169 24.5 10.3151 24.5Z" fill="#1D2227"/>
</svg>
