<svg width="104" height="28" viewBox="0 0 104 28" fill="none" xmlns="http://www.w3.org/2000/svg">
<rect x="1.75" y="1.75" width="24.5" height="24.5" rx="6" fill="url(#paint0_radial_14_1900)"/>
<rect x="1.75" y="1.75" width="24.5" height="24.5" rx="6" fill="#1D2227"/>
<rect x="1.75" y="1.75" width="24.5" height="24.5" rx="6" fill="#1D2227"/>
<path d="M20.125 9.1875C20.125 9.91237 19.5374 10.5 18.8125 10.5C18.0876 10.5 17.5 9.91237 17.5 9.1875C17.5 8.46263 18.0876 7.875 18.8125 7.875C19.5374 7.875 20.125 8.46263 20.125 9.1875Z" fill="white"/>
<path fill-rule="evenodd" clip-rule="evenodd" d="M14 18.375C16.4162 18.375 18.375 16.4162 18.375 14C18.375 11.5838 16.4162 9.625 14 9.625C11.5838 9.625 9.625 11.5838 9.625 14C9.625 16.4162 11.5838 18.375 14 18.375ZM14 16.625C15.4497 16.625 16.625 15.4497 16.625 14C16.625 12.5503 15.4497 11.375 14 11.375C12.5503 11.375 11.375 12.5503 11.375 14C11.375 15.4497 12.5503 16.625 14 16.625Z" fill="white"/>
<path fill-rule="evenodd" clip-rule="evenodd" d="M5.25 13.65C5.25 10.7097 5.25 9.23959 5.82222 8.11655C6.32555 7.1287 7.1287 6.32555 8.11655 5.82222C9.23959 5.25 10.7097 5.25 13.65 5.25H14.35C17.2903 5.25 18.7604 5.25 19.8835 5.82222C20.8713 6.32555 21.6744 7.1287 22.1778 8.11655C22.75 9.23959 22.75 10.7097 22.75 13.65V14.35C22.75 17.2903 22.75 18.7604 22.1778 19.8835C21.6744 20.8713 20.8713 21.6744 19.8835 22.1778C18.7604 22.75 17.2903 22.75 14.35 22.75H13.65C10.7097 22.75 9.23959 22.75 8.11655 22.1778C7.1287 21.6744 6.32555 20.8713 5.82222 19.8835C5.25 18.7604 5.25 17.2903 5.25 14.35V13.65ZM13.65 7H14.35C15.849 7 16.868 7.00136 17.6557 7.06572C18.4229 7.1284 18.8153 7.24202 19.089 7.38148C19.7475 7.71703 20.283 8.25247 20.6185 8.91103C20.758 9.18473 20.8716 9.57709 20.9343 10.3443C20.9986 11.132 21 12.151 21 13.65V14.35C21 15.849 20.9986 16.868 20.9343 17.6557C20.8716 18.4229 20.758 18.8153 20.6185 19.089C20.283 19.7475 19.7475 20.283 19.089 20.6185C18.8153 20.758 18.4229 20.8716 17.6557 20.9343C16.868 20.9986 15.849 21 14.35 21H13.65C12.151 21 11.132 20.9986 10.3443 20.9343C9.57709 20.8716 9.18473 20.758 8.91103 20.6185C8.25247 20.283 7.71703 19.7475 7.38148 19.089C7.24202 18.8153 7.1284 18.4229 7.06572 17.6557C7.00136 16.868 7 15.849 7 14.35V13.65C7 12.151 7.00136 11.132 7.06572 10.3443C7.1284 9.57709 7.24202 9.18473 7.38148 8.91103C7.71703 8.25247 8.25247 7.71703 8.91103 7.38148C9.18473 7.24202 9.57709 7.1284 10.3443 7.06572C11.132 7.00136 12.151 7 13.65 7Z" fill="white"/>
<circle cx="52" cy="14" r="12.25" fill="#1D2227"/>
<path d="M56.562 17.7464L57.1061 14.2888H53.7021V12.0461C53.7021 11.1 54.1767 10.1772 55.7014 10.1772H57.25V7.23362C57.25 7.23362 55.8452 7 54.5027 7C51.698 7 49.8665 8.65632 49.8665 11.6536V14.2888H46.75V17.7464H49.8665V26.1052C50.4921 26.201 51.1322 26.25 51.7843 26.25C52.4363 26.25 53.0764 26.201 53.7021 26.1052V17.7464H56.562Z" fill="white"/>
<path d="M86.3151 24.5C83.4845 24.5 80.8459 23.6767 78.625 22.2562C80.5106 22.3782 83.8383 22.086 85.9081 20.1117C82.7944 19.9688 81.3902 17.5808 81.2071 16.5602C81.4716 16.6623 82.7334 16.7847 83.4457 16.499C79.8639 15.6009 79.3144 12.4577 79.4365 11.4984C80.1081 11.9678 81.2478 12.1311 81.6955 12.0903C78.3579 9.70221 79.5586 6.10991 80.1488 5.33431C82.544 8.65258 86.1336 10.5162 90.5743 10.6199C90.4906 10.2527 90.4464 9.87037 90.4464 9.47769C90.4464 6.65955 92.7242 4.375 95.5341 4.375C97.0022 4.375 98.3251 4.99866 99.2537 5.99623C100.235 5.76634 101.711 5.22818 102.433 4.7628C102.069 6.06909 100.937 7.1588 100.251 7.56269C100.246 7.54889 100.257 7.57643 100.251 7.56269C100.853 7.47166 102.482 7.1587 103.125 6.72224C102.807 7.45609 101.606 8.67626 100.62 9.35937C100.804 17.4458 94.6169 24.5 86.3151 24.5Z" fill="#1D2227"/>
<defs>
<radialGradient id="paint0_radial_14_1900" cx="0" cy="0" r="1" gradientUnits="userSpaceOnUse" gradientTransform="translate(10.5 20.125) rotate(-55.3758) scale(22.3297)">
<stop stop-color="#B13589"/>
<stop offset="0.79309" stop-color="#C62F94"/>
<stop offset="1" stop-color="#8A3AC8"/>
</radialGradient>
</defs>
</svg>
