<svg width="24" height="24" viewBox="0 0 24 24" fill="none" xmlns="http://www.w3.org/2000/svg">
<g id="star-sharp">
<path id="Icon" d="M11.2443 4.17388C11.4758 3.50796 11.5915 3.175 11.7626 3.08273C11.9108 3.00286 12.0891 3.00286 12.2372 3.08273C12.4084 3.175 12.5241 3.50796 12.7556 4.17388L14.2859 8.57627C14.3517 8.7658 14.3847 8.86056 14.444 8.93113C14.4965 8.99347 14.5633 9.04206 14.6388 9.07266C14.7243 9.10731 14.8246 9.10935 15.0252 9.11344L19.685 9.2084C20.3899 9.22276 20.7423 9.22994 20.8829 9.3642C21.0047 9.48039 21.0598 9.65002 21.0296 9.81556C20.9947 10.0068 20.7138 10.2198 20.152 10.6457L16.438 13.4615C16.2781 13.5827 16.1981 13.6434 16.1494 13.7216C16.1063 13.7907 16.0807 13.8694 16.075 13.9506C16.0684 14.0426 16.0975 14.1386 16.1556 14.3307L17.5052 18.7918C17.7094 19.4665 17.8114 19.8039 17.7272 19.9792C17.6543 20.1309 17.51 20.2357 17.3433 20.2582C17.1506 20.2841 16.8612 20.0828 16.2826 19.6801L12.4569 17.0179C12.2922 16.9033 12.2098 16.846 12.1203 16.8238C12.0413 16.8042 11.9586 16.8042 11.8795 16.8238C11.79 16.846 11.7077 16.9033 11.543 17.0179L7.71732 19.6801C7.13864 20.0828 6.8493 20.2841 6.6566 20.2582C6.48982 20.2357 6.34553 20.1309 6.27264 19.9792C6.18842 19.8039 6.2905 19.4666 6.49465 18.7918L7.84429 14.3307C7.9024 14.1386 7.93145 14.0426 7.92491 13.9506C7.91913 13.8694 7.89359 13.7907 7.8505 13.7216C7.80173 13.6434 7.72178 13.5827 7.56189 13.4615L3.84785 10.6457C3.28605 10.2198 3.00515 10.0068 2.97028 9.81556C2.94009 9.65002 2.99521 9.48039 3.11693 9.3642C3.25758 9.22994 3.61001 9.22276 4.31486 9.2084L8.97466 9.11344C9.17527 9.10935 9.27558 9.10731 9.36104 9.07266C9.43653 9.04206 9.5034 8.99347 9.55584 8.93113C9.6152 8.86056 9.64814 8.7658 9.71401 8.57627L11.2443 4.17388Z" fill="#FFB536"/>
</g>
</svg>
