<svg width="117" height="22" viewBox="0 0 117 22" fill="none" xmlns="http://www.w3.org/2000/svg">
<path fill-rule="evenodd" clip-rule="evenodd" d="M37.6481 0.821129C35.2277 0.821129 34.0887 1.06029 32.8262 1.52164L32.6014 1.59954L33.9703 3.91517L34.1338 3.85675C35.0649 3.49368 36.093 3.37045 38.016 3.37045H40.0591C43.0472 3.37045 44.7586 4.78719 44.7586 7.28162V14.9485C44.7586 17.4412 43.0472 18.8599 40.0591 18.8599H36.7287C33.6663 18.8599 32.1722 17.6909 32.1722 15.26C32.1722 12.8482 33.6661 11.6795 36.7287 11.6795H41.3667V9.11085H36.5857C32.0402 9.11085 29.4344 11.3626 29.4344 15.2795C29.4344 19.0666 32.175 21.4285 36.5857 21.4285H40.1817C45.2012 21.4285 47.4964 18.2377 47.4964 15.2795V6.95101C47.4964 3.99307 45.2012 0.821243 40.1817 0.821243H37.6481V0.821129ZM57.876 0.821128C52.8559 0.821128 50.5612 3.99307 50.5612 6.95078V15.2793C50.5612 18.2377 52.8558 21.4284 57.8759 21.4284H60.9817C63.5388 21.4284 65.2146 21.0727 66.5596 20.2413L66.723 20.1246L65.1702 17.9646L65.0068 18.0619C64.0032 18.641 62.7331 18.8598 60.6344 18.8598H57.9985C54.9679 18.8598 53.299 17.4778 53.299 14.9484V7.28162C53.299 4.75086 54.9687 3.37023 57.9985 3.37023H60.6342C62.7303 3.37023 63.9992 3.60779 65.0067 4.18747L65.1701 4.28473L66.7229 2.1053L66.5595 2.00804C65.2145 1.17736 63.5411 0.821014 60.9816 0.821014H57.876V0.821128ZM75.7949 0.821129C70.7586 0.821129 68.4599 3.99307 68.4599 6.95078V15.2793C68.4599 18.2377 70.7544 21.4284 75.7746 21.4284H79.3706C84.3913 21.4284 86.6648 18.2376 86.6648 15.2793V6.9509C86.6648 3.99352 84.3694 0.821129 79.3297 0.821129H75.7949ZM97.0239 0.860077C92.6922 0.860077 89.8931 3.20179 89.8931 6.81458V21.3312H92.631V7.14564C92.631 4.63538 94.1036 3.4094 97.1466 3.4094C100.033 3.4094 101.621 4.661 101.621 6.91206V21.3312H104.359V6.91218C104.359 4.661 105.948 3.4094 108.834 3.4094C111.878 3.4094 113.37 4.63549 113.37 7.14553V21.3312H116.087V6.81458C116.087 3.20168 113.286 0.860077 108.956 0.860077C106.066 0.860077 104.321 1.54054 102.99 3.17571C101.661 1.54054 99.9104 0.860077 97.0239 0.860077ZM0.686401 0.957336V15.4739C0.686401 19.0861 3.48564 21.4284 7.8173 21.4284C10.704 21.4284 12.4542 20.7498 13.7835 19.1127C15.1132 20.7498 16.8624 21.4284 19.7498 21.4284C24.0794 21.4284 26.8806 19.0862 26.8806 15.4739V0.957336H24.163V15.1431C24.163 17.652 22.6701 18.8599 19.6271 18.8599C16.7417 18.8599 15.1524 17.6258 15.1524 15.3766V0.957336H12.4349V15.3765C12.4349 17.625 10.8463 18.8598 7.9602 18.8598C4.91737 18.8598 3.4243 17.6519 3.4243 15.143V0.95745H0.686401V0.957336ZM75.8971 3.37034H79.2274C82.2155 3.37034 83.9269 4.78708 83.9269 7.28162V14.9485C83.9269 17.4412 82.2155 18.8599 79.2274 18.8599H75.8971C72.8653 18.8599 71.1977 17.4779 71.1977 14.9485V7.28174C71.1977 4.78708 72.9098 3.37034 75.8971 3.37034Z" fill="#161D25"/>
</svg>
