<?xml version="1.0" encoding="UTF-8"?>
<!DOCTYPE svg PUBLIC "-//W3C//DTD SVG 1.1//EN" "http://www.w3.org/Graphics/SVG/1.1/DTD/svg11.dtd">
<!-- Creator: CorelDRAW 2018 (64-Bit Evaluation Version) -->
<svg xmlns="http://www.w3.org/2000/svg" xml:space="preserve" width="297mm" height="228.776mm" version="1.1" style="shape-rendering:geometricPrecision; text-rendering:geometricPrecision; image-rendering:optimizeQuality; fill-rule:evenodd; clip-rule:evenodd"
viewBox="0 0 29700 22877.6"
 xmlns:xlink="http://www.w3.org/1999/xlink">
 <defs>
  <style type="text/css">
   <![CDATA[
    .fil4 {fill:#FCD35F;fill-rule:nonzero}
    .fil23 {fill:#FBC935;fill-rule:nonzero}
    .fil16 {fill:#F5A627;fill-rule:nonzero}
    .fil18 {fill:#F0891A;fill-rule:nonzero}
    .fil14 {fill:#E8443E;fill-rule:nonzero}
    .fil5 {fill:#FDFDF5;fill-rule:nonzero}
    .fil9 {fill:#FBFBF2;fill-rule:nonzero}
    .fil15 {fill:#E42229;fill-rule:nonzero}
    .fil25 {fill:#EFEDE0;fill-rule:nonzero}
    .fil27 {fill:#E6F0E6;fill-rule:nonzero}
    .fil26 {fill:#D7E0D4;fill-rule:nonzero}
    .fil7 {fill:#AFD1D2;fill-rule:nonzero}
    .fil24 {fill:#93C0C4;fill-rule:nonzero}
    .fil22 {fill:#79926A;fill-rule:nonzero}
    .fil21 {fill:#778A64;fill-rule:nonzero}
    .fil20 {fill:#77A490;fill-rule:nonzero}
    .fil19 {fill:#749A85;fill-rule:nonzero}
    .fil6 {fill:#63B6BA;fill-rule:nonzero}
    .fil1 {fill:#19929A;fill-rule:nonzero}
    .fil17 {fill:#2B6E54;fill-rule:nonzero}
    .fil0 {fill:#0A868D;fill-rule:nonzero}
    .fil29 {fill:#067279;fill-rule:nonzero}
    .fil28 {fill:#0D676E;fill-rule:nonzero}
    .fil2 {fill:#0A5C60;fill-rule:nonzero}
    .fil3 {fill:#016D75;fill-rule:nonzero}
    .fil13 {fill:#12444A;fill-rule:nonzero}
    .fil10 {fill:#143A3F;fill-rule:nonzero}
    .fil11 {fill:#182F33;fill-rule:nonzero}
    .fil8 {fill:#005358;fill-rule:nonzero}
    .fil30 {fill:#01474B;fill-rule:nonzero}
    .fil12 {fill:#034044;fill-rule:nonzero}
    .fil31 {fill:#0C373C;fill-rule:nonzero}
   ]]>
  </style>
 </defs>
 <g id="Layer_x0020_1">
  <metadata id="CorelCorpID_0Corel-Layer"/>
  <g id="_2465483564240">
   <polygon class="fil0" points="-0,22877.6 29700,22877.6 29700,0 -0,0 "/>
   <path class="fil1" d="M25913.12 9282.06c783.74,3887.83 -3513.24,8033.81 -9597.54,9260.31 -6084.31,1226.49 -11651.95,-930.97 -12435.66,-4818.81 -783.72,-3887.83 3513.25,-8033.81 9597.55,-9260.31 6084.3,-1226.48 11651.94,930.98 12435.65,4818.81z"/>
   <path class="fil2" d="M27488.27 7659.95c-48.47,14.24 -104.52,10.53 -162.06,-22.28 -165.34,-94.4 -321.35,-219.48 -327.91,-224.77 -19.86,-16 -23,-45.1 -7.01,-64.97 15.98,-19.89 45.08,-23.04 64.99,-7.08 1.55,1.29 156.99,125.88 315.79,216.49 84.62,48.37 139.51,-12.34 154.31,-32.11 24.4,-32.58 25.49,-62.14 19.21,-68.23 -26.39,-25.44 -380.43,-321.95 -598.27,-389.1 -60.79,-18.7 -106.77,-8.08 -140.58,32.65 -50.62,60.92 -55.59,166.33 -38.96,198.06 23,43.8 221.48,184.94 400.11,296.11 21.65,13.48 28.3,41.98 14.8,63.64 -13.41,21.75 -41.95,28.37 -63.67,14.83 -64.2,-39.96 -386.97,-243.78 -433.09,-331.65 -35.76,-68.09 -21.82,-214 49.69,-300.05 57.81,-69.63 142.66,-91.58 238.91,-61.95 240.69,74.19 601.88,378.73 635.25,410.94 45.49,43.9 41.61,122.1 -9.4,190.2 -27.12,36.16 -66.22,65.76 -112.11,79.27z"/>
   <path class="fil2" d="M8326.65 2529.92c-21.91,56.26 -66.38,106.58 -139.45,137.01 -210,87.5 -442.26,143.72 -452.06,146.07 -29.63,7.12 -59.46,-11.16 -66.58,-40.78 -7.12,-29.67 11.16,-59.53 40.79,-66.66 2.32,-0.52 233.68,-56.58 435.37,-140.6 107.57,-44.77 90.23,-141.01 82.34,-169.45 -13.01,-46.89 -40.19,-69.5 -50.55,-67.97 -43.3,6.35 -582.31,124.71 -804.93,281.78 -62.11,43.8 -85.62,95.09 -71.78,156.8 20.66,92.34 116.74,174.05 158.89,181.46 58.2,10.23 336.71,-74.42 572.28,-162.23 28.56,-10.62 60.39,3.91 71.01,32.49 10.76,28.6 -3.81,60.42 -32.44,71.05 -84.69,31.58 -513.21,188.02 -629.99,167.49 -90.52,-15.92 -218.38,-135.65 -247.55,-266.13 -23.64,-105.54 17.55,-201.82 115.88,-271.21 245.96,-173.52 797.78,-292.75 852.57,-300.79 74.76,-10.99 145.91,49.79 173.09,147.75 14.4,52.09 13.84,110.69 -6.89,163.92z"/>
   <path class="fil2" d="M25578.03 13128.03c-32.22,31.82 -78.01,52.64 -137.34,51.15 -170.47,-4.34 -346.61,-36.85 -354.02,-38.23 -22.45,-4.18 -37.28,-25.79 -33.08,-48.28 4.17,-22.48 25.79,-37.31 48.27,-33.14 1.76,0.33 177.23,32.71 340.95,36.88 87.27,2.22 104.82,-68.93 108.13,-90.81 5.43,-36.05 -6.26,-59.86 -13.8,-61.98 -31.59,-8.87 -436.67,-92.63 -637.01,-53.24 -55.92,11.02 -87.67,38.91 -97.07,85.39 -14.1,69.52 26.68,154.81 53.24,172.76 36.72,24.83 253.21,51.97 441.27,63.93 22.8,1.45 40.15,21.13 38.66,43.93 -1.35,22.84 -21.05,40.2 -43.93,38.7 -67.61,-4.27 -408.73,-28.21 -482.35,-77.97 -57.08,-38.57 -107.97,-159.58 -88.04,-257.81 16.06,-79.43 73.7,-132.72 162.2,-150.18 221.39,-43.54 635.48,43.54 675.48,54.76 54.49,15.36 84.58,78.7 73.23,154.06 -6.03,40.06 -24.34,79.98 -54.79,110.08z"/>
   <path class="fil2" d="M6477.05 15821.13c-32.21,31.81 -78,52.64 -137.33,51.14 -170.47,-4.33 -346.61,-36.85 -354.02,-38.24 -22.45,-4.17 -37.29,-25.79 -33.08,-48.27 4.17,-22.48 25.8,-37.31 48.27,-33.13 1.76,0.32 177.23,32.7 340.95,36.87 87.27,2.22 104.82,-68.92 108.14,-90.81 5.42,-36.06 -6.26,-59.83 -13.81,-61.98 -31.59,-8.88 -436.67,-92.64 -637.01,-53.2 -55.91,10.99 -87.66,38.86 -97.07,85.34 -14.1,69.54 26.69,154.82 53.27,172.76 36.72,24.8 253.18,51.99 441.24,63.93 22.8,1.47 40.16,21.13 38.67,43.95 -1.37,22.84 -21.06,40.18 -43.94,38.7 -67.61,-4.27 -408.72,-28.21 -482.35,-77.97 -57.08,-38.57 -107.97,-159.58 -88.04,-257.79 16.06,-79.45 73.7,-132.76 162.2,-150.21 221.4,-43.53 635.48,43.54 675.47,54.79 54.5,15.34 84.6,78.67 73.24,154.06 -6.02,40.03 -24.33,79.96 -54.8,110.06z"/>
   <path class="fil2" d="M14818.38 20828.8c-9.37,-39.1 -4.17,-83.49 24.24,-127.92 81.64,-127.63 187.32,-246.63 191.76,-251.62 13.51,-15.18 36.78,-16.49 51.95,-2.98 15.16,13.51 16.49,36.78 2.97,51.94 -1.06,1.16 -106.3,119.73 -184.7,242.31 -41.85,65.37 4.2,111.38 19.33,123.97 24.9,20.73 48.37,22.74 53.46,17.97 21.3,-19.93 271.13,-289.42 333.24,-459.9 17.35,-47.57 10.73,-84.56 -20.29,-113.06 -46.38,-42.65 -129.98,-50.86 -155.84,-38.9 -35.76,16.51 -155.91,168.64 -251.42,306.15 -11.59,16.67 -34.5,20.81 -51.19,9.23 -16.75,-11.55 -20.86,-34.5 -9.24,-51.22 34.34,-49.42 209.31,-297.81 280.99,-330.96 55.55,-25.67 170.97,-8.76 236.5,51.54 53.03,48.76 67.07,117.07 39.66,192.38 -68.64,188.36 -325.16,463.22 -352.11,488.45 -36.71,34.39 -98.73,28.17 -150.81,-15.1 -27.65,-22.97 -49.63,-55.25 -58.5,-92.28z"/>
   <path class="fil3" d="M18926.28 2550.12c-56.94,0 -113.26,-25.29 -151.01,-73.63 -65.05,-83.33 -50.25,-203.61 33.08,-268.67 34.99,-27.32 76.48,-40.52 117.67,-40.52 56.91,0 113.26,25.25 151,73.59 65.06,83.33 50.23,203.62 -33.07,268.68 -35,27.31 -76.48,40.55 -117.67,40.55z"/>
   <path class="fil3" d="M2724 16878.8c-81.28,0 -161.71,-36.09 -215.6,-105.12 -92.89,-118.96 -71.74,-290.72 47.25,-383.6 49.92,-38.96 109.17,-57.86 167.98,-57.86 81.27,0 161.7,36.08 215.59,105.11 92.89,118.96 71.74,290.73 -47.23,383.59 -49.94,38.98 -109.2,57.88 -167.99,57.88z"/>
   <path class="fil3" d="M6692.99 4587.93c-51.38,0 -102.23,-22.84 -136.34,-66.48 -58.73,-75.25 -45.35,-183.84 29.87,-242.55 31.58,-24.66 69.06,-36.62 106.25,-36.62 51.38,0 102.23,22.82 136.33,66.45 58.73,75.26 45.36,183.85 -29.9,242.58 -31.55,24.68 -69.03,36.62 -106.21,36.62z"/>
   <path class="fil3" d="M18190.85 20997.95c-75.69,0 -150.54,-33.6 -200.73,-97.86 -86.48,-110.78 -66.78,-270.69 43.96,-357.17 46.52,-36.29 101.68,-53.9 156.44,-53.9 75.66,0 150.55,33.6 200.74,97.9 86.47,110.78 66.77,270.65 -44.01,357.14 -46.48,36.29 -101.64,53.89 -156.4,53.89z"/>
   <path class="fil1" d="M15736.81 2323.26c-103.17,80.53 -252.05,62.18 -332.6,-40.98 -80.57,-103.17 -62.22,-252.09 40.94,-332.6 103.17,-80.57 252.09,-62.22 332.64,40.94 80.53,103.17 62.18,252.09 -40.98,332.64z"/>
   <path class="fil1" d="M6282.15 2393.55c-105.32,82.17 -257.32,63.47 -339.49,-41.81 -82.2,-105.28 -63.5,-257.28 41.78,-339.52 105.32,-82.18 257.32,-63.47 339.53,41.81 82.18,105.32 63.46,257.32 -41.82,339.52z"/>
   <path class="fil1" d="M8145.22 21154.17c-108.17,84.44 -264.34,65.21 -348.8,-42.96 -84.42,-108.15 -65.22,-264.33 42.97,-348.78 108.17,-84.47 264.34,-65.24 348.8,42.98 84.42,108.15 65.19,264.33 -42.97,348.76z"/>
   <path class="fil1" d="M27302.73 15183.82c-137.53,107.37 -336.01,82.91 -443.39,-54.59 -107.36,-137.5 -82.89,-336.02 54.61,-443.35 137.52,-107.38 336.01,-82.95 443.38,54.59 107.34,137.5 82.9,336.01 -54.6,443.35z"/>
   <path class="fil4" d="M26980.85 2504.4c-67.64,52.84 -165.3,40.79 -218.11,-26.85 -52.81,-67.64 -40.79,-165.31 26.85,-218.12 67.67,-52.8 165.34,-40.79 218.15,26.85 52.81,67.67 40.79,165.32 -26.89,218.12z"/>
   <path class="fil4" d="M22468.44 20699.06c-67.68,52.84 -165.31,40.79 -218.12,-26.85 -52.84,-67.64 -40.79,-165.31 26.85,-218.15 67.64,-52.8 165.31,-40.76 218.12,26.88 52.83,67.64 40.78,165.31 -26.85,218.12z"/>
   <path class="fil4" d="M27584.12 8654.62c-67.64,52.81 -165.31,40.79 -218.12,-26.85 -52.81,-67.68 -40.78,-165.31 26.85,-218.16 67.68,-52.8 165.35,-40.78 218.15,26.89 52.81,67.64 40.8,165.31 -26.88,218.12z"/>
   <path class="fil4" d="M10064.97 2760.09c-67.64,52.81 -165.31,40.8 -218.12,-26.85 -52.81,-67.67 -40.79,-165.34 26.88,-218.15 67.65,-52.8 165.32,-40.78 218.12,26.86 52.81,67.67 40.79,165.34 -26.88,218.14z"/>
   <path class="fil4" d="M1930.91 6327.08c-67.64,52.8 -165.3,40.79 -218.12,-26.89 -52.82,-67.64 -40.79,-165.31 26.86,-218.12 67.65,-52.81 165.32,-40.78 218.14,26.85 52.8,67.68 40.78,165.31 -26.88,218.16z"/>
   <path class="fil5" d="M16711.9 19601.82c0,0 97.94,-550.89 165.91,-576.85 68.01,-25.93 62.48,504.86 178.59,576.85 157.1,97.4 381.5,38.6 336.57,124.17 -27.64,52.65 -301.28,31.97 -374.21,194.37 -72.94,162.38 -51.82,486.88 -117.67,507.08 -65.86,20.19 -82.28,-569.74 -159.69,-565.62 -77.41,4.06 -349.36,-27.55 -404.64,-60.69 -55.29,-33.21 398.95,-110.81 375.14,-199.31z"/>
   <path class="fil5" d="M3859.32 7874.59c0,0 61.14,-344.03 103.61,-360.22 42.47,-16.19 39.01,315.26 111.51,360.22 98.09,60.82 238.24,24.1 210.18,77.54 -17.26,32.88 -188.14,19.96 -233.68,121.37 -45.54,101.41 -32.37,304.04 -73.48,316.65 -41.13,12.61 -51.4,-355.75 -99.73,-353.23 -48.34,2.55 -218.16,-17.19 -252.69,-37.88 -34.54,-20.72 249.14,-69.2 234.28,-124.45z"/>
   <path class="fil5" d="M24949.7 7236.99c0,0 52.54,-295.59 89.03,-309.5 36.48,-13.93 33.5,270.87 95.81,309.5 84.26,52.24 204.68,20.69 180.58,66.61 -14.84,28.25 -161.64,17.12 -200.78,104.26 -39.13,87.15 -27.81,261.26 -63.13,272.09 -35.33,10.82 -44.17,-305.66 -85.69,-303.48 -41.51,2.19 -187.42,-14.76 -217.09,-32.57 -29.67,-17.81 214.04,-59.47 201.27,-106.91z"/>
   <path class="fil5" d="M17552.99 3349.92c0,0 76.54,-430.6 129.68,-450.9 53.18,-20.27 48.83,394.62 139.58,450.9 122.81,76.15 298.21,30.16 263.08,97.07 -21.58,41.15 -235.47,24.96 -292.48,151.9 -57,126.94 -40.52,380.61 -91.97,396.41 -51.48,15.76 -64.33,-445.34 -124.85,-442.17 -60.49,3.22 -273.08,-21.48 -316.29,-47.44 -43.23,-25.92 311.85,-86.61 293.25,-155.77z"/>
   <path class="fil5" d="M26114.97 13585.49c-8.87,0 -16.19,-7.02 -16.55,-15.96 -0.33,-9.1 6.79,-16.82 15.92,-17.15 54.57,-2.05 109.63,-3.08 163.66,-3.08l37.25 0.17c9.14,0.03 16.49,7.51 16.42,16.65 -0.06,9.11 -7.49,16.46 -16.55,16.46l-0.13 0 -36.99 -0.17c-53.6,0 -108.27,1.03 -162.43,3.08l-0.6 0zm-498.04 46.95c-8.04,0 -15.1,-5.87 -16.32,-14.04 -1.39,-9.08 4.83,-17.51 13.87,-18.87 65.82,-9.93 132.86,-18.58 199.24,-25.6 8.78,-0.99 17.25,5.63 18.21,14.7 0.97,9.11 -5.62,17.25 -14.7,18.22 -65.92,6.98 -132.47,15.52 -197.79,25.42l-2.51 0.17zm-489.64 102.2c-7.35,0 -14.01,-4.87 -16.03,-12.28 -2.34,-8.81 2.92,-17.91 11.76,-20.27 64.46,-17.25 130.15,-33.24 195.17,-47.57 9.11,-1.86 17.78,3.71 19.73,12.62 1.99,8.93 -3.67,17.74 -12.61,19.72 -64.56,14.24 -129.75,30.1 -193.75,47.25l-4.27 0.53zm-475.43 155.68c-6.63,0 -12.85,-4.04 -15.4,-10.57 -3.34,-8.54 0.9,-18.11 9.4,-21.41 62.35,-24.31 125.85,-47.42 188.75,-68.81 8.61,-2.84 18.05,1.69 21.03,10.37 2.94,8.67 -1.72,18.07 -10.39,21.02 -62.45,21.16 -125.52,44.16 -187.37,68.24l-6.02 1.16zm-455.28 207.16c-5.92,0 -11.68,-3.21 -14.63,-8.85 -4.27,-8.1 -1.12,-18.11 6.96,-22.34 58.96,-30.92 119.49,-60.96 180,-89.3 8.21,-3.9 18.11,-0.33 22.02,7.98 3.87,8.28 0.27,18.15 -8.01,22.02 -60,28.14 -120.12,57.94 -178.62,88.6l-7.72 1.89zm-429.08 257.05c-5.29,0 -10.49,-2.52 -13.7,-7.25 -5.14,-7.55 -3.18,-17.88 4.36,-22.98 54.87,-37.28 111.62,-73.96 168.76,-109.06 7.81,-4.8 18.01,-2.35 22.74,5.43 4.81,7.78 2.39,17.97 -5.42,22.78 -56.69,34.8 -113.03,71.25 -167.43,108.2 -2.85,1.95 -6.1,2.88 -9.31,2.88zm-396.67 304.79c-4.63,0 -9.23,-1.95 -12.52,-5.73 -5.98,-6.88 -5.22,-17.35 1.69,-23.34 19.07,-16.55 38.31,-32.94 57.75,-49.13 32.01,-26.78 64.43,-53.07 97.24,-78.87 7.15,-5.66 17.57,-4.43 23.23,2.75 5.67,7.22 4.44,17.59 -2.74,23.25 -32.54,25.62 -64.7,51.71 -96.51,78.26 -19.23,16.09 -38.38,32.35 -57.31,48.77 -3.11,2.72 -6.99,4.04 -10.83,4.04zm-357.67 349.66c-3.97,0 -7.94,-1.43 -11.12,-4.31 -6.76,-6.12 -7.26,-16.59 -1.13,-23.37 44.67,-49.34 91.28,-98.3 138.56,-145.61 6.46,-6.46 16.92,-6.46 23.41,0 6.46,6.49 6.46,16.95 0,23.41 -46.88,46.91 -93.14,95.51 -137.46,144.45 -3.25,3.58 -7.75,5.43 -12.26,5.43zm-311.74 391.11c-3.25,0 -6.59,-0.97 -9.47,-2.99 -7.48,-5.22 -9.34,-15.52 -4.11,-23.04 38.01,-54.52 78.1,-108.96 119.19,-161.86 5.63,-7.29 16.03,-8.55 23.21,-2.92 7.21,5.59 8.55,16.03 2.92,23.21 -40.76,52.48 -80.49,106.44 -118.17,160.51 -3.17,4.64 -8.34,7.09 -13.57,7.09zm-257.25 428.74l-7.52 -1.78c-8.15,-4.14 -11.39,-14.11 -7.22,-22.25 30.1,-59.26 62.48,-118.66 96.22,-176.56 4.57,-7.95 14.73,-10.64 22.61,-5.96 7.91,4.6 10.59,14.69 5.95,22.64 -33.4,57.35 -65.48,116.18 -95.31,174.87 -2.92,5.77 -8.74,9.04 -14.73,9.04zm-193.05 461.24l-5.2 -0.87c-8.71,-2.84 -13.41,-12.24 -10.53,-20.89 20.92,-63.1 44.19,-126.64 69.22,-188.88 3.38,-8.5 13.05,-12.55 21.52,-9.2 8.49,3.41 12.62,13.04 9.21,21.55 -24.77,61.61 -47.84,124.52 -68.53,186.93 -2.29,6.96 -8.75,11.36 -15.69,11.36zm498.11 386.9l-8.35 -2.29c-54.46,-31.75 -115.85,-51.88 -182.53,-59.83 -9.03,-1.08 -15.56,-9.32 -14.46,-18.4 1.13,-9.1 9.56,-15.56 18.41,-14.47 71.18,8.47 136.87,30.07 195.27,64.14 7.88,4.59 10.56,14.73 5.92,22.6 -3.04,5.31 -8.57,8.25 -14.26,8.25zm-596.48 101.88l-0.23 0c-9.14,-0.14 -16.45,-7.65 -16.32,-16.79 0.19,-15.1 0.76,-30.49 1.71,-46.19 -13.54,8.41 -26.78,17.28 -39.69,26.55 -7.38,5.36 -17.78,3.68 -23.11,-3.74 -5.37,-7.41 -3.68,-17.75 3.77,-23.11 20,-14.4 40.76,-27.8 62.18,-40.13 3.51,-37.14 8.94,-75.61 16.25,-115.05 1.63,-9 10.44,-14.96 19.28,-13.24 8.97,1.62 14.93,10.27 13.24,19.27 -5.67,30.66 -10.13,60.69 -13.51,89.89 26.85,-13.61 54.6,-25.59 83.14,-35.96 8.61,-3.07 18.1,1.33 21.18,9.91 3.15,8.6 -1.32,18.11 -9.89,21.21 -33.97,12.36 -66.82,27.12 -98.27,44.27 -1.82,22.85 -2.88,45.13 -3.18,66.75 -0.13,9.07 -7.51,16.36 -16.55,16.36zm794.03 327.07l-2.61 -0.2c-9.05,-1.46 -15.2,-9.93 -13.78,-18.97 3.08,-19.27 4.64,-39.27 4.64,-59.46 -0.04,-43.71 -7.06,-87.61 -20.89,-130.55 -2.82,-8.71 1.98,-18.04 10.66,-20.82 8.67,-2.82 18.01,1.99 20.83,10.69 14.89,46.19 22.47,93.53 22.51,140.68 0,21.95 -1.69,43.7 -5,64.66 -1.3,8.15 -8.34,13.97 -16.36,13.97zm-1181.2 17.09l-8.34 -2.26c-7.91,-4.6 -10.6,-14.77 -5.96,-22.64 36.71,-63.04 73.3,-118.13 111.7,-168.45 5.57,-7.26 15.99,-8.69 23.21,-3.12 7.28,5.59 8.68,15.95 3.12,23.24 -37.58,49.17 -73.4,103.17 -109.46,165.01 -3.04,5.27 -8.58,8.22 -14.27,8.22zm552.08 112.89c-4.1,0 -8.18,-1.48 -11.36,-4.53 -42.8,-40.33 -76.81,-85.82 -101.14,-135.19 -5.57,-11.22 -10.69,-22.58 -15.5,-34 -3.51,-8.44 0.44,-18.14 8.87,-21.65 8.51,-3.51 18.15,0.43 21.66,8.88 4.54,10.82 9.4,21.52 14.66,32.1 22.55,45.83 54.24,88.14 94.13,125.82 6.66,6.26 6.96,16.75 0.7,23.38 -3.25,3.47 -7.65,5.19 -12.02,5.19zm319.23 134.85c-18.51,0 -37.48,-1.36 -56.42,-4.01 -9.03,-1.25 -15.36,-9.63 -14.1,-18.66 1.29,-9.08 9.8,-15.14 18.7,-14.11 66.95,9.34 131.11,0.63 185.98,-25.69 8.14,-3.84 18.14,-0.5 22.08,7.78 3.94,8.24 0.46,18.11 -7.78,22.08 -45.13,21.65 -95.09,32.61 -148.46,32.61zm-1086.91 203.52l-6.22 -1.22c-8.49,-3.45 -12.55,-13.12 -9.11,-21.59 25.26,-62.08 52.05,-124.15 79.66,-184.38 3.83,-8.34 13.64,-11.99 21.92,-8.14 8.31,3.77 11.98,13.6 8.17,21.91 -27.41,59.83 -54,121.4 -79.09,183.09 -2.62,6.46 -8.81,10.33 -15.33,10.33zm-163.26 472.89l-4.53 -0.63c-8.81,-2.55 -13.87,-11.7 -11.36,-20.47 18.34,-64 38.34,-128.56 59.43,-191.9 2.94,-8.63 12.32,-13.37 20.95,-10.49 8.65,2.92 13.35,12.25 10.47,20.96 -20.96,62.87 -40.79,127.01 -59.03,190.54 -2.09,7.29 -8.71,11.99 -15.93,11.99zm-112.67 487.38l-2.94 -0.27c-8.98,-1.59 -15,-10.19 -13.38,-19.2 11.72,-66.01 24.9,-132.3 39.14,-196.96 1.99,-8.97 10.99,-14.43 19.72,-12.61 8.95,1.98 14.61,10.79 12.63,19.73 -14.17,64.24 -27.26,130.05 -38.91,195.67 -1.42,8.02 -8.41,13.64 -16.26,13.64z"/>
   <path class="fil5" d="M26998.56 13604.92l-1.68 -0.09c-32.85,-3.35 -65.69,-6.39 -98.57,-9.01 -9.1,-0.73 -15.92,-8.71 -15.19,-17.78 0.73,-9.14 9.6,-15.73 17.77,-15.2 33.15,2.62 66.26,5.67 99.33,9.08 9.14,0.95 15.73,9.07 14.8,18.14 -0.9,8.54 -8.08,14.86 -16.46,14.86z"/>
   <path class="fil5" d="M3037.47 11468.02l-1.16 -0.04c-65.96,-4.57 -131.77,-5.76 -196.83,-3.6 -8.3,0.69 -16.77,-6.82 -17.08,-15.99 -0.31,-9.11 6.85,-16.75 15.98,-17.09 66.18,-2.25 133.11,-0.99 200.22,3.64 9.11,0.64 16.01,8.55 15.37,17.68 -0.61,8.75 -7.89,15.4 -16.5,15.4zm-686.46 79.95c-7.01,0 -13.52,-4.47 -15.77,-11.49 -2.79,-8.7 2.01,-18.03 10.73,-20.82 63.09,-20.2 128.36,-37.08 194.04,-50.15 8.92,-1.86 17.66,4.03 19.47,13 1.79,8.95 -4.05,17.68 -13,19.47 -64.45,12.85 -128.5,29.4 -190.42,49.2l-5.05 0.79zm1172.97 13.18l-4.95 -0.76c-62.81,-19.77 -126.87,-36.78 -190.42,-50.56 -8.95,-1.91 -14.63,-10.73 -12.68,-19.66 1.94,-8.97 10.74,-14.71 19.7,-12.68 64.51,14 129.56,31.25 193.32,51.32 8.73,2.75 13.57,12.05 10.84,20.76 -2.25,7.05 -8.76,11.58 -15.81,11.58zm453.97 198.89l-8.2 -2.19c-57.06,-32.58 -116.01,-63.04 -175.16,-90.52 -8.29,-3.84 -11.9,-13.71 -8.04,-21.98 3.86,-8.28 13.72,-11.89 21.99,-8.05 60,27.88 119.76,58.77 177.64,91.81 7.94,4.53 10.69,14.63 6.15,22.58 -3.05,5.36 -8.62,8.35 -14.38,8.35zm402.67 289.26c-3.93,0 -7.87,-1.36 -11.02,-4.18 -48.84,-43.47 -100.2,-85.51 -152.68,-124.87 -7.32,-5.47 -8.8,-15.84 -3.31,-23.15 5.48,-7.32 15.86,-8.81 23.16,-3.31 53.24,39.9 105.32,82.5 154.86,126.6 6.81,6.1 7.43,16.56 1.35,23.38 -3.29,3.67 -7.81,5.53 -12.36,5.53zm332.47 367.67c-5.11,0 -10.17,-2.36 -13.4,-6.83l-10.56 -14.5c-35.05,-47.8 -72.67,-94.95 -111.8,-140.14 -5.99,-6.89 -5.24,-17.35 1.68,-23.34 6.87,-6 17.33,-5.24 23.34,1.69 39.73,45.85 77.91,93.69 113.49,142.23l10.64 14.63c5.38,7.42 3.73,17.78 -3.67,23.11 -2.95,2.15 -6.34,3.15 -9.72,3.15zm249.83 428.32c-6.26,0 -12.25,-3.58 -15.04,-9.6 -27.74,-59.9 -57.83,-119.06 -89.51,-175.9 -4.45,-7.99 -1.57,-18.09 6.42,-22.52 7.92,-4.4 18.04,-1.62 22.53,6.42 32.05,57.51 62.54,117.44 90.61,178.09 3.84,8.32 0.21,18.14 -8.07,21.95l-6.94 1.56zm167.86 466.69c-7.31,0 -14.02,-4.86 -16,-12.28 -16.95,-63.73 -36.17,-127.33 -57.13,-189.05 -2.92,-8.67 1.7,-18.07 10.36,-21.02 8.71,-2.88 18.06,1.72 21.01,10.36 21.17,62.41 40.62,126.73 57.77,191.16 2.36,8.88 -2.91,17.92 -11.74,20.3l-4.27 0.53zm89.4 487.95c-8.37,0 -15.54,-6.29 -16.43,-14.8 -6.93,-65.59 -15.86,-131.47 -26.58,-195.83 -1.5,-9.01 4.59,-17.55 13.62,-19.04 8.94,-1.53 17.54,4.56 19.03,13.6 10.83,64.99 19.87,131.58 26.84,197.79 0.97,9.11 -5.63,17.25 -14.73,18.18l-1.75 0.1zm16.6 495.93l-0.62 0c-9.14,-0.37 -16.28,-8.01 -15.94,-17.19 1.58,-43.56 2.39,-87.6 2.39,-130.87 0,-22.32 -0.2,-44.56 -0.63,-66.81 -0.15,-9.17 7.1,-16.72 16.24,-16.89 9.7,0.37 16.69,7.12 16.88,16.22 0.42,22.51 0.62,45 0.62,67.48 0,43.7 -0.81,88.1 -2.43,132.1 -0.33,8.94 -7.66,15.96 -16.51,15.96zm-51.43 493.54l-2.83 -0.23c-9,-1.56 -15.05,-10.1 -13.5,-19.14 11.14,-64.69 20.68,-130.5 28.37,-195.7 1.06,-9.04 9.15,-15.72 18.37,-14.46 9.08,1.06 15.57,9.27 14.5,18.33 -7.75,65.76 -17.38,132.17 -28.61,197.46 -1.4,8.05 -8.38,13.74 -16.3,13.74zm-114.91 482.89l-4.76 -0.7c-8.78,-2.61 -13.74,-11.88 -11.11,-20.62 19.11,-63.44 36.84,-127.57 52.74,-190.7 2.2,-8.88 11.2,-14.15 20.08,-12.03 8.86,2.26 14.25,11.23 12.02,20.1 -16.03,63.64 -33.89,128.3 -53.1,192.19 -2.18,7.15 -8.75,11.76 -15.87,11.76zm-168.43 466.92l-6.41 -1.29c-8.43,-3.54 -12.4,-13.24 -8.85,-21.69 25.7,-61.25 50.24,-123.16 72.96,-184.01 3.2,-8.58 12.78,-12.92 21.29,-9.73 8.57,3.18 12.92,12.71 9.73,21.28 -22.88,61.29 -47.58,123.63 -73.46,185.28 -2.65,6.33 -8.79,10.16 -15.26,10.16zm-213.16 448.32l-7.73 -1.96c-8.07,-4.27 -11.17,-14.3 -6.88,-22.38 31.15,-58.73 61.39,-118.09 89.82,-176.49 4.02,-8.21 13.87,-11.62 22.14,-7.61 8.22,3.99 11.63,13.89 7.64,22.11 -28.61,58.73 -59,118.45 -90.34,177.52 -2.97,5.6 -8.72,8.81 -14.65,8.81zm-249.52 429.22c-3.02,0 -6.07,-0.86 -8.83,-2.59 -7.72,-4.86 -10.03,-15.09 -5.16,-22.81 35.54,-56.25 70.34,-113.13 103.45,-169.02 4.65,-7.85 14.84,-10.39 22.68,-5.82 7.87,4.67 10.47,14.83 5.81,22.68 -33.28,56.15 -68.23,113.29 -103.94,169.81 -3.14,5.03 -8.51,7.75 -14.01,7.75zm-278.65 411.04c-3.38,0 -6.77,-1.03 -9.68,-3.12 -7.42,-5.36 -9.07,-15.72 -3.73,-23.11 38.83,-53.7 77.3,-108.2 114.31,-162.03 5.22,-7.48 15.52,-9.43 23.03,-4.27 7.54,5.16 9.43,15.5 4.26,23.01 -37.18,54.07 -75.78,108.79 -114.76,162.66 -3.25,4.47 -8.3,6.86 -13.43,6.86zm-215.62 286.29c-3.57,0 -7.17,-1.17 -10.18,-3.51 -7.21,-5.67 -8.47,-16.1 -2.82,-23.28 12.4,-15.77 24.73,-31.66 37.04,-47.54 5.55,-7.26 15.97,-8.54 23.2,-2.99 7.25,5.6 8.57,15.99 2.98,23.21 -12.33,15.99 -24.74,31.92 -37.18,47.78 -3.27,4.17 -8.12,6.33 -13.04,6.33z"/>
   <path class="fil5" d="M12328.21 2133.52l-5.09 -0.86c-8.02,-2.81 -12.22,-11.59 -9.41,-19.56l4.44 -12.68c2.75,-8.02 11.49,-12.35 19.5,-9.54 8.01,2.74 12.28,11.49 9.5,19.5l-4.47 12.91c-2.21,6.29 -8.14,10.23 -14.47,10.23zm-7473.56 366.25c-3.9,0 -7.84,-1.49 -10.82,-4.51 -43.44,-43.37 -86.57,-88.17 -128.13,-133.16 -5.75,-6.19 -5.4,-15.93 0.84,-21.69 6.22,-5.75 15.91,-5.4 21.68,0.86 41.32,44.67 84.16,89.16 127.3,132.31 5.99,5.95 5.99,15.69 0,21.68 -2.98,3.02 -6.92,4.51 -10.87,4.51zm7287.43 54.33l-7.25 -1.82c-7.45,-4.01 -10.26,-13.35 -6.26,-20.8 28.87,-53.63 56.45,-108.79 81.88,-163.85 3.54,-7.72 12.65,-11.1 20.36,-7.52 7.72,3.55 11.06,12.69 7.51,20.37 -25.72,55.69 -53.53,111.37 -82.7,165.54 -2.78,5.16 -8.04,8.08 -13.54,8.08zm-6946.14 254.5c-3.42,0 -6.89,-1.12 -9.73,-3.48 -47.41,-38.9 -94.7,-79.23 -140.55,-119.91 -6.35,-5.63 -6.92,-15.3 -1.29,-21.66 5.6,-6.36 15.33,-6.95 21.65,-1.29 45.56,40.39 92.54,80.45 139.65,119.12 6.55,5.4 7.52,15.07 2.15,21.59 -3.04,3.71 -7.45,5.63 -11.88,5.63zm6698.52 133.19c-3.18,0 -6.42,-0.99 -9.16,-3.05 -6.8,-5.06 -8.19,-14.69 -3.12,-21.48 36.52,-48.87 71.97,-99.29 105.41,-149.94 4.68,-7.06 14.17,-8.98 21.26,-4.35 7.08,4.68 9.04,14.17 4.33,21.26 -33.72,51.16 -69.55,102.07 -106.4,151.41 -3.01,4.03 -7.65,6.15 -12.32,6.15zm-6329.1 141.41l-8.54 -2.62c-51.05,-34.29 -101.97,-69.92 -151.37,-105.91 -6.86,-5 -8.38,-14.6 -3.38,-21.45 5,-6.86 14.6,-8.35 21.46,-3.38 49.09,35.79 99.68,71.18 150.4,105.29 7.02,4.73 8.88,14.26 4.18,21.28 -2.99,4.4 -7.82,6.79 -12.75,6.79zm3007.92 51.08c-5.79,0 -11.33,-3.28 -13.94,-8.87 -3.57,-7.68 -0.23,-16.82 7.44,-20.39 59.2,-27.58 122.77,-43.01 183.83,-44.6 8.13,-0.17 15.52,6.49 15.76,14.93 0.19,8.51 -6.46,15.53 -14.94,15.76 -56.88,1.49 -116.24,15.93 -171.7,41.72l-6.45 1.45zm3020.33 155.61c-3.9,0 -7.85,-1.45 -10.83,-4.46 -6.03,-5.96 -6.05,-15.7 -0.07,-21.69 43.01,-43.24 85.29,-88.14 125.65,-133.52 5.66,-6.33 15.36,-6.86 21.69,-1.27 6.32,5.63 6.89,15.33 1.26,21.69 -40.76,45.79 -83.44,91.15 -126.84,134.72 -2.98,3.01 -6.92,4.53 -10.86,4.53zm-5634.56 31.82l-7.32 -1.85c-53.83,-29.27 -107.87,-60 -160.64,-91.28 -7.28,-4.34 -9.7,-13.74 -5.36,-21.03 4.34,-7.31 13.7,-9.7 21.02,-5.4 52.45,31.12 106.15,61.62 159.65,90.72 7.45,4.07 10.2,13.38 6.16,20.82 -2.82,5.11 -8.08,8.02 -13.51,8.02zm3099.13 41.09c-8.08,0 -14.83,-6.29 -15.33,-14.44 -3.78,-61.91 -22.94,-116.87 -56.98,-163.35 -5,-6.83 -3.51,-16.43 3.31,-21.46 6.83,-5.03 16.46,-3.47 21.46,3.31 37.58,51.32 58.7,111.74 62.87,179.64 0.53,8.45 -5.92,15.73 -14.37,16.23l-0.96 0.07zm-741.53 127.33l-1.45 -0.06c-8.45,-0.8 -14.63,-8.28 -13.84,-16.73 3.41,-35.98 10.72,-71.51 21.75,-105.51 8.38,-25.89 19.77,-51.28 33.83,-75.45 4.25,-7.36 13.68,-9.87 20.96,-5.6 7.32,4.27 9.84,13.64 5.57,20.99 -12.95,22.32 -23.45,45.69 -31.16,69.53 -10.33,31.89 -17.18,65.16 -20.4,98.92 -0.76,7.95 -7.44,13.91 -15.26,13.91zm-1943.38 32.42l-6.06 -1.23c-56.41,-24.21 -113.1,-49.76 -168.42,-75.96 -7.65,-3.64 -10.93,-12.77 -7.29,-20.42 3.62,-7.68 12.79,-10.92 20.43,-7.32 54.99,26.03 111.28,51.42 167.4,75.49 7.78,3.31 11.39,12.35 8.04,20.16 -2.48,5.8 -8.18,9.28 -14.1,9.28zm4874.06 70.41c-4.64,0 -9.21,-2.08 -12.22,-6.05 -5.13,-6.76 -3.84,-16.4 2.92,-21.52 48.33,-36.79 96.37,-75.46 142.82,-114.99 6.43,-5.46 16.12,-4.73 21.62,1.79 5.5,6.43 4.74,16.12 -1.75,21.62 -46.85,39.86 -95.32,78.89 -144.12,116.01 -2.75,2.12 -6.02,3.14 -9.27,3.14zm-4443.06 91.15l-4.7 -0.76c-58.47,-18.84 -117.27,-39.03 -174.74,-59.99 -7.99,-2.88 -12.09,-11.69 -9.18,-19.67 2.92,-7.94 11.72,-12.01 19.67,-9.17 57.15,20.83 115.58,40.85 173.69,59.63 8.04,2.61 12.48,11.26 9.89,19.3 -2.11,6.52 -8.14,10.66 -14.63,10.66zm2063.3 79.03c-4.63,0 -9.23,-2.08 -12.24,-6.06 -5.14,-6.75 -3.81,-16.39 2.91,-21.52 45.65,-34.66 86.28,-80.55 117.6,-132.7 4.33,-7.25 13.78,-9.63 21.06,-5.26 7.24,4.37 9.6,13.8 5.26,21.06 -33.3,55.46 -76.64,104.35 -125.31,141.37 -2.78,2.09 -6.07,3.11 -9.28,3.11zm-1619.05 41.59l-3.34 -0.37c-59.66,-13.2 -120.09,-27.81 -179.59,-43.37 -8.21,-2.16 -13.11,-10.53 -10.99,-18.74 2.19,-8.21 10.53,-13.01 18.74,-10.96 59.13,15.47 119.19,29.97 178.49,43.08 8.28,1.85 13.47,10.03 11.65,18.31 -1.59,7.15 -7.91,12.05 -14.96,12.05zm3614.46 41.18c-5.37,0 -10.56,-2.81 -13.38,-7.81 -4.17,-7.41 -1.55,-16.75 5.83,-20.93 52.94,-29.82 105.81,-61.57 157.13,-94.38 7.12,-4.55 16.65,-2.49 21.19,4.66 4.57,7.15 2.48,16.62 -4.67,21.19 -51.78,33.11 -105.15,65.16 -158.59,95.29l-7.51 1.98zm-3160.81 36.75l-1.9 -0.13c-60.91,-7.48 -122.46,-16.22 -182.92,-26.03 -8.37,-1.35 -14.03,-9.23 -12.71,-17.6 1.39,-8.35 9.11,-14.15 17.62,-12.69 60.05,9.74 121.21,18.44 181.76,25.86 8.41,1.03 14.37,8.68 13.34,17.12 -0.92,7.78 -7.55,13.47 -15.19,13.47zm459.01 33.57l-0.36 0c-61.19,-1.42 -123.3,-4.13 -184.59,-8.01 -8.47,-0.56 -14.89,-7.81 -14.37,-16.29 0.57,-8.47 7.85,-14.8 16.3,-14.37 60.89,3.88 122.59,6.56 183.38,7.98 8.45,0.2 15.16,7.22 14.97,15.69 -0.17,8.35 -7.02,15 -15.33,15zm292.48 2.36c-4.6,0 -9.14,-2.06 -12.19,-6l-2.38 -3.11 -0.4 0.07c-8.7,0.69 -15.92,-5.44 -16.72,-13.87l1.29 -7.76c-30.89,-43.56 -56.51,-89.65 -76.44,-137.39 -3.28,-7.82 0.43,-16.79 8.24,-20.07 7.75,-3.27 16.82,0.47 20.1,8.25 20.09,48.2 46.35,94.69 78.17,138.49 58.9,-6.26 111.87,-15.63 161.5,-28.5 8.18,-2.23 16.59,2.77 18.7,10.99 2.16,8.21 -2.78,16.58 -10.95,18.7 -47.72,12.42 -98.3,21.58 -153.93,28.01 -0.69,3.45 -2.61,6.66 -5.63,9 -2.8,2.16 -6.09,3.19 -9.36,3.19zm1993.84 124.88c-6.15,0 -11.92,-3.68 -14.3,-9.73 -3.12,-7.92 0.8,-16.83 8.67,-19.91 56.52,-22.14 113.27,-46.27 168.69,-71.71 7.68,-3.51 16.82,-0.16 20.36,7.59 3.54,7.68 0.16,16.79 -7.55,20.32 -55.98,25.7 -113.26,50.04 -170.27,72.38l-5.6 1.06zm-1622.21 135.97l-5.2 -0.89c-60.38,-21.82 -117.26,-48.67 -168.97,-79.75 -7.29,-4.38 -9.64,-13.81 -5.27,-21.06 4.37,-7.29 13.74,-9.6 21.09,-5.27 50.02,30.1 105.06,56.06 163.59,77.21 7.98,2.88 12.08,11.69 9.2,19.66 -2.25,6.24 -8.14,10.1 -14.44,10.1zm1182.86 0.56c-6.98,0 -13.27,-4.79 -14.93,-11.88 -1.91,-8.25 3.25,-16.49 11.49,-18.41 59.13,-13.7 118.73,-29.43 177.2,-46.68 8.14,-2.41 16.68,2.25 19.07,10.4 2.38,8.11 -2.26,16.65 -10.4,19.07 -59,17.42 -119.22,33.27 -178.95,47.11l-3.48 0.39zm-454.7 69.57c-7.95,0 -14.71,-6.16 -15.3,-14.24 -0.63,-8.44 5.73,-15.8 14.17,-16.45 60.36,-4.47 121.67,-10.96 182.19,-19.27 8.45,-1.32 16.16,4.7 17.32,13.11 1.13,8.41 -4.73,16.15 -13.14,17.28 -61.15,8.41 -123.1,14.97 -184.09,19.5l-1.15 0.07zm-276.13 6.91l-0.46 0c-64.76,-1.88 -127.03,-6.65 -185.11,-14.2 -8.41,-1.06 -14.34,-8.77 -13.24,-17.18 1.09,-8.41 8.74,-14.37 17.21,-13.24 57.05,7.41 118.3,12.11 182.06,13.93 8.45,0.27 15.14,7.32 14.91,15.8 -0.27,8.34 -7.09,14.89 -15.37,14.89z"/>
   <path class="fil5" d="M20977.4 2024.4c-8.14,0 -15,-6.33 -15.56,-14.57 -4.17,-61.95 -7.35,-125.15 -9.6,-187.86 -0.29,-8.6 6.46,-15.86 15.1,-16.16 8.45,-0.76 15.86,6.46 16.19,15.07 2.19,62.41 5.4,125.25 9.51,186.83 0.59,8.64 -5.93,16.09 -14.54,16.69l-1.1 0zm51.16 466.1c-7.58,0 -14.24,-5.53 -15.43,-13.25 -9.4,-60.75 -17.92,-123.49 -25.33,-186.43 -1.02,-8.58 5.1,-16.36 13.67,-17.38 8.45,-1.03 16.36,5.12 17.36,13.7 7.37,62.58 15.85,124.95 25.22,185.31 1.29,8.54 -4.53,16.53 -13.08,17.85l-2.41 0.2zm93.4 459.47c-6.99,0 -13.35,-4.7 -15.14,-11.79 -15.35,-60.09 -29.76,-121.77 -42.87,-183.28 -1.78,-8.45 3.61,-16.72 12.02,-18.54 8.54,-1.83 16.78,3.61 18.58,12.05 13,61.08 27.31,122.37 42.57,182.06 2.12,8.38 -2.91,16.89 -11.29,19l-3.87 0.5zm140.04 447.36c-6.32,0 -12.25,-3.87 -14.63,-10.13 -21.72,-57.91 -42.61,-117.7 -62.11,-177.76 -2.65,-8.21 1.82,-17.02 10.03,-19.7 8.18,-2.65 17.06,1.85 19.7,10.07 19.36,59.59 40.1,118.95 61.64,176.4 3.05,8.08 -1.02,17.08 -9.13,20.13l-5.5 0.99zm190.61 428.09c-5.63,0 -11.09,-3.05 -13.88,-8.38 -28.63,-54.89 -56.51,-111.8 -82.83,-169.12 -3.61,-7.84 -0.2,-17.14 7.68,-20.72 7.84,-3.61 17.11,-0.24 20.73,7.68 26.09,56.85 53.76,113.26 82.14,167.66 4,7.69 1.06,17.12 -6.62,21.13l-7.22 1.75zm4511.1 60.38l-2.82 -0.22c-8.51,-1.56 -14.13,-9.67 -12.61,-18.18 2.94,-16.19 5.66,-32.42 8.14,-48.77 1.26,-8.54 9.54,-14.3 17.78,-13.08 8.58,1.3 14.4,9.27 13.11,17.82 -2.54,16.62 -5.27,33.13 -8.24,49.62 -1.39,7.56 -7.98,12.81 -15.36,12.81zm-4267.23 339.73c-4.86,0 -9.67,-2.28 -12.71,-6.56 -32.05,-44.95 -63.17,-91.28 -92.64,-137.66l-12.05 -19.11c-4.6,-7.31 -2.38,-16.97 4.97,-21.54 7.24,-4.54 16.95,-2.39 21.52,4.96l11.92 18.9c29.17,45.92 60.05,91.78 91.74,136.31 5,7.02 3.35,16.79 -3.67,21.79 -2.75,1.95 -5.93,2.91 -9.08,2.91zm4119.52 103.57l-6.91 -1.63c-7.72,-3.81 -10.89,-13.21 -7.09,-20.96 27.58,-55.75 52.18,-113.16 73.18,-170.63 2.94,-8.12 11.92,-12.26 20.05,-9.34 8.08,2.95 12.26,11.95 9.31,20.03 -21.39,58.53 -46.45,117.04 -74.5,173.82 -2.71,5.5 -8.27,8.71 -14.04,8.71zm-3820.42 257.12c-4.07,0 -8.21,-1.6 -11.25,-4.77 -43.28,-45.03 -85.86,-92.01 -126.61,-139.69 -5.6,-6.56 -4.84,-16.42 1.72,-22.02 6.59,-5.59 16.45,-4.87 22.05,1.72 40.33,47.22 82.54,93.74 125.35,138.3 5.99,6.22 5.82,16.12 -0.4,22.11 -3.04,2.92 -6.95,4.35 -10.86,4.35zm3561.65 132.49c-3.6,0 -7.24,-1.25 -10.16,-3.81 -6.59,-5.59 -7.35,-15.45 -1.72,-22.01 40.49,-47.25 78.93,-96.64 114.19,-146.84 4.96,-7.05 14.77,-8.77 21.78,-3.8 7.09,4.96 8.75,14.69 3.81,21.78 -35.85,51.02 -74.89,101.21 -116.05,149.18 -3.1,3.65 -7.48,5.5 -11.85,5.5zm-3212.79 180.41c-3.3,0 -6.68,-1.06 -9.5,-3.28 -49.4,-37.97 -98.46,-78.17 -145.88,-119.46 -6.48,-5.65 -7.18,-15.52 -1.52,-22.04 5.63,-6.5 15.53,-7.22 22.06,-1.53 46.94,40.86 95.55,80.65 144.38,118.3 6.86,5.26 8.11,15.06 2.88,21.92 -3.08,3.97 -7.75,6.09 -12.42,6.09zm2869.93 138.33c-4.77,0 -9.47,-2.19 -12.55,-6.33 -5.17,-6.91 -3.68,-16.72 3.24,-21.85 49.9,-37.11 98.5,-76.62 144.49,-117.47 6.46,-5.72 16.32,-5.16 22.08,1.32 5.73,6.46 5.13,16.36 -1.32,22.09 -46.65,41.41 -95.98,81.48 -146.64,119.16 -2.75,2.05 -6.03,3.08 -9.3,3.08zm-2477.52 117.76l-7.49 -1.92c-54.63,-29.73 -109.36,-61.85 -162.63,-95.45 -7.28,-4.61 -9.5,-14.27 -4.89,-21.56 4.63,-7.34 14.36,-9.43 21.58,-4.9 52.71,33.25 106.84,65.03 160.91,94.46 7.54,4.14 10.36,13.61 6.26,21.22 -2.86,5.2 -8.21,8.15 -13.74,8.15zm2074.36 120.42c-5.93,0 -11.59,-3.38 -14.2,-9.11 -3.58,-7.85 -0.14,-17.15 7.71,-20.73 56.25,-25.72 112.07,-54.16 166,-84.49 7.48,-4.23 17.06,-1.58 21.29,5.96 4.24,7.52 1.59,17.05 -5.96,21.29 -54.66,30.76 -111.28,59.59 -168.32,85.68l-6.52 1.4zm-1645.35 67.7l-5.04 -0.82c-58.92,-19.87 -118.28,-42.32 -176.46,-66.68 -7.98,-3.35 -11.72,-12.49 -8.37,-20.46 3.34,-7.95 12.48,-11.76 20.46,-8.38 57.47,24.1 116.14,46.28 174.41,65.92 8.18,2.75 12.58,11.62 9.8,19.79 -2.22,6.52 -8.28,10.63 -14.8,10.63zm1201.44 80.92c-7.23,0 -13.72,-4.96 -15.3,-12.28 -1.86,-8.45 3.47,-16.79 11.95,-18.61 60.19,-13.18 120.74,-29.2 179.97,-47.71 8.25,-2.45 17.02,2.08 19.61,10.3 2.54,8.24 -2.06,16.98 -10.3,19.56 -60.09,18.77 -121.54,35.03 -182.63,48.37l-3.3 0.37zm-745.77 26.65l-2.15 -0.14c-61.72,-8.37 -124.26,-19.4 -185.84,-32.74 -8.44,-1.85 -13.77,-10.16 -11.95,-18.6 1.82,-8.45 10.29,-13.78 18.57,-11.99 60.82,13.21 122.53,24.08 183.42,32.34 8.58,1.17 14.54,9.05 13.37,17.59 -1.06,7.85 -7.74,13.54 -15.42,13.54zm306.42 21.05c-8.78,0 -17.55,-0.06 -26.33,-0.15 -8.63,-0.11 -15.56,-7.19 -15.46,-15.84 0.14,-8.57 7.09,-15.43 15.63,-15.43l0.2 0c9.64,0.11 19.6,0.14 28.9,0.17l12.42 -0.03c47.87,-0.27 96.57,-2.35 144.65,-6.19 8.7,-0.4 16.15,5.73 16.82,14.37 0.69,8.58 -5.7,16.12 -14.3,16.82 -48.91,3.87 -98.37,5.98 -147.04,6.26l-12.52 0.02 -2.97 0z"/>
   <polygon class="fil6" points="26764.46,14008.21 26856.14,14372.14 26898.81,14018.58 "/>
   <polygon class="fil5" points="27922.99,14097.54 26555.05,11884.28 25935.6,13944.31 "/>
   <polygon class="fil7" points="26632.86,12232.96 27228.47,14044 26856.14,14372.14 26898.81,14018.58 "/>
   <path class="fil8" d="M27899.15 17379.63c0,0 -2770.57,-2202.14 -2866.51,-2216.3 -95.96,-14.17 -520.14,581.54 -520.14,581.54l2721.57 2050 665.08 -415.24z"/>
   <path class="fil9" d="M27789.43 17448.13c0,0 -2866.95,-2203.03 -2960.87,-2230.9 -93.93,-27.88 -457.36,156.57 -457.36,156.57l-97.17 658.09 2710.46 2259.7 804.94 -843.46z"/>
   <path class="fil10" d="M22253.7 19466.5c36.48,259.44 1562.44,1342.28 2443.98,1948.55 359.23,246.59 611.31,414.55 611.31,414.55l2143.09 -4411.07c0,0 -67.87,-50.59 -183.22,-135.55 -82.27,-61.24 -188.95,-139.21 -312.57,-229.97 -851.35,-625.25 -2510.8,-1832.24 -2606.87,-1815.62 -120.82,21.56 -1884.13,3364.67 -2079.34,4110.52 -13.67,53.93 -19.59,94.16 -16.38,118.59z"/>
   <path class="fil10" d="M27452.12 17418.66l447.03 -39.03c0,0 -1972.43,4345.32 -2037.38,4405.76 -64.97,60.44 -552.85,44.44 -552.85,44.44 0,0 1995.76,-4313.86 2143.2,-4411.17z"/>
   <path class="fil8" d="M26223.24 17440.31c0,0 -369.79,701.83 -471.82,728.78 -102.01,26.95 -1561.13,-1000.96 -1631.25,-1095.38 -70.09,-94.4 371.84,-715.68 490.6,-761.1 118.79,-45.42 1552.05,1062.74 1612.47,1127.7z"/>
   <path class="fil8" d="M24697.68 21415.05c359.23,246.59 611.31,414.55 611.31,414.55l2143.09 -4411.07c0,0 -198.57,-147.5 -495.79,-365.52l-2258.61 4362.04z"/>
   <path class="fil11" d="M24702.81 21405.16l-19.53 0c-883.66,-608.14 -2393.3,-1680.61 -2429.58,-1938.66 -0.57,-4.37 -0.87,-9.27 -0.87,-14.69 0.04,-24.64 6.03,-59.68 17.25,-103.9 481.63,306.05 1054.77,465.1 1626.51,465.1 425.77,0 850.82,-88.2 1236.76,-269.5 298.23,-140.55 570.09,-329.59 817.24,-548.2l-1247.78 2409.85zm2749.27 -3986.63c-0.76,-0.6 -63.66,-47.31 -171.16,-126.68 107.36,79.14 170.44,126.12 171.16,126.68z"/>
   <path class="fil12" d="M25515.22 21405.16l-812.41 0 1247.78 -2409.85c170.28,-150.61 328.86,-315.19 476.33,-487.63 234.61,-274.19 443.12,-568.83 641.57,-868.91 51.55,-78.6 123.6,-245.54 200.37,-355.79 4.07,3.02 8.12,5.96 12.06,8.87 107.5,79.37 170.4,126.08 171.16,126.68l0 0 -1936.86 3986.63z"/>
   <path class="fil13" d="M23495.92 17100.75c107.86,-238.44 225.46,-471.36 346.58,-702.29 59.55,-116 122.85,-229.94 184.27,-344.92l94.72 -171c31.72,-56.55 65.06,-119.09 119.1,-173.32 27.05,-26.76 60.95,-51.42 101.77,-65.72 23.51,-8.84 49.17,-12.81 74.29,-12.81 17.95,0 35.66,2.04 52.15,5.79 80.22,19.43 135.35,60.13 190.74,91.74 111.41,67.71 223.71,133.79 334.03,203.35 221.69,137.37 441.39,278.08 655.54,428.49 -237.49,-109.93 -469.41,-229.44 -699.38,-352.41 -115.51,-60.55 -229,-124.62 -343.43,-187.06 -57.98,-31.09 -112.27,-67.04 -160.41,-76.28 -9.07,-1.92 -17.88,-2.88 -26.49,-2.88 -35.98,0 -68.46,16.62 -99.55,48.14 -39.01,37.91 -70.16,90.81 -102.27,147.3l-97.71 169.32c-66.91,111.87 -131.94,224.83 -200.66,335.68 -135.52,222.78 -274.5,443.58 -423.29,658.88z"/>
   <polygon class="fil14" points="26495.42,16550.96 27121.53,17050.1 27139.98,17027.72 27721.25,16318.87 27157.36,15723.98 26807.74,16160.91 "/>
   <path class="fil15" d="M27121.53 17050.1l-626.11 -499.14 312.32 -390.05c43.39,218.02 151.53,665.25 332.24,866.81l-18.45 22.38z"/>
   <path class="fil16" d="M2433.86 14721.7l-827.48 778.47c-61.07,57.44 -64.01,154.16 -6.57,215.21 57.71,61.35 154.4,64.29 215.46,6.85l825.68 -776.79 -207.09 -223.74z"/>
   <path class="fil17" d="M2471.65 15104.72c-0.01,0 -0.01,0 -0.01,0l119.48 -112.39 0 0 -119.47 112.39z"/>
   <path class="fil18" d="M2471.64 15104.72c-30.38,-21.91 -58.43,-47.11 -83.61,-74.46 -48.73,-52.93 -85.38,-107.49 -109.15,-162.75l109.35 -102.9c31.13,49.43 67.46,96.57 108.97,140.71 29.68,31.55 61.1,60.58 93.92,87.01l-119.48 112.39z"/>
   <path class="fil19" d="M3341.99 14957.26c-36.29,-2.88 -72.46,-7.64 -108.42,-14.47 -223.07,-42.61 -436.11,-174.45 -539.04,-376.77 -96.05,-189.21 -84.94,-424.98 13.67,-612.76 98.61,-188.32 278.82,-328.04 480.3,-394.32 17.57,-5.86 35.29,-11.13 53.15,-15.87 54.98,5.6 109.43,17.39 162.2,35.26 -85.61,457.86 -108.04,919.62 -61.86,1378.93z"/>
   <path class="fil20" d="M3428.26 14960.61c-28.8,0 -57.57,-1.09 -86.27,-3.35 -46.18,-459.31 -23.75,-921.07 61.86,-1378.93 110.46,37.45 213.57,101.78 299.07,192.66 278.56,296.09 264.35,761.92 -31.75,1040.46 -70.34,66.22 -150.3,115.89 -235.03,149.16 -2.63,0 -5.27,0 -7.88,0z"/>
   <path class="fil21" d="M3166.96 15011.43c-195.95,0 -391.4,-77.74 -536.27,-231.69 -278.55,-296.09 -264.33,-761.92 31.75,-1040.5 142.13,-133.69 323.38,-199.97 504.23,-199.97 25.04,0 50.07,1.29 74.98,3.8 -17.86,4.74 -35.58,10.01 -53.15,15.87 -201.48,66.28 -381.69,206 -480.3,394.32 -98.61,187.78 -109.72,423.55 -13.67,612.76 102.93,202.32 315.97,334.16 539.04,376.77 35.96,6.83 72.13,11.59 108.42,14.47 1.1,10.96 2.19,21.36 3.36,32.32 -58.55,14.6 -118.49,21.85 -178.39,21.85z"/>
   <path class="fil22" d="M3345.35 14989.58c-1.17,-10.96 -2.26,-21.36 -3.36,-32.32 28.7,2.26 57.47,3.35 86.27,3.35 2.61,0 5.25,0 7.88,0 -29.73,11.65 -60.08,21.32 -90.79,28.97z"/>
   <path class="fil16" d="M2630.69 14779.74c-278.55,-296.09 -264.33,-761.92 31.75,-1040.5 296.09,-278.54 761.93,-264.33 1040.48,31.75 278.56,296.09 264.35,761.92 -31.75,1040.46 -296.07,278.57 -761.91,264.38 -1040.48,-31.71zm1205.74 -1134.36c-347.92,-369.82 -929.77,-387.56 -1299.58,-39.63 -369.82,347.9 -387.58,929.74 -39.65,1299.57 347.92,369.81 929.76,387.56 1299.58,39.66 369.82,-347.94 387.57,-929.78 39.65,-1299.6z"/>
   <path class="fil23" d="M3607.63 15008.81c-7.6,0 -15.06,-3.54 -19.76,-10.23 -7.68,-10.89 -5.07,-25.95 5.83,-33.64 108.08,-76.15 198.01,-175.37 259.99,-286.92 10.25,-18.4 19.88,-37.43 28.65,-56.64 4.04,-8.87 12.79,-14.1 21.93,-14.1 3.36,0 6.79,0.69 10.05,2.18 12.13,5.53 17.47,19.84 11.92,31.98 -9.28,20.37 -19.5,40.56 -30.34,60.06 -65.52,117.83 -160.39,222.59 -274.41,302.91 -4.21,2.98 -9.07,4.4 -13.86,4.4z"/>
   <path class="fil23" d="M3972.79 14418.62l-3.39 -0.22c-13.2,-1.86 -22.4,-14.08 -20.55,-27.26 31.67,-226.46 -25.18,-458.38 -155.96,-636.3 -7.88,-10.7 -5.58,-25.83 5.15,-33.7 4.31,-3.18 9.34,-4.71 14.31,-4.71 7.42,0 14.72,3.41 19.45,9.83 138.16,187.99 198.26,432.72 164.85,671.57 -1.68,12.08 -12.01,20.79 -23.86,20.79z"/>
   <path class="fil16" d="M10005.07 19001.4l1990.89 678.05c0,0 -681.66,1400.25 -636.56,1826.65 0,0 -1929.52,-575.19 -2011.16,-770.56 0,0 167.26,-1093.5 656.83,-1734.14z"/>
   <polygon class="fil5" points="10669.42,19655.64 10099.79,19488.45 10111.71,19447.76 10681.34,19615 "/>
   <polygon class="fil5" points="11410.18,19921.44 10930.18,19789.83 10941.37,19748.98 11421.38,19880.58 "/>
   <path class="fil5" d="M11393.83 20357.34c-425.15,-329.46 -976.07,-490 -1511.62,-440.59l-3.91 -42.19c546.15,-50.39 1107.93,113.3 1541.48,449.32l-25.95 33.46z"/>
   <polygon class="fil5" points="10719.61,20448.82 10393.73,20355.52 10405.38,20314.79 10731.27,20408.11 "/>
   <path class="fil5" d="M9649.19 20544.07l6.92 -41.78c557.34,92.41 1112.27,228.52 1649.65,404.25l-13.15 40.27c-535.19,-175.12 -1088.09,-310.56 -1643.42,-402.74z"/>
   <polygon class="fil6" points="3043.05,11599.79 3330.65,11496.06 3040.57,11490.07 "/>
   <polygon class="fil5" points="3021.78,10653.46 1338.25,11941.3 3058.25,12276.89 "/>
   <polygon class="fil7" points="1614.58,11850.02 3034.54,11220.76 3330.65,11496.06 3040.57,11490.07 "/>
   <path class="fil2" d="M28770.36 4346.28l-185.11 -124.39 -2538.71 -1123.3 -1999.47 -1925.9 -185.11 -124.39c0,0 -1237.65,1663.33 -1549.14,2300.76 0,0 1672.14,1673.42 1956.37,1757.35 0,0 -9.73,217.32 216.2,315.59 176.4,172.06 373.89,80.92 373.89,80.92 185.14,231.42 2312.88,1242.58 2312.88,1242.58 472.42,-529.3 1598.2,-2399.22 1598.2,-2399.22z"/>
   <path class="fil24" d="M22766.91 2938.81c0,0 -193.02,395.92 -183.12,446.33 0,0 937.75,907.47 1360.21,1191.31 422.43,283.86 691.33,274.76 825.26,423.12 0,0 2.61,-1188.06 -2002.35,-2060.76z"/>
   <path class="fil25" d="M24520.49 1374.65c0,0 -166.21,-211.66 -413.67,-277.95 0,0 -1271.88,1610.46 -1339.91,1842.11 0,0 461.72,573.04 964.94,823.53 503.21,250.57 1008.8,780.04 1037.41,1237.23l1277.28 -1900.98 -1526.05 -1723.94z"/>
   <path class="fil26" d="M24719.39 4409.65c-353.95,-592.51 -848.59,-1100.88 -1433.01,-1468.29 78.06,-188.19 172.85,-369.42 282.44,-541.18 169.29,-265.3 373.76,-508.12 606.65,-719.81l97.13 0c-339.86,445 -657.66,952.33 -657.66,952.33 -125.74,382.69 464.4,764.59 872.37,1330.68 114.69,159.12 187.16,310.65 232.08,446.27z"/>
   <path class="fil5" d="M26147.91 2947.72l-1378.65 2051.85c0,0 126.05,-470.07 -281.95,-1036.19 -407.97,-566.09 -998.11,-947.99 -872.37,-1330.68 0,0 804.56,-1284.3 1222.29,-1558.37 0,0 -48.11,288.86 239.97,555.38 137.33,126.74 379.45,347.8 599.09,584.16 242.09,260.2 456.6,539.8 471.62,733.85z"/>
   <path class="fil24" d="M27433.88 6074.62c0,0 -293.58,328.31 -344.03,338.21 0,0 -1194.58,-525.27 -1617.01,-809.1 -422.46,-283.87 -515.63,-536.26 -703.58,-604.16 0,0 893.85,-428.65 2664.62,1075.05z"/>
   <path class="fil5" d="M27433.88 6074.62c0,0 -705.01,-210.93 -1127.14,-582.17 -422.13,-371.21 -1103.4,-639.18 -1537.48,-492.88l1378.65 -2051.85c0,0 939.78,161.33 1837.65,651.93 50.06,27.18 99.96,55.46 149.32,84.56 145.01,85.75 343.13,249.8 498.04,453.79 0,0 -1010.29,1786.05 -1199.04,1936.62z"/>
   <path class="fil27" d="M25235.55 4305.56c500.27,-788.01 539.73,-1476.83 507.35,-1819.77 -7.61,-81.65 -32.83,-176.24 -66.61,-271.92 242.09,260.2 456.6,539.8 471.62,733.85l-912.28 1357.73c-0.04,0.07 -0.08,0.11 -0.08,0.11z"/>
   <path class="fil27" d="M25235.63 4305.45l912.28 -1357.73 0 0c0,0 939.78,161.33 1837.65,651.93 -502.02,-146.43 -1394.03,-392.93 -1703.38,-392.93 -35.17,0 -62.78,3.18 -81.48,10.04 -251.03,92.7 -957.5,1078.14 -965.07,1088.69z"/>
   <path class="fil10" d="M24802.67 2009.34c-3.84,-2.69 -5.83,-7.56 -4.71,-12.39 1.53,-6.36 7.88,-10.3 14.2,-8.78 290.63,69.07 552.75,250.97 719.15,498.98 3.64,5.4 2.19,12.75 -3.21,16.39 -5.43,3.64 -12.78,2.15 -16.39,-3.21 -163.15,-243.14 -420.14,-421.4 -704.97,-489.17l-4.07 -1.82z"/>
   <path class="fil10" d="M25908.01 3118.95l-4.59 -6.58c-47.68,-177.62 -137.9,-343.73 -260.94,-480.47 -4.36,-4.83 -3.97,-12.31 0.91,-16.66 4.79,-4.36 12.27,-4.03 16.64,0.87 125.52,139.45 217.56,308.93 266.19,490.13 1.69,6.29 -2.04,12.78 -8.37,14.47 -3.51,0.93 -7.09,0.2 -9.84,-1.76z"/>
   <path class="fil10" d="M25686.16 3602.8l-3.87 -4.64c-243.98,-518.5 -662.14,-942.06 -1177.53,-1192.65 -5.83,-2.75 -8.32,-9.91 -5.46,-15.76 2.84,-5.9 9.93,-8.32 15.79,-5.46 520.16,252.9 942.26,680.44 1188.55,1203.81 2.78,5.92 0.26,12.94 -5.63,15.72 -4,1.89 -8.51,1.32 -11.85,-1.02z"/>
   <path class="fil10" d="M24820.38 3191.56l-1.89 -1.66c-150.18,-163.52 -325.15,-300.29 -520.06,-406.3 -5.59,-3.11 -7.85,-10.3 -4.74,-16.02 3.12,-5.73 10.29,-7.85 16.03,-4.74 197.25,107.37 374.28,245.66 526.15,411.07 4.4,4.81 4.11,12.29 -0.69,16.69 -4.17,3.84 -10.34,4.11 -14.8,0.96z"/>
   <path class="fil10" d="M25383.05 3947.29l-3.64 -4.13c-117.37,-220.61 -263.64,-424.79 -434.75,-606.91 -4.47,-4.74 -4.23,-12.22 0.54,-16.66 4.73,-4.5 12.35,-4.24 16.65,0.49 172.6,183.62 320.05,389.53 438.42,611.98 3.05,5.76 0.89,12.94 -4.86,15.99 -4.08,2.15 -8.85,1.72 -12.36,-0.76z"/>
   <path class="fil10" d="M25109.85 4294.83l-3.81 -4.44c-228.69,-463.35 -572.35,-864.75 -994.65,-1162.16 -6.41,-4.51 -12.81,-8.98 -19.26,-13.44l-0.07 -0.07c-5.29,-3.71 -6.59,-11.03 -2.91,-16.36 3.74,-5.36 11.09,-6.72 16.45,-2.98 435.07,300.69 787.68,710.6 1021.63,1184.55 2.88,5.86 0.46,12.94 -5.37,15.82 -4.01,1.99 -8.61,1.46 -12.01,-0.92z"/>
   <path class="fil10" d="M26192.18 3382.34c-2.84,-2.03 -4.79,-5.27 -5,-9.05 -0.33,-6.52 4.67,-12.08 11.2,-12.41 587.27,-30.59 1173.12,211.79 1566.98,648.46 4.4,4.83 4,12.31 -0.87,16.65 -4.83,4.37 -12.25,4.14 -16.65,-0.87 -389.29,-431.4 -967.99,-670.9 -1548.24,-640.64l-7.42 -2.14z"/>
   <path class="fil10" d="M25915.4 3850.48c-2.62,-1.82 -4.47,-4.7 -4.94,-8.07 -0.82,-6.5 3.71,-12.42 10.17,-13.32 220.97,-29.46 452.69,8.68 652.5,107.48 5.73,2.91 8.24,9.99 5.36,15.85 -2.91,5.83 -9.97,8.21 -15.82,5.33 -195.64,-96.74 -422.56,-134.08 -638.9,-105.22 -3.08,0.4 -6.02,-0.39 -8.37,-2.05z"/>
   <path class="fil10" d="M26674.31 3995.1c-3.64,-2.59 -5.67,-7.08 -4.83,-11.79 1.15,-6.39 7.31,-10.66 13.74,-9.5 297,53.9 575.28,203.88 783.49,422.46 4.48,4.73 4.31,12.18 -0.42,16.72 -4.74,4.5 -12.28,4.24 -16.68,-0.43 -204.79,-214.94 -478.45,-362.5 -770.64,-415.51l-4.66 -1.95z"/>
   <path class="fil10" d="M25596.6 4286.71c-3.21,-2.28 -5.23,-6.09 -5,-10.26 0.33,-6.52 5.89,-11.55 12.39,-11.22 10.79,0.56 1083.89,61.35 1555.22,584.59 4.37,4.86 3.97,12.32 -0.86,16.69 -4.83,4.36 -12.15,4.2 -16.69,-0.86 -464.64,-515.77 -1528.2,-576.25 -1538.86,-576.82l-6.2 -2.12z"/>
   <path class="fil2" d="M7498.08 16787.52l-222.38 84.56 -2542.57 1518.57 -2909.2 554.44 -222.36 84.55c0,0 685.83,2102.74 1048.98,2766.79 0,0 2487.63,-424.98 2735.89,-620.82 0,0 183.22,142.4 408.02,6.23 258.51,-47.61 300.83,-275.76 300.83,-275.76 315.64,-18.6 2507.28,-1248.41 2507.28,-1248.41 -169.84,-737.58 -1104.49,-2870.15 -1104.49,-2870.15z"/>
   <path class="fil24" d="M2573.1 21148.21c0,0 225.81,412.03 275.85,434.48 0,0 1368.09,-257.46 1875.58,-450.42 507.49,-192.98 665.25,-432.75 876.98,-457.91 0,0 -1032.99,-734.37 -3028.41,473.85z"/>
   <path class="fil25" d="M2291.55 18657.3c0,0 -286.75,14.31 -496.94,188.95 0,0 618.7,2099.93 778.49,2301.96 0,0 783.51,-49.01 1311.76,-332.85 528.26,-283.83 1300.88,-397.82 1716.65,-141l-868.38 -2283.71 -2441.58 266.65z"/>
   <path class="fil26" d="M2895.42 20697.4c-115.78,-183.96 -215.21,-378.17 -297.24,-579.43 -142.96,-350.74 -233.38,-722.88 -266.53,-1100.21 -6.98,-79.34 -27.92,-176.28 -14.43,-258.91 169.3,641.37 511.87,1462.22 511.87,1462.22 97.43,131.54 258.78,172.57 462.4,172.53 330.82,0 773.18,-108.27 1233.95,-112.24 6,-0.06 11.86,-0.1 17.79,-0.1 201.46,0 372.17,29.8 513.83,72.97 -120.2,-9.3 -240.77,-13.93 -361.33,-13.93 -615.72,0 -1231.63,120.84 -1800.31,357.1z"/>
   <path class="fil5" d="M4664.21 18209.42l937.3 2464.94c0,0 -331.68,-399.45 -1076.07,-393 -744.36,6.43 -1440.58,285 -1696.35,-60.29 0,0 -622.65,-1492.02 -603.92,-2024.67 0,0 221.91,219.87 631.54,133.26 194.99,-41.51 536.72,-116.1 877.83,-161.73 375.78,-50.53 751.43,-65.03 929.67,41.49z"/>
   <path class="fil24" d="M8179.61 19016.33c0,0 104.99,457.99 82.55,508.01 0,0 -1193.52,716.59 -1701.01,909.56 -507.48,192.98 -784.7,118.59 -959.64,240.46 0,0 177.52,-1042.55 2578.1,-1658.03z"/>
   <path class="fil5" d="M8179.61 19016.33c0,0 -618.09,483.97 -1201.49,622.84 -583.37,138.85 -1236.56,567 -1376.61,1035.19l-937.3 -2464.94c0,0 719.61,-718.98 1700.08,-1198.56 54.53,-26.81 109.92,-52.87 165.67,-77.93 164.02,-73.44 428.96,-144.85 702.03,-154.08 0,0 932.82,1980.37 947.62,2237.48z"/>
   <path class="fil27" d="M5284.46 19840.62c-377.92,-921.19 -953.47,-1380.04 -1272.04,-1563.16 -75.81,-43.64 -173.7,-80 -277.88,-109.53 171.34,-23.04 342.67,-38.58 495.25,-38.58 182.07,0 337.45,22.13 434.42,80.07l0 0 620.22 1631.1c0.03,0.08 0.03,0.1 0.03,0.1z"/>
   <path class="fil27" d="M5284.43 19840.52l-620.22 -1631.1c0,0 719.61,-718.98 1700.08,-1198.56 -486.49,386.35 -1379.08,1117.41 -1433.24,1318.37 -74.04,275.97 349.57,1500.23 353.38,1511.29z"/>
   <path class="fil10" d="M3018.11 18802.65c-4.71,1.69 -10.16,0.43 -13.67,-3.54 -4.6,-5.23 -4.11,-13.17 1.12,-17.78 239.21,-210.51 559.12,-326.68 877.64,-318.77 6.97,0.17 12.46,5.92 12.29,12.88 -0.15,6.98 -5.99,12.48 -12.89,12.32 -312.28,-7.76 -625.86,106.21 -860.39,312.48l-4.1 2.41z"/>
   <path class="fil10" d="M4665.52 18523.85l-8.59 -0.07c-184.04,-67.93 -384.3,-91.72 -579.17,-68.83 -6.91,0.82 -13.16,-4.14 -13.97,-11.02 -0.84,-6.93 4.07,-13.19 11.05,-14.01 198.76,-23.34 403.05,0.92 590.82,70.22 6.53,2.42 9.86,9.66 7.46,16.19 -1.34,3.63 -4.21,6.33 -7.6,7.52z"/>
   <path class="fil10" d="M4950.16 19015.16l-6.42 0.54c-601.85,-107.04 -1228.37,-3.9 -1764.19,290.49 -5.98,3.38 -13.75,1.13 -17.1,-4.96 -3.36,-6.09 -1.12,-13.75 4.99,-17.08 540.76,-297.15 1173.16,-401.29 1780.7,-293.25 6.85,1.22 11.43,7.78 10.2,14.61 -0.81,4.62 -4.04,8.21 -8.18,9.65z"/>
   <path class="fil10" d="M4058.55 19515.73l-2.62 0.6c-234.93,30 -461.85,98.1 -674.27,202.56 -6.16,2.91 -13.81,0.46 -16.88,-5.76 -3.06,-6.26 -0.49,-13.81 5.76,-16.89 215.06,-105.61 444.58,-174.54 682.2,-204.87 6.89,-0.89 13.21,3.97 14.09,10.89 0.77,5.99 -2.8,11.52 -8.28,13.47z"/>
   <path class="fil10" d="M5063.34 19491.4l-5.8 0.63c-264.45,-33.74 -532.38,-32.18 -796.39,4.6 -6.9,0.96 -13.26,-3.82 -14.22,-10.73 -1,-6.88 3.94,-13.34 10.74,-14.2 266.23,-37.12 536.42,-38.67 803.05,-4.67 6.91,0.9 11.81,7.19 10.92,14.11 -0.62,4.86 -3.94,8.73 -8.3,10.26z"/>
   <path class="fil10" d="M5197.66 19943.49l-6.2 0.57c-544.41,-86.37 -1105.74,-34.47 -1624.94,150.03 -7.89,2.83 -15.71,5.61 -23.56,8.49l-0.09 0.03c-6.53,2.32 -13.7,-1.06 -16.07,-7.54 -2.37,-6.56 0.99,-13.78 7.53,-16.17 529.97,-193.6 1104.2,-248.08 1661.08,-159.74 6.88,1.1 11.57,7.54 10.47,14.44 -0.75,4.69 -4.04,8.4 -8.22,9.89z"/>
   <path class="fil10" d="M5069.98 18438.66c-3.49,1.25 -7.55,0.93 -10.96,-1.23 -5.86,-3.69 -7.64,-11.48 -3.91,-17.38 335.23,-530.26 907.31,-891.08 1530.27,-965 6.89,-0.83 13.18,4.14 13.98,11.02 0.82,6.92 -3.97,13.25 -10.99,14.01 -615.58,73.13 -1180.74,429.51 -1511.95,953.44l-6.44 5.14z"/>
   <path class="fil10" d="M5307.11 18968.16c-3.21,1.16 -6.85,0.99 -10.06,-0.7 -6.2,-3.25 -8.54,-10.85 -5.33,-17.02 110.48,-210.6 286.48,-388.85 495.66,-501.98 6.02,-3.22 13.77,-1.03 17.09,5.06 3.3,6.16 1.02,13.77 -5.11,17.08 -204.8,110.79 -377.16,285.37 -485.3,491.57l-6.95 5.99z"/>
   <path class="fil10" d="M5900.67 18396.4c-4.47,1.6 -9.67,0.57 -13.24,-3.03 -4.83,-4.97 -4.77,-12.95 0.2,-17.85 229.97,-225.39 532.05,-375.32 850.68,-421.93 6.89,-1.02 13.28,3.74 14.3,10.63 1,6.92 -3.9,13.34 -10.66,14.27 -313.36,45.89 -610.47,193.29 -836.67,415.07l-4.61 2.84z"/>
   <path class="fil10" d="M5490.53 19514.57c-3.94,1.43 -8.51,0.83 -12.02,-1.95 -5.46,-4.31 -6.42,-12.25 -2.12,-17.68 7.12,-9.06 721.34,-906.11 1467.43,-994.1 6.88,-0.83 13.17,4.1 13.97,11.02 0.79,6.89 -3.84,13.18 -11.03,13.97 -735.46,86.81 -1443.52,975.73 -1450.56,984.67l-5.67 4.07z"/>
   <path class="fil16" d="M20981.12 20998.86l633.25 1342.39c46.72,99.07 165.68,141.75 264.73,95.03 99.53,-46.94 142.21,-165.91 95.5,-264.93l-631.85 -1339.45 -361.63 166.96z"/>
   <path class="fil17" d="M21099.74 21250.31l-83.7 -177.43 0 0 83.7 177.43 0 0zm372.57 -143.79l-91.45 -193.81 0 0 91.45 193.81 0 0z"/>
   <path class="fil18" d="M21099.74 21250.31l-83.7 -177.43c74,-18.71 147.2,-44.8 218.81,-78.57 51.22,-24.16 99.96,-51.48 146.01,-81.6l91.45 193.81c-39.5,28.93 -82.11,53.6 -126.25,73.83 -85.48,39.2 -168.05,62.74 -246.32,69.96z"/>
   <path class="fil19" d="M20772.6 20621.45c-235.6,0 -470.21,-104.22 -635.51,-273.63 -194.19,-198.56 -295,-478.84 -296.06,-755.97 -0.16,-24.16 0.43,-48.34 1.79,-72.44 10.03,-22.71 20.89,-44.99 32.64,-66.91 382.1,-144.81 752.82,-301.59 1111.08,-469.14 257.19,73.53 482.52,253.44 605.62,514.36 53.83,114.16 83.27,233.54 90.42,352.24 -26.82,84.47 -61.06,166.41 -103.93,244.51 -142.96,259.96 -392.76,471.46 -685.7,517.68 -39.93,6.26 -80.12,9.3 -120.35,9.3z"/>
   <path class="fil20" d="M19875.46 19452.5c94.07,-175.2 243.08,-322.88 436.7,-414.22 132.57,-62.5 272.19,-92.13 409.61,-92.13 90.06,0 179.15,12.7 264.77,37.21 -358.26,167.55 -728.98,324.33 -1111.08,469.14z"/>
   <path class="fil21" d="M20723.11 20869.86c-360.66,0 -706.34,-203.82 -870.39,-551.59 -123.83,-262.47 -118.53,-552.67 -9.9,-798.86 -1.36,24.1 -1.95,48.28 -1.79,72.44 1.06,277.13 101.87,557.41 296.06,755.97 165.3,169.41 399.91,273.63 635.51,273.63 40.23,0 80.42,-3.04 120.35,-9.3 292.94,-46.22 542.74,-257.72 685.7,-517.68 42.87,-78.1 77.11,-160.04 103.93,-244.51 22.91,380.91 -183.69,755.03 -549.87,927.76 -132.56,62.54 -272.18,92.14 -409.6,92.14z"/>
   <path class="fil16" d="M21132.71 20777.72c-480.33,226.6 -1053.4,20.9 -1279.99,-459.45 -226.56,-480.32 -20.89,-1053.39 459.44,-1279.99 480.34,-226.55 1053.41,-20.86 1280,459.44 226.56,480.37 20.89,1053.41 -459.45,1280zm-922.68 -1956c-599.96,283.01 -856.88,998.78 -573.87,1598.73 283.01,599.93 998.77,856.84 1598.69,573.86 599.96,-283 856.88,-998.81 573.87,-1598.72 -283.01,-599.96 -998.78,-856.88 -1598.69,-573.87z"/>
   <path class="fil23" d="M21781.71 19678.2c-13.48,0 -25.93,-8.67 -30.14,-22.22 -50.98,-165.08 -137.96,-316.84 -251.55,-438.88 -18.74,-20.16 -38.5,-39.83 -58.8,-58.44 -12.88,-11.79 -13.7,-31.71 -1.93,-44.57 6.24,-6.77 14.71,-10.23 23.25,-10.23 7.61,0 15.23,2.76 21.29,8.32 21.55,19.76 42.54,40.62 62.38,61.95 120.01,129 211.86,289.16 265.62,463.24 1.99,6.43 1.82,13.05 -0.13,19.02 -3.05,9.42 -10.49,17.24 -20.69,20.39 -3.08,0.96 -6.23,1.42 -9.3,1.42z"/>
   <path class="fil23" d="M21195.75 18986.26c-4.63,0 -9.33,-1.01 -13.76,-3.2 -160.35,-78.04 -335.83,-117.71 -509.48,-117.71 -117.26,0 -233.68,18.09 -344.06,54.63 -3.31,1.1 -6.66,1.64 -9.93,1.64 -13.21,0 -25.53,-8.42 -29.93,-21.67 -5.44,-16.48 3.47,-34.39 20.06,-39.82 116.74,-38.67 239.88,-57.81 363.83,-57.81 183.19,0 368.16,41.78 537.12,124.05 14.3,6.96 20.95,23.32 16.19,38.05l-1.67 4.1c-5.46,11.23 -16.68,17.74 -28.37,17.74z"/>
   <path class="fil8" d="M4188.05 1150.04l1906.84 3140.22 81.16 133.86c27.97,45.85 13.27,104.55 -32.62,132.52l-2473.8 1502.29c-98.84,60.39 -130.12,188.39 -70.57,287.22l128.34 210.6c59.55,98.82 188.39,130.15 286.82,70.15l2371.2 -1439.9c94.65,-57.19 200.27,69.32 121.7,147.39 -13.44,12.95 -28.93,25.43 -46.01,35.4l-2698.15 1638.19c-116.35,70.78 -268.59,33.67 -339.34,-82.67l-2356.18 -3879.99c-70.75,-117.2 -33.64,-269.43 83.12,-339.76l171.4 -104.35 2526.32 -1534.27c116.76,-70.32 269.01,-33.24 339.77,83.1z"/>
   <path class="fil28" d="M3635.18 7044.07c-75.62,0 -149.61,-34.66 -197.44,-97.96 47.8,63.19 121.76,97.8 197.3,97.8 43.71,0 87.93,-11.59 127.92,-35.93l1907.79 -1158.33c-0.24,0.2 -0.6,0.5 -0.87,0.7l-1906.8 1157.87c-40.01,24.26 -84.23,35.85 -127.9,35.85z"/>
   <path class="fil29" d="M5669.88 5850.35c0.27,-0.2 0.63,-0.5 0.87,-0.7l790.36 -479.86c1.55,-0.9 3.1,-1.86 4.63,-2.79 -1.53,1 -3.08,1.95 -4.67,2.92l-791.19 480.43z"/>
   <path class="fil28" d="M3905.92 6657.37c-60.01,0 -118.85,-25.9 -159.12,-73.54 40.4,47.58 99.16,73.47 159.17,73.47 33.97,0 68.31,-8.28 99.99,-25.63 -31.63,17.38 -66.03,25.7 -100.04,25.7zm-209.33 -151.18l-97.53 -160.04c-20.47,-33.97 -30.21,-71.38 -30.15,-108.33 0.01,-6.5 0.32,-12.98 0.93,-19.44 -4.01,43.08 5.29,87.77 29.49,127.64l97.26 160.17zm-44.68 -435.17c5.64,-4.27 11.55,-8.32 17.72,-12.09l2473.8 -1502.29c21.29,-13 35.85,-32.57 42.57,-54.46 -6.61,21.99 -21.15,41.69 -42.47,54.63l-2474.1 1502.32c-6.09,3.71 -11.95,7.68 -17.52,11.89zm2859.98 -860.22c-18.44,-22.71 -46.38,-38.21 -76.85,-38.21 -0.62,0 -1.22,0 -1.84,0.04 0.65,-0.04 1.32,-0.04 1.98,-0.04 30.43,0 58.3,15.5 76.71,38.21z"/>
   <path class="fil30" d="M3437.74 6946.11c-5,-6.63 -9.73,-13.55 -14.12,-20.8l-2303.11 -3792.62 0 -405.83c9.34,-7.72 19.35,-14.87 30.05,-21.3l171.4 -104.35c182.95,264.83 349.94,523.97 578.44,756.25 461.06,468.79 1037.63,824.77 1666.77,1016 366.67,111.47 749.55,166.3 1132.51,166.34 474.94,0 950.04,-84.34 1395.21,-249.54l81.16 133.86c9.6,15.76 14.16,33.03 14.16,50.06 0,9.53 -1.42,18.97 -4.21,28 7.62,-25.22 4.81,-53.46 -10.06,-77.97l-47.18 -77.67c-479.44,276.78 -2492.85,1449.81 -3078.31,1964.21l373.13 614.49c4.41,7.26 9.16,14.24 14.16,20.87zm568.22 -314.44c2.77,-1.52 5.53,-3.11 8.26,-4.77l2371.2 -1439.9c15.92,-9.64 32.15,-14.04 47.78,-14.37 -15.67,0.36 -31.92,4.79 -47.88,14.5l-2371.1 1439.81c-2.73,1.65 -5.49,3.24 -8.26,4.73zm-259.16 -47.84c-7.08,-8.34 -13.61,-17.35 -19.48,-27.01l-30.73 -50.63 30.81 50.56c5.83,9.7 12.32,18.74 19.4,27.08zm-176.96 -365.45c5.31,-56.95 33.88,-111.04 82.07,-147.36 -48.16,36.48 -76.69,90.52 -82.07,147.36zm2895.9 -851.38c15.16,-9.69 28.87,-20.89 41.18,-32.7 38.94,-38.71 32.72,-89.3 4.97,-123.5 14.1,17.35 22.68,38.87 22.68,60.92 0,21.52 -8.21,43.53 -27.45,62.67 -12.21,11.76 -26.12,23.14 -41.38,32.61z"/>
   <path class="fil31" d="M3635.04 7043.91c-75.54,0 -149.5,-34.61 -197.3,-97.8 -5,-6.63 -9.75,-13.61 -14.16,-20.87l-373.13 -614.49c585.46,-514.4 2598.87,-1687.43 3078.31,-1964.21l47.18 77.67c14.87,24.51 17.68,52.75 10.06,77.97 -6.72,21.89 -21.28,41.46 -42.57,54.46l-2473.8 1502.29c-6.17,3.77 -12.08,7.82 -17.72,12.09 -48.19,36.32 -76.76,90.41 -82.07,147.36 -0.61,6.46 -0.92,12.94 -0.93,19.44 -0.06,36.95 9.68,74.36 30.15,108.33l97.53 160.04 30.73 50.63c5.87,9.66 12.4,18.67 19.48,27.01 40.27,47.64 99.11,73.54 159.12,73.54 34.01,0 68.41,-8.32 100.04,-25.7 2.77,-1.49 5.53,-3.08 8.26,-4.73l2371.1 -1439.81c15.96,-9.71 32.21,-14.14 47.88,-14.5 0.62,-0.04 1.22,-0.04 1.84,-0.04 30.47,0 58.41,15.5 76.85,38.21 27.75,34.2 33.97,84.79 -4.97,123.5 -12.31,11.81 -26.02,23.01 -41.18,32.7 -1.53,0.93 -3.08,1.89 -4.63,2.79l-790.36 479.86 -1907.79 1158.33c-39.99,24.34 -84.21,35.93 -127.92,35.93z"/>
   <path class="fil9" d="M6454.52 5145.31l-2721.05 1652.3c-63.92,38.8 -147.19,18.44 -186.02,-45.46l-204.29 -336.44c-38.82,-63.94 -18.45,-147.2 45.46,-186.01l2721.04 -1652.3 344.86 567.91z"/>
   <polygon class="fil14" points="5573.71,5343.53 5973.15,5100.97 6310.39,5656.37 5987.79,5623.89 5910.71,5939.28 "/>
   <polygon class="fil9" points="2002.07,3287.51 1980.59,3255.79 3039.81,2540.26 3061.29,2571.98 "/>
   <polygon class="fil9" points="3733.9,2140.54 3297.46,2405.54 3277.58,2372.8 3714.01,2107.79 "/>
   <polygon class="fil9" points="4181.79,2386.27 2116.05,3640.64 2096.17,3607.93 4161.91,2353.52 "/>
  </g>
 </g>
</svg>
